<svg xmlns="http://www.w3.org/2000/svg" viewBox="0 0 585 752.5"><defs><style>.uno12{fill:#fff;opacity:0;}.dos12{fill:#47b1a2;}.tres12{fill:#f9ed94;}.cls-4{fill:#dc0a09;}.cls-5,.cls-6,.cls-7,.cls-8{fill:none;}.cls-5,.cls-6{stroke:#dc0a09;}.cls-5,.cls-6,.cls-7,.cls-9{stroke-miterlimit:10;}.cls-5,.cls-8,.cls-9{stroke-width:3px;}.cls-7,.cls-8,.cls-9{stroke:#000;}.cls-7{stroke-width:2px;}.cls-8{stroke-linecap:round;stroke-linejoin:round;}.cls-9{fill:#b19614;}</style></defs><g id="Capa_2" data-name="Capa 2"><g id="Capa_1-2" data-name="Capa 1"><rect class="uno12" width="585" height="750"/><path class="dos12" d="M293.24,696.44c.08,5,.16,10,0,14.94-.12,4-1.23,8.22,1.66,11.49a6,6,0,0,0,8.49,0l.17-.19c2.06-2.25,2.55-6.3,0-8.48l-.14-.12c-5.83-5-14.35,3.45-8.48,8.48l.14.12V714.2l-.18.18h8.49l-.22-.24,1.76,4.24c-.24-3.34.33-6.94.37-10.32,0-3.87,0-7.75-.08-11.62-.11-7.71-12.11-7.74-12,0Z"/><path class="dos12" d="M307.28,719.55q1.86-8.06,3.43-16.18.74-3.82,1.4-7.66a24.22,24.22,0,0,0,.6-3.47c0-2,1.44-1.46-.89-.78l-4.62-.61c-2.3-1.62-.14,1.69.24,2.68l1.67,4.24,3.67,9.32c2.41,6.15,11.43,5.49,11.78-1.6.38-7.67-3-15.2-3.87-22.79a178,178,0,0,1-.84-23.43c.13-7.87.46-15.74.39-23.62-.07-8-1.06-16.23.83-24.14l-11.79-1.6c.51,9.54,3.19,18.6,5,27.92,1.88,10,2.06,20.2,3.77,30.22a561.23,561.23,0,0,0,13.53,59.08l10-5.84a164.28,164.28,0,0,1-24.11-34.46l-10.36,6a79.3,79.3,0,0,0,11.81,12.75c4,3.39,10,1.16,10.24-4.24a40.84,40.84,0,0,0-4.05-19.47c-3.25-7-13.59-.91-10.36,6.06a28,28,0,0,1,2.41,13.41l10.25-4.25a66,66,0,0,1-9.94-10.31c-4.55-6-14.05-1-10.36,6a176.88,176.88,0,0,0,26,36.9c4.09,4.48,11.62-.22,10-5.84-5.34-18.83-9.74-38-13.21-57.27-1.7-9.39-2-18.95-3.46-28.37s-4.64-18.73-5.15-28.39c-.34-6.49-10.14-8.46-11.78-1.59-1.87,7.81-1.51,15.61-1.32,23.57.21,8.5-.13,17-.29,25.49a192.79,192.79,0,0,0,.71,24.39,116.3,116.3,0,0,0,1.79,11.74c.86,4,2.38,7.86,2.17,12l11.79-1.59c-2.44-6.21-4.73-12.5-7.33-18.64-2-4.78-6.72-7.3-11.42-4-4.51,3.15-4.69,9.25-5.57,14.15-1.26,7-2.72,14-4.32,21-1.73,7.52,9.84,10.73,11.57,3.19Z"/><path class="dos12" d="M348,738.2c7.73,0,7.74-12,0-12s-7.73,12,0,12Z"/><path class="dos12" d="M352.89,730.18c-4.36.34-9.57,1.12-13.61-1-3.63-1.93-4-5.89-5.24-9.45-2.65-8-8.35-14.35-11.06-22.22-2.51-7.25-14.11-4.13-11.57,3.19,1.76,5.11,4.43,9.64,7.16,14.28,2.92,5,4.14,10.17,6.41,15.4,4.92,11.3,17,12.68,27.91,11.83,7.64-.59,7.71-12.6,0-12Z"/><path class="dos12" d="M338.84,736.19c11.75,1.75,23.19-1,35-.94,2.83,0,5.66.06,8.49.18,2.57.11,5.54,1.09,8,.91q2.34,1.53,2.19-2.13,2.42-3.27,0-2.4c-1.35-.24-3.75.47-5.13.53a55.53,55.53,0,0,1-9.64-.49v12a119.23,119.23,0,0,1,13.76.46c7.69.69,7.65-11.32,0-12a119.23,119.23,0,0,0-13.76-.46c-7.94.18-7.45,11,0,12,6.29.81,18.15,2,23.28-2.85,6.22-5.9-.63-14.11-6.78-16-7.8-2.42-17.21-1.86-25.28-1.71-9,.17-17.95,2.68-26.91,1.34-7.55-1.12-10.81,10.44-3.19,11.58Z"/><path class="dos12" d="M391.25,732.75c-6.09,1.49-13.64-.51-19.76-1.18-6.64-.72-13.31-1.16-20-1.59-7.71-.5-7.68,11.5,0,12,7.3.47,14.6,1,21.87,1.81,6.88.79,14.21,2.21,21.05.53,7.5-1.84,4.33-13.42-3.19-11.57Z"/><path class="dos12" d="M341.83,730c-3.44-.72-7-.93-10.51-1.31-3.75-.41-7,4.18-5.79,7.59,1.43,4,4.67,5.24,8.61,5.54,3.14.24,6.14-2.93,6-6a6.15,6.15,0,0,0-6-6c.82.06-.53-.17-.73-.25l2.64,1.55-.35-.28,1.54,2.65-.14-.4-5.78,7.6,4.17.46,2.08.23a3.72,3.72,0,0,1,1.07.19c3.07.64,6.63-.89,7.38-4.19.69-3-.9-6.69-4.19-7.38Z"/><path class="dos12" d="M332.91,741.76c4.34,1.13,8.55.53,13,.39a124.4,124.4,0,0,1,13.92.41c7.69.64,7.65-11.36,0-12-4-.33-8-.51-12.06-.45-3.69.06-8.05,1-11.64.08-7.48-2-10.67,9.62-3.19,11.57Z"/><path class="dos12" d="M336.09,731.41c-1.53-6.28-4.64-12-7.41-17.81-1.36-2.85-2.78-5.68-4.08-8.56s-1.91-6.08-3.14-9.06c-2.9-7-14.51-4-11.57,3.19,2.34,5.7,4.11,11.44,6.8,17.07,2.85,6,6.25,11.89,7.83,18.36,1.83,7.49,13.4,4.32,11.57-3.19Z"/><path class="dos12" d="M300.77,698.63c-4.38,10.38-3.15,22.53-2.16,33.53a6.3,6.3,0,0,0,4.4,5.78l.12,0c7.29,2.6,10.43-9,3.19-11.57l-.12,0,4.41,5.79c-.42-4.66-.69-9.33-.75-14-.05-4.35-.46-9.36,1.28-13.47,1.27-3,.88-6.39-2.16-8.21-2.5-1.5-7-.83-8.21,2.16Z"/><path class="dos12" d="M300.17,704.68l-.59,1.4,11.18,3a15.5,15.5,0,0,1,1.08-3.83c2.62-6.8-7.29-9.72-11-4.62-4.55,6.3-4.08,14.39-3.41,21.75.16,1.88,0,5.26.88,6.94l.37,1.76q3-1.59.22-1.19c-1.6-.76-5.53,0-7.3.06q-3.19.13-6.37.43c-9,.84-17.77,2.42-26.87,1.85-9.26-.58-18.52-1.84-27.75-2.81v12c7.45.32,14.81.77,22.22-.24,7.71-1.06,15.22-1.09,22.95-1.6,13.31-.89,27.1-7.24,27.88-22.24.34-6.5-8-7.4-11.18-3-3.76,5.13-3.93,14.23-11.81,14.64-7.69.39-7.74,12.39,0,12,5.46-.29,10.56-2.18,14.35-6.26s4.54-9.85,7.82-14.32l-11.18-3c-.63,12-19.23,10.18-27.19,10.5-5.36.22-10.58,1.39-15.91,1.84-6,.51-12,0-17.95-.26-7.85-.34-7.52,11.21,0,12,10.1,1.07,20.26,2.58,30.42,2.94s20.34-2,30.57-2.41c7.32-.28,18.88,1.13,19.32-9.38.35-8.25-5.18-18.32.28-25.89l-11-4.62a26.75,26.75,0,0,0-1.51,7c-.6,5.75,8.88,8.43,11.18,3l.59-1.4c1.28-3,.88-6.4-2.15-8.21-2.51-1.5-6.94-.83-8.21,2.15Z"/><path class="dos12" d="M291.83,729.58c-4.83,1-9.25,3.34-14.1,4.26a161.4,161.4,0,0,1-16.56,1.91c-11.07,1-22.18,1.34-33.29,1.24-7.73-.08-7.74,11.92,0,12a350.4,350.4,0,0,0,35.19-1.41c5.43-.49,10.88-1.05,16.27-1.9s10.32-3.38,15.68-4.52c7.55-1.62,4.35-13.19-3.19-11.58Z"/><path class="dos12" d="M249.09,737.93a64,64,0,0,1-16.51,1.31c-1.08-.06-4.35-1-3.35.44-.34.79-.12,1,.66.53a7.31,7.31,0,0,0,1.51-.46,26,26,0,0,0,3.57-1.61c6.41-3.3,1.7-12.11-4.62-11l-5.26,1,3.19,11.57A72.59,72.59,0,0,1,260.42,734c11.62.54,23.09,2.76,34.77,2.49,7.71-.18,7.73-12.18,0-12-12.32.28-24.42-2.22-36.71-2.57a79.79,79.79,0,0,0-33.39,6.2c-7,3-4.58,13,3.19,11.57l5.26-1-4.62-11c-4.49,2.32-9.36,1.81-11.07,7.65A12.64,12.64,0,0,0,221,747.71c3.31,3.22,8.16,3.41,12.51,3.58a77.18,77.18,0,0,0,18.74-1.79c7.56-1.58,4.36-13.15-3.19-11.57Z"/><path class="dos12" d="M284.22,735.26a13.63,13.63,0,0,0,5-5.56c1.35-2.6,3.34-4.63,4.82-7.15,3.31-5.62,6-11.28,9.78-16.67,4.45-6.33-5.95-12.34-10.36-6.06a95.74,95.74,0,0,0-8.5,14.06,27,27,0,0,1-3.43,5.51c-.87,1.08-2.34,4.84-3.37,5.5-6.47,4.18-.46,14.57,6.05,10.37Z"/><path class="dos12" d="M298.53,673.31a179.91,179.91,0,0,1-10.13,30.21c-3.77,8.44-8.66,17-10.56,26-1.58,7.54,10,10.76,11.57,3.19,1.92-9.17,7-18,10.93-26.48,4.46-9.54,7.21-19.59,9.76-29.77,1.89-7.49-9.68-10.69-11.57-3.19Z"/><path class="dos12" d="M302,590.74c.84,6.61,1.83,13.22,2.46,19.85.67,7.11,0,14.1-.63,21.19-1.24,14.24-2.29,28.51-5.14,42.54-1.53,7.54,10,10.77,11.57,3.19,2.94-14.46,4.13-29.18,5.41-43.86.61-7,1.48-14.13.95-21.21-.54-7.25-1.71-14.49-2.62-21.7-.95-7.56-13-7.65-12,0Z"/><path class="dos12" d="M311.48,656.63c3.65-6.38,4.06-13.21,4.92-20.34,1-7.84,3.34-15.4,5.71-22.91s-9.26-10.54-11.57-3.19a146.09,146.09,0,0,0-5.49,21.08c-1,6.43-.61,13.5-3.93,19.3-3.84,6.71,6.52,12.76,10.36,6.06Z"/><path class="dos12" d="M317.25,586.7c-2.48,6.1-4.72,12.18-5.17,18.8s1.87,13.34.07,19.86c-2,7.45,9.53,10.64,11.58,3.19,1.82-6.64.54-12.88.31-19.59s2.28-12.92,4.78-19.07c2.9-7.15-8.7-10.26-11.57-3.19Z"/><path class="dos12" d="M326.6,583.23l-2.44-.64v5c1.87-1.24,4.14-1.42,6.31-1.73s4.69-.29,6.56-1.4c.22-.13,0-2.22,0-2.5s-.09-2.49,0-2.5a6.77,6.77,0,0,0-3.24,2c-1.13,1.08-2.31,2.12-3.51,3.14-2.14,1.79-4.31,3.71-7.14,4.24v5a20.63,20.63,0,0,0,3.84-2.22c1.06-.78,2-2.08,3.47-2v-5c-1.18,1.67-2.4,3.15-4.46,3.66a10.43,10.43,0,0,1-2.84.23c-.72,0-2.16.14-2.68-.44V593c0-.63.72-1.28,1.08-1.75l1.19-1.57,2.37-3.14c.29-.38,0-2,0-2.5,0-.2-.1-2.49,0-2.5-11.52,2.53-23.16-.27-34.35-3.08.06,0,0,2.3,0,2.5,0,.36-.26,2.27,0,2.5A50.3,50.3,0,0,1,305.34,602v-5c-2.25-1.94-2.86-5.41-3.85-8.08a14,14,0,0,0-4.4-6.63v5c3.06,1.5,6.45,1.89,9.78,2.39,3.59.54,7.19,1.06,10.81,1.45v-5c-5.53,1.49-11.24.85-16.79-.13.18,0-.14,4.53,0,5a3,3,0,0,0,2.11,1.83c1.38.5,2.83.85,4.25,1.23l8.6,2.28v-5c-3.5.89-7.21-.33-10.67.78a3.8,3.8,0,0,0-1.82,1c-.48.59-.35,1.25-.62,1.9.09.41,0,.5-.23.27l-.2-.42a10,10,0,0,1-.6-1.28l-1.41-3a3.49,3.49,0,0,1,0,.73c0,.59,0,1.18,0,1.77a7.48,7.48,0,0,0,0,2.5l2.41,5.12v-.09c.05-1.28.24-2.47,1.44-3.14a8.69,8.69,0,0,1,3.75-.86c2.67-.13,5.33.33,8-.34a37.92,37.92,0,0,0,0-5l-8.6-2.28c-1.37-.36-2.76-.72-4.1-1.18a3.1,3.1,0,0,1-2.26-1.88v5c5.55,1,11.26,1.62,16.79.13.19-.06,0-5,0-5-3.62-.39-7.22-.91-10.81-1.45-3.33-.5-6.72-.89-9.78-2.39a15,15,0,0,1,0,2.5c0,.35-.26,2.28,0,2.5a14,14,0,0,1,4.4,6.63c1,2.67,1.6,6.14,3.85,8.08a10,10,0,0,1,0-2.5,7.48,7.48,0,0,0,0-2.5,50.3,50.3,0,0,0-14.57-18.55v5c11.19,2.81,22.83,5.61,34.35,3.08v-5l-2.37,3.14a17.59,17.59,0,0,0-2.08,2.75,6.09,6.09,0,0,0-.23,2.49c0,.82,0,1.63,0,2.44,0,.22-.08.63.09.81.46.5,2,.35,2.61.36a10.43,10.43,0,0,0,2.84-.23c2.06-.51,3.29-2,4.46-3.66.27-.38-.12-5,0-5-1.41,0-2.41,1.27-3.47,2a21,21,0,0,1-3.84,2.22,11.44,11.44,0,0,0,0,2.5c0,.19.08,2.49,0,2.5,2.83-.53,5-2.45,7.14-4.24,1.15-1,2.29-2,3.37-3a7,7,0,0,1,3.38-2.19v-5c-1.87,1.11-4.45,1.09-6.56,1.4s-4.44.49-6.31,1.73c-.26.16,0,5,0,5l2.44.64c-.07,0,0-2.3,0-2.5a14.73,14.73,0,0,0,0-2.5Z"/><path class="tres12" d="M338.23,572.25c-.82.15-1.64.33-2.45.54a6.46,6.46,0,0,0,0,.73c0,.59,0,1.18,0,1.77v2.16c0,.11,0,.22,0,.34a2.41,2.41,0,0,0,.73.33,5.77,5.77,0,0,0,.82.2,2,2,0,0,0,1.53-.41c0-.07,0-.14,0-.22v-.51c0-.59,0-1.18,0-1.77s0-1.18,0-1.77v-.39c0-.11,0-.23,0-.34a2,2,0,0,1-1.53.41,5.77,5.77,0,0,1-.82-.2,2.41,2.41,0,0,1-.73-.33v5c.81-.21,1.63-.39,2.45-.54a6.51,6.51,0,0,0,0-.73c0-.59,0-1.18,0-1.77s0-1.17,0-1.76c0-.08,0-.74,0-.74Z"/><path class="tres12" d="M287.13,559.83a250.92,250.92,0,0,0,28.94,2.86,104.07,104.07,0,0,0,14.34-.62c2.28-.27,4.52-.71,6.78-1.12,1.7-.31,4.08-.18,4.33,2V558c-.11,1.69-1.74,2.43-3.21,2.66-2,.32-4,.36-6.05.48q-6.12.36-12.27.37a209.12,209.12,0,0,1-24-1.38c-2-.22-3.9-.49-5.85-.76-.68-.1-1.64-.36-2.23.15s-.38,1.39-.39,2a32.51,32.51,0,0,0,0,3.42c.07.71.36.9,1,1.26a27.47,27.47,0,0,0,5.1,2.13c6.78,2.13,14,2,21.06,1.64q6.87-.36,13.7-1.12,3.42-.39,6.82-.87c1.43-.2,4.81-1.07,4.89,1.35v-4.91c-.45,1.63-3,2.49-4.47,2.91a24.57,24.57,0,0,1-5.92.76c-4.67.16-9.35.21-14,.17-9.46-.07-18.95-.78-28.08-3.35.19,0-.06,4.5,0,5,.46,4,4.94,4.76,8.2,5,4.39.39,8.79.75,13.19,1a133.84,133.84,0,0,0,26.32-.77c.27,0-.2-5,0-5A133.84,133.84,0,0,1,309,571c-4.4-.25-8.8-.6-13.19-1-3.26-.29-7.74-1-8.2-5v5A97.68,97.68,0,0,0,311,573.23c4,.13,7.92.12,11.88.06a77.56,77.56,0,0,0,10.88-.48,13.06,13.06,0,0,0,4.42-1.45,5,5,0,0,0,1.72-1.3,4.41,4.41,0,0,0,.27-2.42c0-1.19.44-3.43-.52-4.37-1.25-1.21-3.89-.3-5.37-.09a211.68,211.68,0,0,1-24,2,61.71,61.71,0,0,1-12.07-.72,34.62,34.62,0,0,1-5.76-1.51,28.46,28.46,0,0,1-2.75-1.14c-.7-.34-1.87-.7-2.13-1.5v5c.21-1.8,3-.89,4.06-.73,2.11.29,4.22.54,6.34.77q6,.63,12,.92a207.21,207.21,0,0,0,24.29-.26c2.6-.18,7.2.16,7.32-3.45,0-1.13,0-2.28,0-3.42a5.18,5.18,0,0,0-.16-1.88c-.66-1.66-2.75-1.61-4.19-1.34a106.48,106.48,0,0,1-23.31,1.67c-9-.35-17.87-1.55-26.75-2.79.2,0-.26,5,0,5Z"/><path class="tres12" d="M291.16,578.29c16.11,3.23,35.54,7.31,48.13-6.39l-10-2.65c-.47-1.23,3.44-1-.06-1-1.41,0-2.88.55-4.29.68a17.51,17.51,0,0,1-7.43-.81v11.57c6.91-2.72,14.08-5.65,20.35-9.68,7.29-4.7,4.51-11.63,3.93-19-.64-8.26,1.58-16.25,1.08-24.41s-2.75-16.53-4.33-24.61c-1.18-6.08-4.53-12.13-11.84-9.49-6.63,2.39-7.6,10.27-9.05,16.19-3.27,13.44-10.33,30.93-3.28,44.15,2.27,4.27,10.13,3.74,11-1.43,2-12.18.33-25.06,5-36.7H318.69c1.74,7.05,4.39,14.47,4.89,21.73a34.13,34.13,0,0,1-.54,8.91c-.26,1.32-1.11,6-2.74,6.55l4.63.61c-1.58-1-2.35-5.16-2.84-6.92a69.67,69.67,0,0,1-2-9.8,71.66,71.66,0,0,1,.24-19.57c1.14-7.5-10.21-10.86-11.57-3.19-2.57,14.45-5.22,28.89-9.56,42.93h11.57c-3.07-11.36-2.77-23.27-5.58-34.7-1.33-5.44-10.62-6-11.57,0s-.48,12.07-1.42,18c-.9,5.68-4.15,10.42-4.87,16.19l7.59-5.79-.51-.19,4.19,4.19c-.33-1.14,1.07-4.3,1.2-5.63a14.76,14.76,0,0,0-.6-6.23c-1.41-4.51-8.66-6.38-11-1.43a20.51,20.51,0,0,0-1.82,5.28c-1.31,7.47,9.49,10.76,11.57,3.19,1.3-4.73.58-9.55,1.87-14.28A60,60,0,0,0,301.61,519c.05-7.83-11.35-7.59-12,0-.54,6.31-1.92,13.76-.49,20,1.31,5.8,6.2,10.21,9.95,14.56,3.35,3.89,7.06,9.83,13,9.38,6.4-.48,9.09-6.87,7.91-12.53-1.23-5.94-4.72-11.31-6.83-16.95a105.6,105.6,0,0,1-5.29-19.82c-.8-4.89-.35-12-6.63-13.25-6.77-1.36-9.68,6.38-10.87,11.61-1.4,6.15,5.47,9.57,10,5.84s8.77-8,13.55-11.08c1.95-1.28,1.77-.83,4.53-.85a26.93,26.93,0,0,0,8.2-1.44l-5.83-10-16.47,17.06,10,2.64c-.22-1.22.52-3,.42-4.35a10.39,10.39,0,0,0-1.17-4.1c-.68-1.27-3.75-3.88-3.25-4.7,2.44-4-.74-8.92-5.18-9-5.18-.13-12.6-.85-16.84,2.78-4,3.44-3.77,9.9-6.31,14.38l11,1.43-1.83,3.57c6.25-4.42.26-14.83-6.06-10.36-3.23,2.29-5.31,6-3.68,10,1.84,4.49,8.19,6.34,11,1.43,1.52-2.68,4.36-7.45,4.13-10.74.52-1.34.38-1.57-.43-.71q-1.83,1.16,1.3.36c2.51.22,5.24-.18,7.79-.12l-5.18-9a12,12,0,0,0-.44,12.35c.72,1.26,2.85,2.59,3.26,3.87,0,.16-.38,1.86-.41,2.41a16.64,16.64,0,0,0,.38,3.77c.8,4.51,7.09,5.69,10,2.65l16.47-17.05c4-4.13,0-12-5.84-10-5.6,1.85-10.95-.22-15.91,3.67-5.31,4.15-10.45,8.52-15.67,12.78l10,5.84c.21-1,.45-2,.74-3,.87-1.4.87-1.69,0-.88L298,512l.78.19-3.58-2.76c.56.89.38,2.79.53,3.9.28,2.07.6,4.13,1,6.18a103.07,103.07,0,0,0,2.55,10.4c2.07,6.94,5.32,13.22,8,19.91A20,20,0,0,1,308,552q.57,3.25,5-.67c-.2-.82-2.65-3-3.17-3.6-2.28-2.65-4.66-5.25-6.86-8-4.31-5.31-1.92-14.35-1.37-20.77h-12a54.51,54.51,0,0,1-1.69,13.88c-1.1,4.27-.32,8.73-1.46,12.89L298,548.94a8,8,0,0,1,.61-2.42l-11-1.43c1,3.25-1.33,6.95-.91,10.36.38,3.12,2.16,4.82,5,5.89,4.06,1.51,7.16-2.31,7.6-5.79.62-5,4-9.44,4.7-14.58.77-5.45.31-11,1.16-16.44H293.66c2.8,11.42,2.5,23.33,5.58,34.7,1.59,5.85,9.85,5.57,11.57,0,4.35-14,7-28.48,9.56-42.93l-11.57-3.19a87.87,87.87,0,0,0,.52,30.6c1.26,6.42,5,22.29,14.48,19.75,8.26-2.23,10.8-12.89,11.57-20.13,1.13-10.79-2.55-21.38-5.1-31.73-1.55-6.26-9.55-5.09-11.58,0-4.68,11.79-3,24.43-4.95,36.7l11-1.43c-2.22-4.18-1.24-9.34-.42-13.79,1-5.35,2.36-10.63,3.65-15.91l1.9-7.82c.2-.8,1.93-5.2,1.59-5.82l-5-1.13.37,1.9c-.05,1.41.66,3.35.93,4.77l1.68,8.59c1,5.24,1.89,10.2,1.2,15.55a84.65,84.65,0,0,0-.93,16c.16,2.86.49,5.7.86,8.53,0,.15.65,3.46.81,2.25,1-.58.62-.39-1.05.59l-1.53.84a128,128,0,0,1-14.43,6.76c-5.42,2.14-5.93,9.6,0,11.57,6.22,2.06,13.5,1.6,19.76-.21a10.51,10.51,0,0,0,6.78-13.46c-1.5-4-6.73-6.24-10-2.64-9.25,10.05-24.81,5.63-36.46,3.3-7.54-1.51-10.77,10.06-3.19,11.57Z"/><path class="tres12" d="M285.92,523.89l2.93-4.68c3.1-5-3.19-11.59-8.21-8.21l-2.2,1.49,8.21,8.21c1.34-2.22,2.45-4.56,4.48-6.22a15.32,15.32,0,0,1,6.67-3.43c3.17-.65,5-4.41,4.19-7.38a6.12,6.12,0,0,0-7.38-4.19c-4.3.87-7.84,3.23-11.21,5.92-3.16,2.51-5,5.83-7.12,9.24-3,5,3.15,11.63,8.21,8.21l2.21-1.49-8.21-8.2-2.93,4.68c-4.11,6.56,6.27,12.59,10.36,6Z"/><path class="tres12" d="M350.94,512.16c-4.14-2.69-7.36-6.08-11.37-8.89a59.61,59.61,0,0,0-13.9-7c-7.27-2.63-10.4,9-3.19,11.57,8.73,3.16,14.79,9.77,22.4,14.74,6.49,4.23,12.51-6.16,6.06-10.37Z"/><path class="tres12" d="M349.17,508c-2.41-1.79-4-5.29-6.32-7.39-2.73-2.49-5.68-4.77-8.53-7.12a42,42,0,0,0-17.73-8.69c-7.5-1.84-10.7,9.73-3.19,11.57,7,1.72,11.39,4.73,16.88,9.29a50.08,50.08,0,0,1,6.5,5.84c2.15,2.54,3.61,4.84,6.33,6.86,6.21,4.61,12.2-5.8,6.06-10.36Z"/><path class="tres12" d="M327.7,501.38l.84,0c5,.1,8.18-6.77,4.25-10.25-2.57-2.27-5.41-5.65-8.67-6.94s-7.18.22-10.51.51c-6.5.57-13.37-1-19.22,2.63l7.27,9.42a8.88,8.88,0,0,0,2.86-4.25,12.28,12.28,0,0,0,.49-2.68c-1,.64-1.05.81-.16.51,2.6-.89,9.67-1,11.58,1.09,5.3,5.64,13.77-2.86,8.48-8.49-4.77-5.09-12.68-5.38-19.29-4.77-2.84.27-5.79.75-8.17,2.44a10.27,10.27,0,0,0-2.91,3.07c-.46.8-.88,4.21-1.36,4.6-5.31,4.33,1.55,13,7.27,9.42,3.15-1.95,8.72-.67,12.29-.93,2.14-.15,4.68-1,6.8-.8,1.18.1,3,2.11,4.76,3.66l4.24-10.24-.84,0c-7.72-.16-7.72,11.84,0,12Z"/><path class="cls-4" d="M282.92,507.44c16.2,2.73,32.6,2.21,49,2.1a31.08,31.08,0,0,0,6.47-.25,10.8,10.8,0,0,0,4.66-2.53c.25-.22,0-2.14,0-2.5s-.28-2.27,0-2.5a11,11,0,0,1-4,2.34,18,18,0,0,1-5.23.43c-4.16,0-8.31.08-12.47.12-8.07.07-16.15.06-24.2-.52-4.76-.34-9.51-.9-14.22-1.69.24,0-.31,4.95,0,5Z"/><path class="cls-4" d="M345.44,502.32c-15.83,4.47-32.33,2.69-48.44,1.05-4.6-.47-9.2-.92-13.81-1.21.07,0-.14,5,0,5,16.17,1,32.35,4.09,48.59,2.64a75.3,75.3,0,0,0,13.66-2.48,15.77,15.77,0,0,0,0-2.5,23.69,23.69,0,0,1,0-2.5Z"/><path class="cls-4" d="M286,502.14c9-.67,17.9,2.27,26.91,1.18,9.31-1.12,18.59-2.54,28-1.23-.19,0,.27-5,0-5-9.37-1.31-18.65.11-28,1.23-9,1.09-17.89-1.85-26.91-1.18-.15,0,.09,5,0,5Z"/><path class="cls-4" d="M337.1,494.37a320.08,320.08,0,0,1-48.86-.55c.11,0-.18,5,0,5a320.08,320.08,0,0,0,48.86.55c.15,0-.07-5,0-5Z"/><path class="cls-4" d="M296.58,504.63c15.37.84,31.06,5.08,46.22.46a15.83,15.83,0,0,0,0-2.5,19.16,19.16,0,0,1,0-2.5c-15.16,4.62-30.85.38-46.22-.46.06,0-.12,5,0,5Z"/><path class="cls-5" d="M280.42,506.86a227,227,0,0,0,24.76,2.68,189.09,189.09,0,0,0,24.08,0,170.21,170.21,0,0,0,18.73-2.3"/><path class="cls-5" d="M288,493.86a126.29,126.29,0,0,0,18.32,2.68,103.64,103.64,0,0,0,17.82,0,95,95,0,0,0,13.86-2.3"/><path class="cls-4" d="M296.7,501l-12.89-.59c.07,0-.16,5,0,5a127.71,127.71,0,0,0,13.27.26l13.11-.11,13.12-.1a73.06,73.06,0,0,0,12.89-.77c.34-.06-.26-4.95,0-5a73.06,73.06,0,0,1-12.89.77l-13.12.1-13.11.11a127.71,127.71,0,0,1-13.27-.26v5l12.89.59s.11-5,0-5Z"/><path class="cls-4" d="M336.17,560c7.72,0,7.74-12,0-12s-7.73,12,0,12Z"/><path class="cls-4" d="M324,536.32c7.73,0,7.74-12,0-12s-7.73,12,0,12Z"/><path class="cls-4" d="M333.23,548.1c-13.71,2.29-28.25.4-42.06-.13l5.79,4.4-.32-2L290.85,558c12.93,1.55,25.78,6,38.75,2.27a6.16,6.16,0,0,0,4.19-7.38c-1.42-7.27-10.59-4.27-15.39-4.54v12c3.73-.41,7.36.37,11.08.21a22,22,0,0,0,4.64-.64,27.39,27.39,0,0,0,2.89-1.12c1.64-.62,1.38-.78-.8-.48L332,554.09a15.68,15.68,0,0,1,.42,1.8c1.51,7.57,13.07,4.37,11.57-3.19a13.83,13.83,0,0,0-.42-1.8,6,6,0,0,0-4.19-4.19c-3.67-.84-5.81,1.13-9.2,1.71-3.85.65-7.89-.54-11.8-.11-7.57.83-7.86,11.56,0,12,.9.05,6.36-1.06,6.52-1l-2.76-3.58.06.28,4.19-7.38C315,552,302.34,547.33,290.85,546c-4.27-.51-6.32,4.22-5.79,7.6l.32,2c.42,2.64,3.36,4.31,5.79,4.41,15.05.58,30.31,2.2,45.25-.3,7.6-1.27,4.38-12.84-3.19-11.57Z"/><path class="cls-4" d="M342.08,545.92a28.76,28.76,0,0,1-3.44.84,4.16,4.16,0,0,0-2.62.94,3.07,3.07,0,0,0,0,.73c0,.59,0,1.18,0,1.77s0,1.18,0,1.77v.39a1.93,1.93,0,0,0,0,.34,4.16,4.16,0,0,1,2.62-.94,28.76,28.76,0,0,0,3.44-.84,6.56,6.56,0,0,0,0-.73c0-.59,0-1.18,0-1.77s0-1.18,0-1.77c0-.08,0-.73,0-.73Z"/><path class="cls-4" d="M291.52,546a22.51,22.51,0,0,0-4.41-.44s0,5,0,5a22.51,22.51,0,0,1,4.41.44s0-.85,0-.73c0-.59,0-1.18,0-1.77s0-1.18,0-1.77a4.23,4.23,0,0,0,0-.73Z"/><path class="cls-4" d="M303.62,531.22a217.12,217.12,0,0,0,25.25.86c2,0,4.09-.12,6.13-.23l3.18-.19c.67,0,1.91.15,2.34-.47a5.34,5.34,0,0,0,.43-2.13c.11-1.16.05-2.36.05-3.52,0-.76,0-1.53,0-2.28-.08-1-.57-1.82-.7-2.78v4.91l.14-.62c.18-.49-.15-5,0-5-11.35,1.35-22.58,2.78-34,1.63-2.83-.28-5.63-.73-8.43-1.19a32,32,0,0,0-4-.47c-1.13,0-2.64-.17-3.63.48s-.78,1.5-.79,2.42a16.22,16.22,0,0,0,.05,4.12c.25.91,1.3,1.15,2.11,1.29,1.41.26,2.85.42,4.27.58,5.56.64,11.16,1,16.75,1.37a142.62,142.62,0,0,0,16.54.26,80,80,0,0,0,8.32-.84c.63-.1,1.26-.21,1.88-.33.4-.07,1.21-.39,1.55-.08s.22.93.24,1.25c.17,2.16-.6-1.48.05-2.42-.16.23-.19.51-.4.73-.68.76-1.92.76-2.86.84-1.44.12-2.9.12-4.34.11a69.21,69.21,0,0,0-8.15.19,65.78,65.78,0,0,1-9.3.66,74.06,74.06,0,0,1-9-.94c-3-.45-6-1-9-1.37-1.55-.2-3.09-.35-4.65-.44-.52,0-4.64.1-4.67-.32v4.92c0-.57.27-2,1-1.88.4.06,1,.72,1.29,1l1.53,1.21v-5c-.95.17-1,.62-1,1.48a32.2,32.2,0,0,0,0,3.93c.1.89.74.81,1.54.94,1.27.21,2.56.42,3.84.61a131.8,131.8,0,0,0,14,1.41c4.61.19,9.21-.26,13.81-.1,4.39.15,9.12.55,12.8-2.31.25-.19,0-2.16,0-2.5s-.27-2.31,0-2.5c-3,2.3-6.72,2.52-10.33,2.4-4.07-.13-8.09.07-12.15.09a106.66,106.66,0,0,1-12.12-.7c-2-.22-4-.49-6-.79l-2.89-.45c-.64-.11-2.21-.07-2.48-.76v5c.11-.55.49-.66,1-.75,0,0,.25-4.8,0-5l-1.53-1.21c-.3-.24-.79-.83-1.15-.91s-.21-.16-.55.06-.48.86-.55,1.19a12.06,12.06,0,0,0-.1,2.4c0,1.15,0,2.31,0,3.45v.09c7.76-.35,15.31,1.64,23,2.46a48.75,48.75,0,0,0,11.39-.06,105.39,105.39,0,0,1,11.92-.47,16.15,16.15,0,0,0,4.81-.39c1.72-.56,1.43-2.37,1.44-3.83,0-1.76,0-3.51-.16-5.27-.07-.7,0-1.16-.84-1.12-1.08.05-2.22.42-3.3.58a111.81,111.81,0,0,1-23.42.57c-4.32-.26-8.63-.59-12.93-1-2.23-.19-4.46-.41-6.68-.7-1.26-.17-4.37-.1-4.5-1.91v4.92c.46-2,3.28-1.75,4.87-1.65,2.06.14,4.09.55,6.13.88A99,99,0,0,0,314,526.87c8.87.2,17.66-1.06,26.44-2.1v-5c-.5,1.39-.18,3.28-.17,4.73s.58,2.44.72,3.76v-.74q.18-4.47-.12-2.7a3.58,3.58,0,0,1-.09.45,2.65,2.65,0,0,1-.23.92c-.34.49-1.06.38-1.6.42-1.72.12-3.43.22-5.15.3q-5,.24-10,.24-10.07,0-20.1-.93c.12,0-.19,5,0,5Z"/><path class="cls-6" d="M343,523a15.62,15.62,0,0,0,4.8-1.71,11.32,11.32,0,0,0,3.62-3,12.61,12.61,0,0,0,1.9-3.43"/><path class="cls-6" d="M272.62,518.76a23.89,23.89,0,0,0,4.39,3.63,18.35,18.35,0,0,0,4.84,2.32,17.93,17.93,0,0,0,4.28.75"/><path class="cls-4" d="M270.58,529.62c2.14.06,4.28.07,6.42,0,1.06,0,2.13-.08,3.2-.15.5,0,1.84-.32,1.93.46v-5a8.17,8.17,0,0,1-.8,1.79l-.43.89a3.24,3.24,0,0,1-.43.85c-.34.36-1.13.2-1.57.15a8.1,8.1,0,0,1-1.75-.41,14.19,14.19,0,0,1-3.19-1.65c-.52-.34-1-.71-1.53-1.08s-1-.61-1.05-1.21v5a4.53,4.53,0,0,1,1.62-2.45,6.53,6.53,0,0,1,1.19-1c.52-.31.94.2,1.35.49l6,4.34s0-.83,0-.73c0-.59,0-1.18,0-1.77s0-1.18,0-1.77c0-.11.05-.68,0-.73l-4.08-2.93-1.86-1.34a5.6,5.6,0,0,0-.86-.61c-.36-.17-.6.06-.89.27a9.27,9.27,0,0,0-1.54,1.46,3.42,3.42,0,0,0-1,1.75,40.24,40.24,0,0,0,0,4.66c0,.75.32,1,.9,1.44,2.18,1.61,4.66,3.34,7.49,3.3a.83.83,0,0,0,.75-.26,4.81,4.81,0,0,0,.49-1c.34-.72.74-1.43,1-2.17a2.78,2.78,0,0,0,.11-1c0-1,0-2,0-3,0-.68.24-1.59-.63-1.74a12.13,12.13,0,0,0-2.48.11c-.91,0-1.83.08-2.74.1-1.91.05-3.82,0-5.73,0,0,0-.08,5,0,5Z"/><path class="cls-4" d="M346,527.28l7.41.19a32,32,0,0,0,3.53,0c.78-.08,2.08-.31,2.23-1.23a11.7,11.7,0,0,0,0-1.45c0-.74,0-1.48,0-2.22,0-.52.16-1.32-.22-1.75a4.1,4.1,0,0,0-1.14-.68,11.53,11.53,0,0,1-1.33-.85,11.24,11.24,0,0,1-2.11-2.08c-.25-.31-.55-.8-1-.86s-.88.63-1.16,1a32.18,32.18,0,0,1-5.6,5.09,3.83,3.83,0,0,0,0,.74c0,.59,0,1.17,0,1.76s0,1.18,0,1.77c0,.16-.07.61,0,.73.74,1,1.47,2.07,2.24,3.08.51.68,1.19,1.48,2.12,1.46a4.69,4.69,0,0,0,2.59-1.43,13,13,0,0,0,2.06-2.19,10.55,10.55,0,0,0,1.52-2.59,6.77,6.77,0,0,0,.12-2.2v-1.93a6.43,6.43,0,0,0,0-1.24c-.21-.88-2.06-.32-2.66-.18l-3.74.86a18.66,18.66,0,0,0,0,2.5c0,.2.09,2.48,0,2.5l3.62-.84c.57-.13,2.58-.72,2.78.16v-5a5.18,5.18,0,0,1-.75,1.66,13,13,0,0,1-1.11,1.63,13.39,13.39,0,0,1-2.8,2.62,2.81,2.81,0,0,1-1.79.67,2.44,2.44,0,0,1-1.43-.85,35.24,35.24,0,0,1-2.74-3.69v5a32.15,32.15,0,0,0,3.5-2.89q.81-.76,1.56-1.59l.77-.88c.2-.24.43-.64.77-.69.59-.1,1,.74,1.35,1.11a10.59,10.59,0,0,0,1.41,1.43,10.35,10.35,0,0,0,1.74,1.2c.45.25,1.39.52,1.43,1.15v-4.91c-.23.92-1.65,1.1-2.44,1.15-1.14.08-2.3,0-3.44,0l-7.28-.18s-.08,5,0,5Z"/><path class="cls-4" d="M283.52,525.35h-2.11s0,5,0,5h2.11s0-5,0-5Z"/><path class="cls-5" d="M287,559a158.66,158.66,0,0,0,20.52,2.67,130,130,0,0,0,20,0A116.68,116.68,0,0,0,343,559.41"/><path class="cls-5" d="M287,545a158.66,158.66,0,0,0,20.52,2.67,130,130,0,0,0,20,0A116.68,116.68,0,0,0,343,545.41"/><path class="cls-5" d="M289,533a142.74,142.74,0,0,0,19.42,2.67,116.45,116.45,0,0,0,18.89,0A104.83,104.83,0,0,0,342,533.41"/><path class="cls-5" d="M289,520a142.74,142.74,0,0,0,19.42,2.67,116.45,116.45,0,0,0,18.89,0A104.83,104.83,0,0,0,342,520.41"/><path class="cls-7" d="M289,578a101.74,101.74,0,0,0,18.5,3.5,81.46,81.46,0,0,0,18,0,77,77,0,0,0,14-3"/><path class="cls-7" d="M348.79,532.85a25.73,25.73,0,0,0,5.32-2.56,19.92,19.92,0,0,0,4.33-3.53,19.55,19.55,0,0,0,2.62-3.65"/><path class="cls-7" d="M268.17,527.67a24.3,24.3,0,0,0,4.38,3.63,18.44,18.44,0,0,0,4.85,2.32,17.77,17.77,0,0,0,4.28.75"/><path class="cls-8" d="M290.27,515.5c-8.34,45.59-3.57,63,3,70a35.89,35.89,0,0,1,6,8c4.86,8.88,4.37,17.34,3.5,29.5-2.52,35.47-3.82,47.33-7,59-1.62,5.94-3.12,10.37-4,13-2,6-5,11-8,17-2,4-3,8-6,12-19-2-38-3-56,5-5,3-7,11-3,16,3,3,7,6,11,6,18.24,0,34.76-2.4,61.58-7.55l2.42-.45c6.55-1.24,11.89-2.5,15.72-3.47a12.37,12.37,0,0,0,1.78-10v-6q0-63.75,1-127"/><path class="cls-8" d="M300.27,478.5a267.75,267.75,0,0,0-58,166c-6.17,8.26-6.58,15.35-6.5,18.5.15,5.14,2,12.31,4.5,12.5,1.36.1,2.63-1.82,3.5-3.5a22,22,0,0,0,2.69-8.06c.57-3.63.81-8.44.81-8.44-.27,2-.63,4.74-1,8-.85,7.68-.77,9.75,0,12,.29.84,2,5.83,5,6,2.3.13,4.11-2.64,5-4a15.55,15.55,0,0,0,2.1-10.12,21.45,21.45,0,0,0-1.1-4.88s.61,2.49,1,4c2.13,8.06,3.2,12.11,6,13,2.14.68,4.66-.66,6-2a7.79,7.79,0,0,0,2-4c1.46-5.8-1.17-11.22-2.31-13.55a28.25,28.25,0,0,0-2.69-4.45h0c1.34,2.33,2.67,4.67,4,7,.4.18,3.39,1.51,6,0,2.76-1.59,3-5.08,3-6,.25-4.54-3.37-9.14-9-12a223.72,223.72,0,0,1-3-28,199.3,199.3,0,0,1,3-48,185,185,0,0,1,19-53"/><path class="cls-8" d="M365.49,642.53a194.46,194.46,0,0,0,0-64A156,156,0,0,0,355,542.42a141.13,141.13,0,0,0-12.76-22.92"/><path class="cls-8" d="M321.27,479.5c19.75,16.37,35.27,37.13,48.57,58.93a168.9,168.9,0,0,1,23.23,62,181.72,181.72,0,0,1,1.51,42.06c0,.44-.07.8-.09,1"/><path class="cls-8" d="M322.49,729.53a19.68,19.68,0,0,0,1,4c.82,2.21,2.79,7.57,7,9,1.69.57,1.81-.14,10.78,0,.29,0,.67,0,1.1,0,1.56.05,3.56.24,11.9,1,11.52,1,18.67,1.64,27,2,10.13.44,14.93.2,19-3,1.06-.83,3.53-2.83,4-6,.67-4.46-3.06-8.09-4-9-4-3.93-9.3-4.62-14-5a133.88,133.88,0,0,0-29.26.89l-.74.11-11.3,2"/><path class="cls-8" d="M344.77,725c-1.89-5.28-4.43-12.82-7-22a365.43,365.43,0,0,1-9-43c-1.4-8.78-3-18.64-4-32-.76-9.92-1-18.44-1-25a23.13,23.13,0,0,1,2-5,41.2,41.2,0,0,1,6-8,117.75,117.75,0,0,0,7-10c7-10.6,3.36-55.82,3-60"/><path class="cls-8" d="M322.27,728.5c-1.11-2.06-2.5-4.77-4-8-.8-1.75-1.84-4-3-7-.89-2.33-2-5.36-3-9"/><path class="cls-8" d="M365.49,642.53a12.26,12.26,0,0,1-.22,1.32c-.67,3.18-2,4.71-3,6.65-.64,1.31-2.51,5.1-1,8,1.3,2.49,4.89,4,7,3,3-1.48,2.51-8,3-8,.88,0-1.25,20.55,5,23a5.42,5.42,0,0,0,5-1c1.87-1.53,2-4.17,2-8a35.73,35.73,0,0,0-1-9c.13,1,2.38,17.46,8,18a4.74,4.74,0,0,0,4-2c1-1.47.69-3.14-1-10-1.31-5.34-2-8-2-8s.49,2.13,1,4c1.19,4.33,1.81,6.5,3,7,1.63.68,3.86-.64,5-2,2.23-2.65,1.16-6.49,1-7-.36-1.22-.74-1.41-2.2-5-.63-1.56-.51-1.37-.8-2-1.21-2.7-2.28-3.14-3-5-.19-.5-.4-1.4-.42-1.44-.16-.62-.28-1.15-.36-1.53"/><path class="cls-9" d="M320.07,481.36a13.44,13.44,0,0,1-4.38,1.82c-1.12.25-1.77.23-6.2,0-4.87-.25-5.79-.32-6.93-1.09-.31-.21-2.37-1.61-2.19-3.28s2.17-2.43,3.29-2.92c2.43-1.07,4.56-.95,7.66-.73,2.84.2,5,.38,7.29,1.82a11.53,11.53,0,0,1,2.19,1.83c-.25,1.46-.49,2.92-.73,4.37a10.52,10.52,0,0,0,2.55,1.83c1.06.54,3.21,1.64,5.47,1.09,1.33-.32,1.32-.88,3.28-1.46a5.23,5.23,0,0,1,2.92-.36c1.4.37,1.75,1.58,3.28,3.28a14.8,14.8,0,0,0,3.65,2.92c3.66,2,7.87.81,9.48.36a16.66,16.66,0,0,0,6.2-3.28,24.28,24.28,0,0,1-6.56-2.92c-3-1.92-3.51-3.22-6.57-4.74a20.39,20.39,0,0,0-5.83-1.82,24.13,24.13,0,0,0-8.76,0,22.94,22.94,0,0,0-6.92,2.55l-1.1-.36a2.27,2.27,0,0,0,.37-2.92,23.86,23.86,0,0,1,2.91-2.19,26.32,26.32,0,0,1,9.85-3.65c3.12-.5,4.86-.78,6.93,0,1.88.71,1.78,1.45,4.74,3.29a24.91,24.91,0,0,0,6.56,2.91,21.89,21.89,0,0,0,5.47.73,10,10,0,0,1-3.28,1.46,10.18,10.18,0,0,0-2.91.73c-1.18.63-1.12,1.2-1.83,1.46-1.53.57-3-1.68-5.83-3.28-2.13-1.19-4-1.42-7.3-1.83a23.53,23.53,0,0,0-7.66,0A20.2,20.2,0,0,0,320.07,481.36Z"/></g></g></svg>