<svg xmlns="http://www.w3.org/2000/svg" viewBox="0 0 585 750.6"><defs><style>.uno12,.cls-6,.cls-7{fill:#fff;}.uno12{fill-opacity:0;}.dos12{fill:#3051a0;}.tres12{fill:#fa6d1e;}.cls-4,.cls-5,.cls-8{fill:none;}.cls-4,.cls-5,.cls-6,.cls-7,.cls-8{stroke:#000;}.cls-4,.cls-5,.cls-7,.cls-8{stroke-linecap:round;stroke-linejoin:round;}.cls-4{stroke-width:2px;}.cls-5{stroke-width:3px;}.cls-6{stroke-miterlimit:10;}</style></defs><g id="Capa_2" data-name="Capa 2"><g id="Capa_1-2" data-name="Capa 1"><g id="Capa_1-2-2" data-name="Capa 1-2"><rect class="uno12" width="585" height="750"/><g id="t-kokun"><g id="a"><path class="dos12" d="M301.29,487.41l.57,1.41c.18.47.4.93.55,1.41l-.05-.4v.06l.2-.75h0l.54-.54h0l.35-.15h0l.4-.05a1.62,1.62,0,0,1-.44,0l.4.05a3.6,3.6,0,0,1-.91-.24l.36.15a3.71,3.71,0,0,1-.82-.47l.3.23a3.13,3.13,0,0,1-.63-.63l.23.3a3.81,3.81,0,0,1-.46-.78l.15.36a4.28,4.28,0,0,1-.26-.93l.06.4a3.75,3.75,0,0,1,0-.67,1.5,1.5,0,0,0-3,0,5.1,5.1,0,0,0,2,4.19,4.73,4.73,0,0,0,2,1,2.93,2.93,0,0,0,1.66,0,1.57,1.57,0,0,0,1-1.49,2.22,2.22,0,0,0-.24-.87l-.94-2.35a1.62,1.62,0,0,0-.69-.89,1.49,1.49,0,0,0-1.15-.15,1.46,1.46,0,0,0-.9.69,1.41,1.41,0,0,0-.15,1.15Z"/><path class="dos12" d="M303.73,487.9a9.23,9.23,0,0,0-1.88-3.14c-.67-.79-2.11-1.85-1.64-3,.19-.45,2.76-2.8,2.48-3.17l-.6.21.7.12,1.11.14c.79.07,1.58.09,2.37.1h9.62a4.22,4.22,0,0,1,1.23,0,1.72,1.72,0,0,1,.44.41A6.59,6.59,0,0,0,319,480.7c.95.58,2.61,1,3,2.17l.38-1.46a78.72,78.72,0,0,0-7.2,6.95l2.12,2.12a66.61,66.61,0,0,1,5.36-5.4l-2.51-.66c.41,1.43-.92,2.51-1.86,3.37l2.56,1.06a37.15,37.15,0,0,1,1.16-6.62l-2.89-.8c-.46,2.1-2.6,2.95-4.38,3.73l2.25,1.29a5.27,5.27,0,0,1,2-3.72l-2.2-1.7a11,11,0,0,1-.66,2.52,8,8,0,0,0-.57,1.13c-.28.19-.26.31.06.38a.66.66,0,0,1-.12-.27c.05-.6-.68-3.86.49-3.68.72.1.58,1.27.44,1.72a4.64,4.64,0,0,1-1.41,2c-.31.23-.25.33-.4-.24a3,3,0,0,1-.19-1.22,1.43,1.43,0,0,1,.44-.91,5,5,0,0,1,.64-.25c-.1-.59-.18-.72-.26-.38a2.06,2.06,0,0,1-.21.48,6.64,6.64,0,0,1-.56.92,6.79,6.79,0,0,1-1.48,1.5,4.51,4.51,0,0,1-1.88,1c-.56.06-.54-.33-.2-.79.76-1,2.2,0,2,1.1a1.68,1.68,0,0,1-.5.92c-.44.44-.91.22-.1.72s.46,0,.64-.68c.08-.3.17-.77.54-.65l-.9-2.2c-.68,1.29-3.53,1.32-4.8,1.4a12.52,12.52,0,0,1-1.37,0,2.62,2.62,0,0,1-.56,0c-.49-.09-.44.32.16,1.22.18.05.8-.26,1.05-.32a9.42,9.42,0,0,1,1.4-.19,7.38,7.38,0,0,1,2.56.27,10.66,10.66,0,0,0,1.09.49l.31.19c.15-.44.12-.5-.09-.17-.26.09-.56.45-.84.57a4.38,4.38,0,0,1-1,.28,6.35,6.35,0,0,1-1.07.09h-.73c-.35-.13-.36,0,0,.47l-1.1,1.45a13.45,13.45,0,0,1,7.94-.42v-2.9a42.48,42.48,0,0,1-12.52.91l.39,2.95a26.29,26.29,0,0,1,7.45-1.33,1.5,1.5,0,1,0,0-3c-1.78-.22-3.57-.43-5.35-.66a3.68,3.68,0,0,1-1.94-.5c-.49-.45-.56-1.45-.69-2.07a4.65,4.65,0,0,0-.2-1.23c0-.5-.19-.41-.57.28l.42-.07a9.09,9.09,0,0,1,1.27.12,7.57,7.57,0,0,0,1.23.37l.4.14c-.05-.78-.28-1.05-.69-.8a6,6,0,0,0-1,.37c-.55.15-1.4.37-1.77-.21l-.24,1.82a8,8,0,0,1,4.23-1.89,7.75,7.75,0,0,1,1.18,0h.39c.57.2.72-.1.44-.91a5.6,5.6,0,0,0-1,.14,4.19,4.19,0,0,1-1.36-.29l.9,2.21c.61-1.13,2.52-1.11,3.64-1.25a22.41,22.41,0,0,1,5.55-.12l-1-2.56a2,2,0,0,1-1.26.41c-.83.13-1.67.23-2.51.32-1.54.17-3.09.29-4.63.38l1.06,2.56a1.23,1.23,0,0,1,1-.21c1.93.12,1.92-2.88,0-3a4.34,4.34,0,0,0-3.08,1.09,1.53,1.53,0,0,0,.07,2.15,1.55,1.55,0,0,0,1,.41q3-.18,6.09-.55c1.51-.2,3.35-.19,4.43-1.44a1.52,1.52,0,0,0-1.06-2.56,26.89,26.89,0,0,0-7.33.36c-1.77.26-3.54.82-4.45,2.49a1.52,1.52,0,0,0,.58,2.07,1.69,1.69,0,0,0,.31.13c1.61.57,3.91.65,5.29-.52a2.37,2.37,0,0,0,.13-3.34,2.51,2.51,0,0,0-.78-.55c-1.47-.73-3.52-.5-5.06-.15a11.17,11.17,0,0,0-4.8,2.52,1.5,1.5,0,0,0-.24,1.81,4,4,0,0,0,3.49,1.87,7,7,0,0,0,4.55-1.71,2.34,2.34,0,0,0,0-3.3,3,3,0,0,0-.45-.34,8.54,8.54,0,0,0-4.8-1,2.42,2.42,0,0,0-2.48,2.36,2.88,2.88,0,0,0,.06.59c.19,1.58.39,3.51,1.38,4.81a5.14,5.14,0,0,0,3.76,1.71c2,.26,4,.49,6,.74v-3a29.21,29.21,0,0,0-8.24,1.43,1.51,1.51,0,0,0,.4,3h0a45.86,45.86,0,0,0,13.32-1,1.52,1.52,0,0,0,0-2.9,16.47,16.47,0,0,0-9.53.42,1.54,1.54,0,0,0-1.11,1.45c.4,3.86,6.53,2.77,8.56.95,1.34-1.19,1.75-3,.35-4.31a8.08,8.08,0,0,0-5.07-1.83c-1.65-.09-3.89.08-5.25,1.12a2.23,2.23,0,0,0,.45,3.95c1.69.66,4.07.18,5.79-.12s3.79-.82,4.71-2.57a1.52,1.52,0,0,0-.58-2.07,1.69,1.69,0,0,0-.31-.13,3.29,3.29,0,0,0-4,2c-.56,1.29-1,3.55.34,4.52s3.31-.16,4.21-1.28a4.48,4.48,0,0,0,.83-4.29c-1.14-3.16-5.56-4-7.4-1a3.79,3.79,0,0,0,0,4.16c1.07,1.48,2.88,1.36,4.4.72a9.64,9.64,0,0,0,3.87-2.93c.88-1.12,2-2.85,1.57-4.35-.53-1.71-2.67-2.09-4.14-1.49a4.27,4.27,0,0,0-2.6,3.67,4.93,4.93,0,0,0,2,4.59c1.73,1,3.28-.27,4.36-1.57a6.19,6.19,0,0,0,1.68-4.61,3.86,3.86,0,0,0-2.82-3.4c-4.34-1.08-5.24,5.27-3.81,8.08a2.76,2.76,0,0,0,3.62,1.45,2.66,2.66,0,0,0,.59-.34c1.61-1.19,2.29-3.67,2.59-5.55.18-1.11-1-2.58-2.2-1.69A8.5,8.5,0,0,0,314,486.5c-.1,1.26,1.32,1.71,2.26,1.3,2.54-1.11,5.12-2.6,5.76-5.52a1.5,1.5,0,0,0-2.89-.8,41.42,41.42,0,0,0-1.27,7.42c-.11,1.38,1.67,1.88,2.56,1.07,1.8-1.66,3.38-3.72,2.63-6.3a1.5,1.5,0,0,0-1.87-1,1.42,1.42,0,0,0-.63.36,66.61,66.61,0,0,0-5.36,5.4c-1.27,1.44.81,3.56,2.12,2.12a80.64,80.64,0,0,1,7.2-7,1.47,1.47,0,0,0,.39-1.46,6.13,6.13,0,0,0-3.26-3.34,6.49,6.49,0,0,1-2-1.29,3,3,0,0,0-1.86-1.23,33.25,33.25,0,0,0-6.15,0h-6.12a25.4,25.4,0,0,1-3-.3,2.41,2.41,0,0,0-2,.51c-.55.51-.8,1.3-1.31,1.86a10.91,10.91,0,0,0-1.65,2,4.13,4.13,0,0,0,.42,4.64c.92,1.25,2.3,2.29,2.8,3.81.6,1.83,3.5,1,2.89-.8Z"/><path class="dos12" d="M340.81,570.05l.06-.18a5.35,5.35,0,0,0,.07-.56.61.61,0,0,0,0-.19,3.72,3.72,0,0,0-.08-.57,3.38,3.38,0,0,0-.26-.69.86.86,0,0,0-.1-.16,2.94,2.94,0,0,0-.35-.44,1,1,0,0,0-.48-.31,1.08,1.08,0,0,0-.58-.13,1,1,0,0,0-.57.13,1.14,1.14,0,0,0-.49.31l-.23.3a1.45,1.45,0,0,0-.21.76l.06.4a1.57,1.57,0,0,0,.38.66l.08.09-.23-.3a1.2,1.2,0,0,1,.16.27l-.15-.35a1.4,1.4,0,0,1,.1.35l-.06-.4a1.09,1.09,0,0,1,0,.36l.06-.4a2.33,2.33,0,0,1-.07.25,2,2,0,0,0,.17,1.16,1.31,1.31,0,0,0,.39.42,1.1,1.1,0,0,0,.51.27h.4a1.54,1.54,0,0,0,.76-.2l.3-.24a1.34,1.34,0,0,0,.38-.66Z"/><path class="dos12" d="M335.75,492.45a8.31,8.31,0,0,0-3.48,5.69,25.39,25.39,0,0,0-.65,7.91,19.42,19.42,0,0,0,2.08,6.6,26.81,26.81,0,0,0,2,3.17,12.84,12.84,0,0,1,2,3.1,1.5,1.5,0,0,0,2.89-.8,36.69,36.69,0,0,1-1.07-6.51,65,65,0,0,1,.49-6.69c.22-2.18.71-4.39.8-6.57s-1.67-2.83-3.22-3.77a1.52,1.52,0,0,0-2.26,1.29c-.23,2.68.18,5.33-.14,8s.3,5.4.45,8.12l2.94-.4c-.7-2.15-1.82-4.16-2.44-6.35a13.18,13.18,0,0,1,.32-6.91,1.54,1.54,0,0,0-1.11-1.86,1.86,1.86,0,0,0-.33,0c-2.7-.29-3.17,2.2-3.55,4.31a26.77,26.77,0,0,0-.37,7.26,12.41,12.41,0,0,0,2.45,6.37,56.31,56.31,0,0,0,4.64,5.7c1.31,1.42,3.42-.7,2.12-2.12a53.68,53.68,0,0,1-3.62-4.34,11.84,11.84,0,0,1-2.42-4.41,19.43,19.43,0,0,1-.2-5.33,23.66,23.66,0,0,1,.37-2.79c.08-.37.16-.74.25-1.12l.18-.66c-.39.09-.34.14.15.13l-1.45-1.9a17.16,17.16,0,0,0-.53,7.67c.52,2.51,1.86,4.76,2.65,7.19.5,1.53,3.05,1.37,2.95-.4-.15-2.72-.77-5.39-.45-8.12s-.09-5.34.14-8l-2.26,1.3,1.05.63c.49.3.59.28.66.75a12.82,12.82,0,0,1-.37,2.76c-.25,2-.44,4-.63,6a34,34,0,0,0-.2,5.71,53.63,53.63,0,0,0,1.12,5.89l2.89-.8c-.7-2-2.18-3.44-3.28-5.19a18.71,18.71,0,0,1-2.46-5.67,17.35,17.35,0,0,1,0-6.81c.32-1.91.58-4.28,2.38-5.4,1.63-1,.13-3.62-1.52-2.6Z"/><path class="dos12" d="M254.11,739.07a185.3,185.3,0,0,0,19.29-.37c.16,0-.08-5,0-5a185.3,185.3,0,0,1-19.29.37s-.09,5,0,5Z"/><path class="dos12" d="M201.58,743.29a216.32,216.32,0,0,0,32.1-.45,267.61,267.61,0,0,0,31.71-5.07c10.57-2.24,21.12-4.51,31.89-5.57a175.81,175.81,0,0,1,32.2-.2c12,1,24,3.69,36.13,3.17-.1,0,.26-4.9,0-5a138.92,138.92,0,0,0-51.8-8.8s-.08,5,0,5Q338.52,728,363,732q7,1.15,14,2.49v-5q-25.15,2.6-50.41,4c-.1,0,0,5,0,5,9.23-.19,18.46-.39,27.69-.21,4.56.09,9.13.26,13.68.58q3.42.23,6.82.57l3.41.37,1.7.21c.61.08,1-.06,1.06.62v-5c-.1,1.26-1.57,1.74-2.64,1.9-1.94.3-4.09-.15-6-.3l-13.43-1-27.11-2.07L316.29,733c.26,0-.38,4.73,0,5,3.94,2.78,8.89,2.64,13.46,2,5.56-.76,11.09-1.84,16.62-2.77a46.33,46.33,0,0,0,0-5,105.12,105.12,0,0,0-36.43-3.45s-.1,5,0,5l10.93,1.51v-5c-4,2.35-8.53,3.09-13,3.59-5,.56-10.06,1-15.1,1.46-10.37.91-20.75,1.66-31.13,2.41v5a233.53,233.53,0,0,1,55.19-8.12c-.07,0,.21-5,0-5-9.65-2.27-19.52-3.15-29.37-4v5q12.24-3,24.68-5c.19,0-.06-5,0-5l-14.07-.1v5A94.21,94.21,0,0,1,314,725v-5a32.36,32.36,0,0,1-13.25-.68v5l23-2.06c-.05,0,.22-4.92,0-5a124.32,124.32,0,0,0-18.19-4.72v5a15,15,0,0,1,11.14-3v-5a31.81,31.81,0,0,1-14.57-2.62v5a28.94,28.94,0,0,1,13.57-2.19c-.24,0,.36-4.85,0-5l-7.37-3v5a7.3,7.3,0,0,1,4.95-2.94s.13-5,0-5l-5.52-1.34v5a27.81,27.81,0,0,1,6.6-1s.07-4.58,0-5a4.28,4.28,0,0,1-.11-.8V696l.05,3.45a3.87,3.87,0,0,1,.13-.59,6.93,6.93,0,0,1,.34-1c.23-.52-.25-5,0-5a63.55,63.55,0,0,1-24.81-.13v5a29.52,29.52,0,0,1,8.45,1.32v-5a15.46,15.46,0,0,0-12.14,2c-.22.14,0,2.2,0,2.5v1.76a2.3,2.3,0,0,0,0,.74c1.13,2.2,3.75,2.63,6,2.86,3.49.36,7,.62,10.51.85q10.41.69,20.84.74v-5a187.38,187.38,0,0,1-28.4-1.83v5l16.71-1.11v-5c-4.08,2-8.59,1.28-12.94.94-4.07-.32-8.61-.28-11.76,2.71a7.41,7.41,0,0,0-2.41,4.65,30.08,30.08,0,0,0,0,6c.08.73.41.5,1.05.43l1.7-.2,3.65-.43c2.43-.3,4.85-.63,7.28-1q8.24-1.15,16.43-2.64c.15,0,0-5,0-5a103.67,103.67,0,0,0-28.66,2v5c4.9-2.76,10.47-3.65,16-3.9,2.68-.12,5.41-.2,8.1-.08a8,8,0,0,1,3.37.75c2.3,1.24,1.79,5,1.88-1.28v-.34c-.34,3.61-3.75,5-6.84,5.82-.43.11.37,4.91,0,5a11,11,0,0,0,5.4-2.6c1.32-1.38,1.46-3,1.47-4.81s.44-4.17-.66-5.71-3-1.75-4.63-1.83a76.92,76.92,0,0,0-12.14.39,31.27,31.27,0,0,0-12,3.59,10.45,10.45,0,0,0,0,2.5,23.1,23.1,0,0,1,0,2.5,103.67,103.67,0,0,1,28.66-2v-5q-7.71,1.38-15.46,2.5c-2.59.38-5.18.72-7.77,1l-3.88.47-1.95.22-1,.1c-.25-1.53-.29-.45-.1,3.25v.34c.42-5.39,6.08-7.6,10.76-7.67,5.47-.08,11.18,1.7,16.36-.8.39-.19-.26-5,0-5l-16.71,1.11s-.11,5,0,5a187.38,187.38,0,0,0,28.4,1.83v-5q-10.42-.06-20.84-.74c-3.43-.22-6.85-.49-10.27-.83-2.3-.23-5.06-.6-6.23-2.88v5a15.46,15.46,0,0,1,12.14-2c-.06,0,0-2.31,0-2.5a13.05,13.05,0,0,0,0-2.5,29.52,29.52,0,0,0-8.45-1.32c.09,0-.22,5,0,5a63.55,63.55,0,0,0,24.81.13v-5a9.32,9.32,0,0,0-.56,3.88,26,26,0,0,0,.14,4.67v-5a27.81,27.81,0,0,0-6.6,1,41.7,41.7,0,0,0,0,5l5.52,1.34v-5a7.3,7.3,0,0,0-4.95,2.94,22,22,0,0,0,0,5l7.37,3v-5A28.94,28.94,0,0,0,302,706.75a27.83,27.83,0,0,0,0,5,31.81,31.81,0,0,0,14.57,2.62s.11-5,0-5a15,15,0,0,0-11.14,3c-.28.22,0,5,0,5a124.32,124.32,0,0,1,18.19,4.72v-5l-23,2.06a46.33,46.33,0,0,0,0,5A32.3,32.3,0,0,0,314,725c.15,0,0-5,0-5a94.32,94.32,0,0,0-15.94.51c-.14,0,0,5,0,5l14.07.1v-5q-12.44,2-24.68,5a41.7,41.7,0,0,0,0,5c9.85.86,19.72,1.74,29.37,4v-5a233.53,233.53,0,0,0-55.19,8.12c-.32.09.21,5,0,5,10.38-.75,20.76-1.5,31.13-2.41,5-.44,10.07-.9,15.1-1.46,4.51-.5,9.07-1.24,13-3.59.29-.17-.07-5,0-5l-10.93-1.51v5a105.12,105.12,0,0,1,36.43,3.45v-5c-5.53.93-11.06,2-16.62,2.77-4.57.63-9.52.77-13.46-2v5l51.5,4,6.22.47c1.64.13,3.41.49,5,0,1.12-.32,1.88-.89,1.92-2.08s0-2.45,0-3.67v-.94c-.06-.53-.08-.48-.59-.6a44.79,44.79,0,0,0-6.32-.72c-2.1-.21-4.22-.38-6.33-.52-4.15-.28-8.31-.45-12.47-.54-9.55-.21-19.1,0-28.66.19v5q25.24-1.44,50.41-4c25.17-2.56.12-5,0-5q-24.31-4.67-49-7c-4.71-.45-9.44-.82-14.17-1.14v5a138.92,138.92,0,0,1,51.8,8.8v-5c-10.75.46-21.35-1.6-32-2.77a175.73,175.73,0,0,0-32.19-.56c-21.52,1.61-42.2,8.28-63.62,10.6a218,218,0,0,1-36.22.85c.06,0-.14,5,0,5Z"/><path class="dos12" d="M393.21,724.51c-25.34-1.85-50.67-3.86-76-5.53-12.37-.82-24.84-1.27-37.17.33-12.15,1.57-24,5.19-35.9,7.89q-20.61,4.66-41.53,7.85c-.28,0,.22,5,0,5q18.6-2.84,37-6.84c12-2.62,24-6.19,36.13-8.26s24.72-2,37.08-1.25c12.55.72,25.09,1.76,37.62,2.68l42.81,3.13c-.08,0,.16-5,0-5Z"/><path class="dos12" d="M207.88,742.26c14.1-.66,28.13-2.2,42.12-4,7-.87,14-1.73,21-2.76s13.64-2.47,20.43-3.92a178.75,178.75,0,0,1,23.23-3.78c.17,0-.09-5,0-5-13.79,1.08-27.12,5-40.74,7.25-7,1.13-14,2-21,2.84s-14,1.75-21,2.47c-8,.83-16,1.48-24,1.86-.11,0,0,5,0,5Z"/><path class="dos12" d="M304.59,721.31c-5.28-.5-10.59.32-15.83,1s-10.61,1.33-15.9,2.06q-15.87,2.22-31.67,5-9,1.61-17.93,3.39c-.36.07.28,5,0,5q31.44-6.28,63.3-10.2c5.94-.73,12-1.79,18-1.22-.12,0,.2-5,0-5Z"/><path class="dos12" d="M222.86,739.16c5.46.48,10.93-.42,16.34-1.06s11-.91,16.24-2.15c2.65-.62,5.19-1.64,7.78-2.46s5-1.47,7.48-2.08a138,138,0,0,1,15.5-2.84,174.94,174.94,0,0,1,17.86-1.28c.07,0,0-5,0-5a156.89,156.89,0,0,0-31.3,3.63c-5.19,1.18-10.15,2.89-15.22,4.45s-10.79,1.84-16.14,2.47c-6.12.73-12.37,1.86-18.54,1.32.11,0-.18,5,0,5Z"/><path class="dos12" d="M399.4,736.51a148.26,148.26,0,0,1-17.74,1.14c-6,0-11.89-.43-17.8-1C351.91,735.46,340,733.58,328,733c-23.46-1.24-46.54,3.51-69.65,6.76-13,1.84-26.11,3.17-39.26,2.66v5A164.08,164.08,0,0,0,260.81,740a14.91,14.91,0,0,0,0-2.5,20.85,20.85,0,0,1,0-2.5,164.11,164.11,0,0,1-41.69,7.33c-.06,0,0,5,0,5,23.49.9,46.59-4.05,69.74-7.2a218.25,218.25,0,0,1,34.83-2.39c11.93.3,23.75,2.06,35.6,3.38,6.63.74,13.29,1.35,20,1.49a149.13,149.13,0,0,0,20.15-1.12c.22,0-.16-5,0-5Z"/><path class="dos12" d="M208.29,738.24c2.63-1.67,5.62-2.49,8.5-3.62s5.78-2.88,8.88-3.87c6.15-2,12.69-2.06,19.09-2.14.05,0,0-5,0-5-6.4.08-12.94.18-19.09,2.14-3,1-5.74,2.61-8.68,3.79s-6,2-8.7,3.7c-.22.13,0,2.2,0,2.5A10.45,10.45,0,0,1,208.29,738.24Z"/><path class="dos12" d="M214.17,734.75c6.78-2.07,13.68-4.13,20.84-3.83v-5a62.89,62.89,0,0,0-18.56,3v5c3.86-1.81,8.23-2,12.39-2.51,4.58-.57,9.14-1.26,13.7-2,9-1.42,18-3,27.11-4.24,5.13-.7,10.27-1.29,15.43-1.69v-5l-28.35,2.29L242.92,722a50.44,50.44,0,0,0-13,2.38,13.05,13.05,0,0,0,0,2.5,17.38,17.38,0,0,1,0,2.5,50.44,50.44,0,0,1,13-2.38l13.81-1.12,28.35-2.29c.17,0-.09-5,0-5-18.25,1.41-36.18,5.26-54.31,7.67-4.76.63-9.91.68-14.32,2.75a11.61,11.61,0,0,0,0,2.5,20.85,20.85,0,0,1,0,2.5A63.22,63.22,0,0,1,235,731s.07-5,0-5c-7.16-.3-14.06,1.76-20.84,3.83a14.91,14.91,0,0,0,0,2.5,20.85,20.85,0,0,1,0,2.5Z"/><path class="dos12" d="M273.8,723.6a7.21,7.21,0,0,1,2.71-1.46c1.2-.4,2.42-.76,3.63-1.14l7.4-2.33a14.91,14.91,0,0,0,0-2.5v-2.5a12.74,12.74,0,0,0-3.79.92,11.61,11.61,0,0,0,0,2.5v1.76c0,.25,0,.49,0,.74a12.74,12.74,0,0,1,3.79-.92v-5l-7.4,2.33c-1.18.37-2.35.72-3.52,1.11a7.51,7.51,0,0,0-2.82,1.49,4.45,4.45,0,0,0,0,.73v3.54a3,3,0,0,1,0,.73Z"/><path class="dos12" d="M279.77,720.19a77.78,77.78,0,0,1,10.36-9.34v-5l-4.36,7.64c-.3.52.32,4.93,0,5,7.93-1.75,15.39-6.57,23.76-5.71v-5l-23.66,6.91v5c3.31-3.84,8.58-4.5,13.34-4,2.76.33,5.49,1,8.2,1.55a41.65,41.65,0,0,1,8.08,2.54v-5a115.84,115.84,0,0,0-21.23.57v5a15.92,15.92,0,0,1,8.48-1.57c-.21,0,.33-4.91,0-5a46.51,46.51,0,0,0-6.18-1.31,27.93,27.93,0,0,0-6.19-.43,3.23,3.23,0,0,0-3,2.64,23.48,23.48,0,0,0-.1,5.62c.3,7.36,12.82,5.85,16,1.52a27.83,27.83,0,0,0,0-5,107,107,0,0,0-11.49-2.26v5l17-.45c.08,0,0-5,0-5l-17,.45s-.14,5,0,5a107,107,0,0,1,11.49,2.26v-5c-1.93,2.65-5.38,3.38-8.49,3.51s-7.15-1-7.48-4.69v4.68a3.61,3.61,0,0,1,1.53-2.82c1.19-.76,2.89-.48,4.22-.39a46.08,46.08,0,0,1,9.67,1.67v-5a15.92,15.92,0,0,0-8.48,1.57c-.43.21.33,5,0,5a115.84,115.84,0,0,1,21.23-.57c-.24,0,.36-4.83,0-5a40.94,40.94,0,0,0-7.85-2.49c-2.78-.67-5.6-1.21-8.43-1.6-4.76-.55-10,.11-13.34,4-.28.33,0,2.06,0,2.5a20.85,20.85,0,0,1,0,2.5l23.66-6.91c.21-.06,0-5,0-5-8.37-.86-15.83,4-23.76,5.71v5l4.36-7.64a7.49,7.49,0,0,0,0-2.5c0-.32-.27-2.32,0-2.5a77.78,77.78,0,0,0-10.36,9.34c-.27.31,0,2.08,0,2.5v1.77c0,.12.08.67,0,.73Z"/><path class="dos12" d="M313.4,697.76q11.69.81,23.41,1.11v-5c-6.49,3.13-14,.9-20.7,3.25-.45.16.36,4.94,0,5a54.77,54.77,0,0,1,21.08.1v-5c-1.52,3-5.05,4-8,4.92a67.14,67.14,0,0,1-11.82,2.48v5A74.62,74.62,0,0,1,337.16,704v-5c-.93,4.6-5.55,6.65-9.75,7.3a83.09,83.09,0,0,1-16,.59v5c.71-2.15,4.24-2.42,6.08-2.91,2.79-.74,5.59-1.44,8.4-2.12.25-.06-.13-5,0-5a123.39,123.39,0,0,1-18.72-1.19v5a76.87,76.87,0,0,1,16.71-1.56c-.06,0,.17-5,0-5l-14.51-1.86v5A22.67,22.67,0,0,1,317.7,701c1.82.07,5.85.07,6.15,2.51V698.6c-.15,2.09-3.29,2.64-4.83,3.12l-7.55,2.37a32.1,32.1,0,0,0,0,5c5.6,2.62,12,.56,17.78,2.08v-5c-6.45,4.17-14.66,3.06-21.43,6.41-.34.17.18,5,0,5l22,.33v-5c-5.46,1.87-11.24,2-16.95,2v5a65.87,65.87,0,0,1,24.41,3.28v-5a36.87,36.87,0,0,1-15.47-.7v5c5.37-.38,10.81.68,16.12,1.37L354.2,726c-.11,0,.1-4.55,0-5-.49-2.14-2.53-3.06-4.45-3.62a12.59,12.59,0,0,1-6-3.18,25.87,25.87,0,0,1-3.66-5.21c-1.39-2.4-2.76-4.81-4.14-7.22v5a67.65,67.65,0,0,1,9,17.73v-5a195.53,195.53,0,0,1-18.8-7.69v5a37,37,0,0,1,14.29,1.67v-5a14,14,0,0,1-1.64,3.16c-.29.41,0,2,0,2.5,0,.31-.23,2.33,0,2.5,2.21,1.4,5.78-.87,6.8-3,.66-1.35.31-3.32.3-4.76a4.53,4.53,0,0,0-1.25-3.65,79.17,79.17,0,0,0-15.47-12.49,13.05,13.05,0,0,1,0,2.5V702a2.55,2.55,0,0,0,0,.73,11.59,11.59,0,0,0,4.58,3.77c1.29.66,4.2,2.38,4.26-.2,0-.42.13-4.64,0-4.66a143.09,143.09,0,0,0-21.19-1.45c.1,0-.23,4.62,0,5,1.67,2.69,7.3,1.15,7.68,5v-5c-.2,2.36-4.21,2.94-6,3v5a59.32,59.32,0,0,1,20.54-.62v-5A20.5,20.5,0,0,1,331.8,709c-.07,0,0,5,0,5a32.73,32.73,0,0,1,9.24,1.12v-5a4.6,4.6,0,0,1-2.2,1.64,27.83,27.83,0,0,0,0,5,13.1,13.1,0,0,1,4.93,4.33v-5a2.36,2.36,0,0,1-1.28-2.07v5a2.32,2.32,0,0,1,2.21-2.08v-5a15.45,15.45,0,0,0-1.67,6.63c0,1.49,0,3,0,4.49a2.48,2.48,0,0,0,1,2.26c2,1.24,4.26-.49,6.15-1.16,2.44-.88,5.1-.68,7.64-.57a254.14,254.14,0,0,1,33.58,3.81c4.94.9,12.2,1.57,13.84,7.34v-5c-12.71,2.69-25.62-1-38.42.13v5A122.79,122.79,0,0,1,402.7,732v-5c-12.54,5.09-25.66-2-38.46-1.49a46.33,46.33,0,0,0,0,5,347.26,347.26,0,0,0,38.51,5.64v-5a29.07,29.07,0,0,1-20.3,3.37v5l10.57-.3c3.33-.1,6.81-.49,10.07.36v-4.71c-.5,2.31-4.36,2.21-6.13,2.36a51.55,51.55,0,0,1-25.5-4.5v5a87.38,87.38,0,0,1,17.11.58c-.19,0,.25-5,0-5a87.38,87.38,0,0,0-17.11-.58c.09,0-.28,4.87,0,5A51.8,51.8,0,0,0,389,742.24a50.42,50.42,0,0,0,8.86-.09c2-.2,5.21-.27,5.26-2.92,0-.45.22-4.59,0-4.65-3.26-.85-6.74-.46-10.07-.36l-10.57.3s-.19,5,0,5a29.07,29.07,0,0,0,20.3-3.37c.31-.18-.12-5,0-5a347.26,347.26,0,0,1-38.51-5.64v5c12.8-.56,25.92,6.58,38.46,1.49.29-.11-.11-5,0-5a122.68,122.68,0,0,0-35.89,2.85c-.31.07.2,5,0,5,12.8-1.14,25.71,2.56,38.42-.13a32.1,32.1,0,0,0,0-5c-1.17-4.11-5.41-5.65-9.19-6.45-4.64-1-9.32-1.74-14-2.41s-9.34-1.2-14-1.61a117,117,0,0,0-14-.76,12.67,12.67,0,0,0-3.62.57c-1.07.36-2,1-3.09,1.34-1.86.65-4.12.25-4.32-2v2.5c0,2.79.1.73.23.07.08-.42.18-.84.3-1.25a16.24,16.24,0,0,1,1.1-2.78c.23-.46-.18-5,0-5-2.26.2-2.23,2.17-2.24,3.91s-.51,4.3,1.31,5.33a13.05,13.05,0,0,1,0-2.5v-1.77a3,3,0,0,0,0-.73,13.28,13.28,0,0,0-4.93-4.33v5a4.6,4.6,0,0,0,2.2-1.64,26.1,26.1,0,0,0,0-5,32.73,32.73,0,0,0-9.24-1.12v5A20.5,20.5,0,0,0,339,712.6c.24-.09,0-5,0-5a59.32,59.32,0,0,0-20.54.62c-.26.06.16,5,0,5,1.7-.08,4.78-.53,5.78-2.16a4.22,4.22,0,0,0,.28-2.11c0-1.22.1-2.5,0-3.71-.4-3.9-6-2.3-7.69-5v5A143.94,143.94,0,0,1,338,706.62v-4.69c-.84,1.82-3.63-.12-4.75-.72a10.84,10.84,0,0,1-4.07-3.5v5a84.52,84.52,0,0,1,9.25,6.72q2.16,1.8,4.18,3.74c1.17,1.13,3.2,2.58,3.26,4.36v-4.91c-.34,2.63-4.66,5.49-7.08,4v5a14,14,0,0,0,1.64-3.16,24.57,24.57,0,0,0,0-5,37,37,0,0,0-14.29-1.67c.09,0-.27,4.87,0,5a196.58,196.58,0,0,0,18.8,7.69c0-.83,0-1.67,0-2.5a8.73,8.73,0,0,0,0-2.5,67.65,67.65,0,0,0-9-17.73,4.45,4.45,0,0,1,0,.73V706a2.55,2.55,0,0,0,0,.73l4,7a26.78,26.78,0,0,0,3.76,5.38,12.11,12.11,0,0,0,5.76,3.12c2,.57,4.16,1.45,4.67,3.68v-5l-16.27-2.1c-5.31-.69-10.74-1.75-16.12-1.37a43.89,43.89,0,0,0,0,5,36.87,36.87,0,0,0,15.47.7,41.7,41.7,0,0,0,0-5,65.87,65.87,0,0,0-24.41-3.28c-.1,0,0,5,0,5,5.71,0,11.49-.11,16.95-2,.3-.1-.14-5,0-5l-22-.33v5c6.77-3.35,15-2.24,21.43-6.41.25-.16,0-5,0-5-5.83-1.52-12.18.54-17.78-2.08v5c3.24-1,6.56-1.9,9.76-3.07a4,4,0,0,0,2.53-1.93,4.14,4.14,0,0,0,.12-1.31v-3.28c0-1.09-.08-2-1.18-2.59a10.54,10.54,0,0,0-4.1-.86,22.56,22.56,0,0,0-9.18,1.24c-.23.08,0,5,0,5l14.51,1.86v-5a76.87,76.87,0,0,0-16.71,1.56c-.08,1.67-.08,3.33,0,5a123.39,123.39,0,0,0,18.72,1.19v-5c-2.81.68-5.61,1.38-8.4,2.12-1.84.49-5.37.76-6.08,2.91-.14.45,0,5,0,5a83.09,83.09,0,0,0,16-.59c4.2-.65,8.82-2.7,9.75-7.3.1-.5-.11-5,0-5a74.57,74.57,0,0,0-19.81,5.58c-.43.18.31,5,0,5a67.14,67.14,0,0,0,11.82-2.48c3-.92,6.5-1.94,8-4.92a32.1,32.1,0,0,0,0-5,54.77,54.77,0,0,0-21.08-.1v5c6.69-2.35,14.21-.12,20.7-3.25.33-.16-.17-5,0-5q-11.72-.32-23.41-1.11c.08,0-.15,5,0,5Z"/><path class="dos12" d="M204.13,745.55a105.78,105.78,0,0,0,35.35,3c5.83-.5,11.7-1.15,17.5-2a138.75,138.75,0,0,0,18-4.23l19.89-5.68a14.91,14.91,0,0,0,0-2.5,20.85,20.85,0,0,1,0-2.5l-17.76,5.07a172.44,172.44,0,0,1-17.78,4.46c-5.82,1-11.75,1.54-17.63,2.15a107.5,107.5,0,0,1-17.94.38,105.8,105.8,0,0,1-19.68-3.16c.36.09-.44,4.89,0,5Z"/><path class="dos12" d="M400.05,741.26a18.24,18.24,0,0,0,7.41-3.09c2.26-1.42,4.54-2.93,7.28-3.09.05,0,.06-5,0-5-4.94-.35-9.29-3-14.1-3.9v4.27a3.55,3.55,0,0,0,0,.73,30.08,30.08,0,0,0,8.57,4.38v-5c-2.18,1.42-4.95,1.67-7.45,2.15-2.83.55-5.65,1.08-8.47,1.61-.19,0,.07,5,0,5l9.15.23a9.43,9.43,0,0,0,3.91-.44,12.89,12.89,0,0,0,3.26-2.15c.25-.2,0-2.15,0-2.5V732.7a4.57,4.57,0,0,1,0-.74,12.89,12.89,0,0,1-3.26,2.15,9.43,9.43,0,0,1-3.91.44l-9.15-.23v5c2.82-.53,5.64-1.06,8.47-1.61,2.5-.48,5.27-.73,7.45-2.15a27.83,27.83,0,0,0,0-5,30.08,30.08,0,0,1-8.57-4.38v5c4.81.92,9.16,3.55,14.1,3.9v-5c-2.74.16-5,1.67-7.28,3.09a18.24,18.24,0,0,1-7.41,3.09C399.81,736.26,400.21,741.26,400.05,741.26Z"/><path class="dos12" d="M210.06,735.8a69.18,69.18,0,0,1,30.12-5.91s.08-5,0-5a69.18,69.18,0,0,0-30.12,5.91,11.61,11.61,0,0,0,0,2.5A14.91,14.91,0,0,1,210.06,735.8Z"/><path class="dos12" d="M292.5,485.9a6.92,6.92,0,0,1-1.78,2.85,3,3,0,0,0-.57,3.1c.63,2.57,2,4.94,2.45,7.55a28.6,28.6,0,0,1-.22,8,20.75,20.75,0,0,1-2.7,7.78l1.69-.69a2.56,2.56,0,0,0-1.4.06l1.9,1.44a2,2,0,0,1,.45-1.68c1.17-1.53-1.44-3-2.59-1.51a4.3,4.3,0,0,0-.86,3.19c.11.89.87,1.81,1.89,1.45l-.19-.06a1.57,1.57,0,0,0,1.7-.69,23,23,0,0,0,2.91-7.72,40.26,40.26,0,0,0,.56-8.35c-.18-2.7-1.25-5-2.1-7.51-.22-.67-.42-1.36-.59-2.05l-.12-.46c0,.2.07.2.19,0a6.92,6.92,0,0,1,.53-.6,9.19,9.19,0,0,0,1.74-3.3c.57-1.85-2.33-2.64-2.89-.8Z"/><path class="dos12" d="M291.85,513a10.67,10.67,0,0,0,1-1.48,3.62,3.62,0,0,0,.22-.32c0,.06-.19.24-.06.09a.76.76,0,0,0,.11-.14c.24-.29.47-.57.68-.88a13.11,13.11,0,0,0,1.33-3.13,1.5,1.5,0,1,0-2.87-.89s0,.06,0,.09c-.15.47-.3.93-.49,1.39,0,0-.1.25,0,0h0l-.15.32a5.38,5.38,0,0,1-.38.66l-.1.14c-.11.17,0,0,.08-.09a2.17,2.17,0,0,0-.24.29c-.21.26-.42.52-.61.8l-.39.62a2.9,2.9,0,0,1-.19.29h0c.15-.21,0,0,0,.05a1.5,1.5,0,1,0,2,2.19.27.27,0,0,0,.08-.07Z"/><path class="dos12" d="M292.11,488.35a80.83,80.83,0,0,0-.67,8.65,1.5,1.5,0,0,0,3,0,80.83,80.83,0,0,1,.67-8.65,1.5,1.5,0,0,0-1.5-1.5A1.54,1.54,0,0,0,292.11,488.35Z"/><path class="dos12" d="M295.41,494.47a14.3,14.3,0,0,0-.1-4.08,1.49,1.49,0,0,0-1.65-1.08,1.53,1.53,0,0,0-1.3,1.47,45.6,45.6,0,0,0,.12,7.39,1.5,1.5,0,1,0,3,0,45.6,45.6,0,0,1-.12-7.39l-2.94.4c.05.36,0-.16,0,.17v1.35a13.14,13.14,0,0,1-.11,1.77,1.49,1.49,0,0,0,1.48,1.5h0a1.54,1.54,0,0,0,1.5-1.5Z"/><path class="dos12" d="M300.2,490.56c2.59,2.33,5.93,2.3,9.23,2.24a27.14,27.14,0,0,0,10.05-2.09l-1.85-1.85c-.14.56-1,1.1-1.38,1.53-.57.63-1.1,1.28-1.61,1.95a25.42,25.42,0,0,0-2.65,4.23c-.37.76-.69,1.56-1.11,2.3a16.44,16.44,0,0,0-1.24,2.25c-.63,1.67-1.09,3.44-1.63,5.15a1.5,1.5,0,0,0,1.09,1.83,1.51,1.51,0,0,0,1.42-.37c1.69-1.73,2.24-4,3.22-6.11,1.05-2.31,2.87-4.12,3.77-6.51a1.51,1.51,0,0,0-1.07-1.85,1.44,1.44,0,0,0-.77,0,6.25,6.25,0,0,0-3.92,2.75c-.86,1.59-1.51,3.34-2.24,5a18.51,18.51,0,0,0-1.7,4.74,5.53,5.53,0,0,0,.18,2.49,9.6,9.6,0,0,0,.56,1.27c.1.2.2.4.31.6.18.45.22.4.11-.17l1.45-1.1h-.14l1.45,1.1a26.76,26.76,0,0,0-1.19-5,30,30,0,0,0-2.28-4.4,32.56,32.56,0,0,1-1.71-4.89A18.31,18.31,0,0,0,304,491l-1.69,2.2a25.09,25.09,0,0,0,11.9.44l-1.69-2.2a12.94,12.94,0,0,1-1.61,2,5.57,5.57,0,0,0-1.1,2.76c-.15,1.06-.2,2.14-.29,3.22,0,.6-.07,1.21-.14,1.81a3.69,3.69,0,0,0-.08.46c0,.56-.65,0,.58,0l1.07.44a6,6,0,0,1-.48-1.28c-.19-.48-.36-1-.53-1.46-.29-.85-.55-1.72-.79-2.59a8.65,8.65,0,0,0-.37-1.5l-.08-.38c-1.22.69-1.43,1-.63,1.06a26.31,26.31,0,0,0,2.91.59l-.66-2.51a9.1,9.1,0,0,0-1.92,3.43c-.55,1.85,2.35,2.64,2.9.79a5.45,5.45,0,0,1,1.14-2.1,1.5,1.5,0,0,0-.66-2.5c-1.88-.47-6.67-1.93-6,1.66a32,32,0,0,0,1.13,4.3,21.44,21.44,0,0,0,1.61,4.16,1.76,1.76,0,0,0,2.42.63,1.87,1.87,0,0,0,.5-.43c1-1,1-2.48,1.06-3.77a17.52,17.52,0,0,1,.46-4.33c.42-1.15,1.64-1.86,2.2-3a1.52,1.52,0,0,0-.62-2.06,1.47,1.47,0,0,0-1.07-.14,21.85,21.85,0,0,1-10.32-.44c-1.17-.34-2.48,1.11-1.69,2.2a15.85,15.85,0,0,1,2.53,4.59,27.56,27.56,0,0,0,1.61,4.6,32,32,0,0,1,2.14,4,26.78,26.78,0,0,1,1.2,5,1.49,1.49,0,0,0,1.44,1.11h.14a1.58,1.58,0,0,0,1.44-1.1c.48-1.33-.8-2.39-1.07-3.61s.56-2.92,1.09-4.11c.64-1.45,1.29-2.9,1.93-4.34a5.09,5.09,0,0,1,.93-1.71,4.8,4.8,0,0,1,1.73-.8l-1.85-1.85c-.8,2.12-2.53,3.75-3.47,5.8-.85,1.84-1.29,4-2.75,5.5L311,507a46.41,46.41,0,0,1,1.62-5.14c.35-.77.9-1.44,1.28-2.2s.7-1.53,1.1-2.28a23.42,23.42,0,0,1,2.76-4.13c.95-1.13,2.49-2.17,2.85-3.66.25-1-.72-2.31-1.84-1.85a25,25,0,0,1-8.42,2q-2.22.11-4.44,0a5.36,5.36,0,0,1-3.5-1.3c-1.43-1.29-3.55.82-2.12,2.12Z"/><path class="tres12" d="M333.61,583.88l.3-.41c1-1.43-1.16-2.94-2.36-1.82a99.71,99.71,0,0,0-9.3,9.76c-2.56,3.16-4.81,6.84-4.59,11.06a1.52,1.52,0,0,0,2.56,1.06,16.83,16.83,0,0,0,5.29-9.27,1.51,1.51,0,0,0-2.9-.8q-2.26,5.43-4.62,10.82c-.76,1.76,1.82,3.29,2.59,1.52q2.52-5.76,4.93-11.54l-2.9-.8a14.14,14.14,0,0,1-4.51,7.95l2.56,1.06c-.2-3.8,2.07-7,4.44-9.8a112.61,112.61,0,0,1,8.58-8.9L331.32,582l-.3.42c-1.14,1.56,1.46,3.06,2.59,1.51Z"/><path class="tres12" d="M344.45,712.86c-4.6,3.09-9.18,6.2-13.81,9.26a82.88,82.88,0,0,1-14.11,7.94c-1.76.72-1,3.63.8,2.89a86.55,86.55,0,0,0,14.44-8c4.76-3.13,9.46-6.33,14.19-9.51,1.6-1.07.1-3.67-1.51-2.59Z"/><path class="tres12" d="M277,718.48c12.08,6.94,25.23,12.42,39.26,13.44,1.92.15,1.91-2.86,0-3-13.49-1-26.14-6.37-37.75-13a1.5,1.5,0,0,0-1.51,2.59Z"/><path class="tres12" d="M312.22,662.93c.37,4.49,1.4,9.94.67,14.4-.6,3.72-3.62,6.16-3.24,10.29.23,2.5,1.69,5.22,4.41,5.78,7,1.44,11.75-6.38,6.68-11.81-.67-.53-1.36-1.05-2.05-1.55,1.37.79,1.74.24,1.13-1.65.48-1.69,0-4.11.06-5.92q.09-7.4.26-14.8.63-28.11,2.26-56.19l-7.6,5.78c-1.13-1.13-1.5-1-1.12.27a35,35,0,0,1-.18,3.54c-.29,2.36-1.08,4.58-1.57,6.9a19.61,19.61,0,0,0-.48,6.52c.25,2.14,1.48,4.1,1.61,6.22.45,7.67,12.45,7.73,12,0-.2-3.3-1.88-6.33-1.56-9.55.37-3.68,1.78-7.22,2.07-11,.48-6.38-1.21-12.09-7.58-14.49-3.87-1.46-7.39,2.23-7.59,5.79q-1.39,24.13-2.06,48.3-.33,11.84-.47,23.68c-.05,3.61-.57,7.75.27,11.3a7.26,7.26,0,0,0,2,3.83,7.44,7.44,0,0,0,1.56,1.29c1.19.74,1.19.69,0-.14l-.6-4.63-.19.64,2.76-3.58-.53.38,4.62-.6-.57-.12,4.4,5.79c-.09-1,1.55-2.72,2-3.69a16.59,16.59,0,0,0,1.25-6.6,125.87,125.87,0,0,0-.67-14.4c-.62-7.64-12.63-7.71-12,0Z"/><path class="tres12" d="M313.26,626v24.67c0,7.74,11.73,7.71,12,0a46,46,0,0,1,.5-5.75l-11,1.44c1,1.57,0,3.49-.32,5.18a17.92,17.92,0,0,0-.26,7.22c.95,4.43,3.61,7,7.67,8.69s7.23-2.42,7.6-5.79a7.54,7.54,0,0,0-1.22-4.95c-3.28-5.69-13.59-1.84-11,4.63,1.93,4.76,1.41,8.37.88,13.31a18.52,18.52,0,0,0,.3,6.21c.38,1.69,1.63,3.65,1.14,5.39l7.38-4.19c-3.74-1.36-6.3-.18-9.82.52l4.62.61c-3.49-1.76-6.48-3.49-10.5-3.71a21.7,21.7,0,0,0-5.39.49c-1,.25-2.08.52-3.11.81-1.78,0-2,.32-.75,1l1.76,4.25.07-.92c.56-7.7-11.44-7.67-12,0-.63,8.56,9.18,8.49,14.89,7.06,4.15-1,5.34-.12,9,1.41a7.3,7.3,0,0,0,4.62.6c1.51-.29,2-1,3.44-.51,3.06,1.11,6.55-1.27,7.38-4.2,1.49-5.27-1.61-9.63-.93-14.75.76-5.84.87-11-1.39-16.54l-11,4.62-.42-1.11,7.59-5.78c1.35.56,1.1-1.49,1.35-2.81a34.23,34.23,0,0,0,.76-4.62,13.73,13.73,0,0,0-2-8.15c-2.44-4-10.12-3.93-11,1.43a74.42,74.42,0,0,0-.93,8.94h12V626c0-7.72-12-7.73-12,0Z"/><path class="tres12" d="M304.15,684.71c8.44-21.14,5.12-44.73,13-66,2.69-7.25-8.9-10.38-11.57-3.19-7.92,21.28-4.6,44.87-13,66C289.72,688.69,301.32,691.81,304.15,684.71Z"/><path class="tres12" d="M317.89,611.42q.23-8.48.09-16.95c-.13-7.71-12.13-7.74-12,0q.13,8.47-.09,16.95C305.68,619.14,317.68,619.14,317.89,611.42Z"/><path class="tres12" d="M301.25,677.46c.75.79,1.45,1.61,2.12,2.47l-.94-1.21c.42.55.83,1.11,1.21,1.68a6.47,6.47,0,0,0,3.59,2.76,6.16,6.16,0,0,0,4.62-.61c2.59-1.66,4-5.43,2.16-8.21a44.13,44.13,0,0,0-4.27-5.37,6,6,0,0,0-8.49,8.49Z"/><path class="tres12" d="M309.34,632.11a32.87,32.87,0,0,0,5.22-19.28c-.06-3.51-.48-7-.6-10.5,0-1.37.61-4.1.12-5.28.35-1.26.06-1.28-.87-.08,2.33-.27,1.63-1.17-2.08-2.71l.6-4.62-.4.88c-3.15,7,7.19,13.09,10.36,6.06,5.54-12.28-13.4-15.84-18.27-6-2.57,5.22-1.44,12.28-1.08,17.85.43,6.45.32,12.06-3.36,17.59-4.29,6.45,6.09,12.47,10.36,6.06Z"/><path class="tres12" d="M324.94,563.19q2.46-23.25,5.7-46.41l-11.78-1.59a57.76,57.76,0,0,0,3.6,23.54c1.69,4.5,8.36,6.36,11,1.44,2.16-4.08,3.94-8.14,3.46-12.84-.66-6.47-9.75-8.46-11.79-1.6a75.56,75.56,0,0,0-1.69,35.67c.95,5.07,8.65,5.81,11,1.43l1.62-3.06L326.57,561l-.11-3.16-1.27.32c-1.12-.3-2.7.17-3.88.22-2.86.09-5.71,0-8.57-.09-6.72-.31-8.21,10.29-1.59,11.78a21.94,21.94,0,0,0,9.44.12c7.25-1.35,4.51-11-1.59-11.78L291.37,555l5.18,9c3.22-5.17,3.57-12,4.87-17.89.67-3.09,1.38-6.17,2.15-9.23.79-3.22,1.19-7.47,2.66-10.41l-3.59,2.75.8-.16-4.63-.6c3.71,2.17,6,3.77,10.62,3.26,5-.54,10-2.37,14.73-4l-4.62-11c-8.06,6-17.88,13.18-22.1,22.57-3.1,6.9,6.76,13,10.36,6.06,1-1.94,2.57-4.72,4.9-5.34l-4.63-.6.7.46L306,536.32c.69,2.16-1.34,6.47-2.09,8.58a37.65,37.65,0,0,1-2.1,4.78l2.27-1.55c-1.87-1.16-2.23-1.13-1.08.11l.61,4.63c-.55,2.84-3.74,2.37.84,3.1l1.54.25q3.83,1,2.5-6.4c-7.21,2.59-4.1,14.19,3.19,11.57,4.57-1.64,7.13-6.07,5.34-10.82-1.95-5.21-7.47-5.9-12.26-6.61-5-.74-11.08-.93-12.62,5.18s4.18,9.07,9.05,10.73c11.65,4,16.12-14,16.76-22.45.39-5-2.79-10-8.45-8.95-5.28,1-9.75,6.36-12.07,10.85l10.36,6.06c3.34-7.45,11.39-13.52,17.8-18.27,5-3.7,2.35-13.38-4.63-11-3,1-6.1,2-9.21,2.88-1.18.31-2.7,1-3.92.84-1-.13-1.18-.76-2.13-1.27-4.56-2.45-9.09-.84-10.86,4.09-2,5.56-3.06,11.7-4.38,17.46q-1.05,4.62-2,9.26c-.57,2.74-.77,6.14-2.27,8.54-2.64,4.26.94,8.51,5.18,9L319,570.4l-1.6-11.79a5.68,5.68,0,0,1-3.06-.12l-1.6,11.79c6.37.29,15.07,1.22,20.6-2.68,5.25-3.71,5.68-10.36,1.72-15.1-2.44-2.92-7.73-2-9.43,1.21L324,556.77l11,1.44a62.08,62.08,0,0,1,1.69-29.29l-11.78-1.59c.27,2.67-.59,4.45-1.82,6.78l11,1.43a49.05,49.05,0,0,1-3.17-20.35c.36-6.63-10.83-8.35-11.79-1.6q-3.48,24.75-6.13,49.6c-.82,7.67,11.19,7.61,12,0Z"/><path class="tres12" d="M321,587.81a16.16,16.16,0,0,0-.54,3.08,1.52,1.52,0,0,0,1.53,1.49,1.43,1.43,0,0,0,.73-.2c1.92-1.12,2.31-3.11,3.55-4.79s4-1.69,5.73-3a1.51,1.51,0,0,0-1.15-2.74,41.68,41.68,0,0,1-9.25.94c-3.15.09-6.31.19-9.46.25a50.17,50.17,0,0,1-9-.49c-1.48-.24-3-.52-4.46-.62a18.17,18.17,0,0,1-4.29-.37c-1.73-.53-2.45,1.79-1.15,2.74a17.23,17.23,0,0,1,5.17,6.77c1.26,2.69,1.72,5.76,3.32,8.28.75,1.2,2.87.8,2.79-.75a26.13,26.13,0,0,0-5.94-15.31l-1.81,2.36a19.45,19.45,0,0,0,10.48,3.2l-.4-2.94c-1.27.28-2.61.47-3.86.85a1.93,1.93,0,0,0-1.51,2.11c.27,2,3.47,2.91,5.07,3.27l-.36-2.74a3.5,3.5,0,0,1-1.94.27v3a3.72,3.72,0,0,1,.94.06l-.9-.69c.45-.79.39-1.06-.17-.81l1.84,1.84c-.37.35-.34.37.1.08l.37-.19c.38-.18.77-.33,1.16-.47.86-.29,1.73-.51,2.6-.74a21.2,21.2,0,0,0,4.82-1.74,1.51,1.51,0,0,0,.51-2.07,1.53,1.53,0,0,0-.87-.67q-3.93-1-7.78-2.19l1,1.85c-.4.39-.4.5,0,.34l.69-.13a8.15,8.15,0,0,0,1.18-.39,9.57,9.57,0,0,0,2.42-1.49,1.51,1.51,0,0,0,0-2.14,1.58,1.58,0,0,0-.29-.22,5.06,5.06,0,0,0-4-.55,1.51,1.51,0,0,0,0,2.89,21.65,21.65,0,0,0,5.38.59l5.89.39-.76-2.8-3,1.53a5.5,5.5,0,0,0-2.15,1.57,2.61,2.61,0,0,0,.61,3.64,2.43,2.43,0,0,0,.72.36,11.3,11.3,0,0,0,5.48-.21,16.67,16.67,0,0,0,5.41-2.32c1.16-.75.82-2.91-.76-2.8a36.46,36.46,0,0,0-7.47,1.33l.79,2.9a53.24,53.24,0,0,1,6.38-2.17,1.5,1.5,0,1,0-.79-2.9,57,57,0,0,0-6.38,2.17c-1.73.71-1.11,3.45.79,2.9a32.35,32.35,0,0,1,6.68-1.23l-.76-2.79a13.52,13.52,0,0,1-6.61,2.29,13.88,13.88,0,0,0-1.58,0c-.11,0-.63-.17-.1.16.34.21.28.14.66-.06,1.19-.64,2.42-1.23,3.62-1.84,1.42-.72.63-2.71-.75-2.79l-5.4-.36a20.67,20.67,0,0,1-5.08-.51V585a2,2,0,0,1,1.68.25l-.31-2.35c-1.65,1.34-4.15.84-5.06,3a1.5,1.5,0,0,0,1,1.84c2.57.83,5.17,1.55,7.79,2.19l-.36-2.74a30.71,30.71,0,0,1-5.91,1.93c-1.45.43-4.28,1.14-4.52,2.92a1.53,1.53,0,0,0,1.13,1.85,1.42,1.42,0,0,0,.71,0c1.29-.29,2.47-1.17,2.33-2.62-.17-1.74-1.65-1.72-3-1.83-1.93-.15-1.91,2.84,0,3a6.55,6.55,0,0,0,3.45-.68,1.51,1.51,0,0,0-.35-2.74c-.8-.18-2.64-.55-3.1-1.33l.15,1.15-.61.58.48-.1a6.23,6.23,0,0,0,1.21-.27l2.17-.48c1.68-.37,1.26-2.92-.4-3a16.59,16.59,0,0,1-9-2.79c-1.52-1-2.83,1.12-1.82,2.35a22.76,22.76,0,0,1,5.06,13.19l2.8-.76a21.33,21.33,0,0,1-1.84-4.61,36.41,36.41,0,0,0-1.82-4.38,19.58,19.58,0,0,0-5.91-7.14l-1.16,2.74a15.71,15.71,0,0,0,4.21.45,34.57,34.57,0,0,1,4.76.58,53.78,53.78,0,0,0,9.57.56c3.23-.06,6.47-.17,9.7-.26a44.25,44.25,0,0,0,9.8-1l-1.15-2.74c-1.82,1.37-4.3,1.35-6,3-1.35,1.33-1.68,3.8-3.32,4.76l2.26,1.3a12.73,12.73,0,0,1,.43-2.28,1.5,1.5,0,0,0-2.89-.8Z"/><path class="tres12" d="M317.08,568.27a30.62,30.62,0,0,1-7.47-.22,74.06,74.06,0,0,1-7.56-1.12,128.43,128.43,0,0,1-14.54-4.19c-1.83-.62-2.62,2.27-.79,2.89A116.78,116.78,0,0,0,302.18,570c2.54.49,5.1.8,7.66,1.07a33.45,33.45,0,0,0,8,.09c1.91-.27,1.1-3.16-.79-2.9Z"/><path class="tres12" d="M286.54,564.61h0l.15-.36v.06l.23-.31-.05,0,.31-.23h-.07l.36-.15h-.08l.4-.06h-.08l.4.06H288l.36.15h0l.31.24h0a1.14,1.14,0,0,0-.49-.31,1,1,0,0,0-.57-.13,1.08,1.08,0,0,0-.58.13,1.14,1.14,0,0,0-.49.31l-.23.3a1.54,1.54,0,0,0-.2.76l0,.4a1.57,1.57,0,0,0,.38.66,2.7,2.7,0,0,0,.34.25h0a2.54,2.54,0,0,0,.38.16h0l.43.06h0a3.15,3.15,0,0,0,.43,0h.05l.36-.15h0a1.31,1.31,0,0,0,.35-.27,1.93,1.93,0,0,0,.28-.36c.06-.12.11-.26.16-.38h0a1.22,1.22,0,0,0,0-.6,1.35,1.35,0,0,0-.57-1,1.1,1.1,0,0,0-.51-.27h-.39a1.54,1.54,0,0,0-.76.2l-.3.24a1.44,1.44,0,0,0-.39.66Z"/><path class="tres12" d="M330.74,567.38a3.33,3.33,0,0,0,2,.74,9.3,9.3,0,0,0,1.75-.11,16.31,16.31,0,0,0,3-.77c.77-.26,1.57-.54,1.81-1.42a3.83,3.83,0,0,0-.31-2c-.07-.24-.12-.48-.17-.73s-.06-.3-.08-.45-.1-.44,0-.06a7.88,7.88,0,0,1-.1-1.61l-2.8.75a1.59,1.59,0,0,0,.15.29c-.08,0-.11-.29,0,0a4,4,0,0,1,.14.57,1.51,1.51,0,0,0,1.85,1,1.53,1.53,0,0,0,1-1.84,4.8,4.8,0,0,0-.57-1.56,1.51,1.51,0,0,0-1.69-.69,1.54,1.54,0,0,0-1.1,1.45,16,16,0,0,0,.23,2.58c.07.36.14.72.24,1.07a2.14,2.14,0,0,0,.15.55l.09.28v0l.2-.76a1.1,1.1,0,0,1,.62-.48l-.16.05-.38.13-.65.21c-.48.15-1,.29-1.48.4a6,6,0,0,1-.72.13h-1.15c-.24,0,.29.1,0,0l-.18,0a.66.66,0,0,1,.34.2,1.63,1.63,0,0,0-1.06-.44,1.5,1.5,0,0,0-1.06,2.56Z"/><path class="tres12" d="M336.4,532.86a43.41,43.41,0,0,1-.89,6c-.45,2-1.15,3.88-1.65,5.84-1.08,4.14-1.23,8.61-1.72,12.85a1.5,1.5,0,0,0,1.53,1.48,1.47,1.47,0,0,0,1-.42c4.61-5.75,2.73-13,3.94-19.66.34-1.87-2.4-2.69-2.89-.79-1.71,6.67-2.14,13.56-2.52,20.41-.1,1.78,2.4,1.91,2.94.4,1.62-4.53,3.17-9.47,1.34-14.18-.57-1.47-3-1.42-2.95.4.2,4.67.25,9.37.69,14,.11,1.13,1.67,2.19,2.56,1.06,1.3-1.65.89-4.14.76-6.11-.14-2.3-.42-4.59-.57-6.88a33.59,33.59,0,0,1,.22-6.87,44.44,44.44,0,0,0,.72-6.81c0-1.4-2.13-2.16-2.79-.75-1.11,2.36-.74,5.3-.64,7.84a39.47,39.47,0,0,1-.27,8.69c-.34,1.88,2.52,2.7,2.9.8,1-5.08.62-10.2.12-15.32-.13-1.33-2.08-2.23-2.79-.76-1.85,3.8-3.63,7.67-3.77,12a1.52,1.52,0,0,0,1.53,1.49,1.53,1.53,0,0,0,1.27-.73,20.55,20.55,0,0,0,2.18-9,1.5,1.5,0,0,0-3,0,17.09,17.09,0,0,1-1.77,7.43l2.79.76c.12-3.74,1.75-7.15,3.36-10.45l-2.8-.76c.47,4.82.95,9.73,0,14.52l2.9.8a37,37,0,0,0,.42-8.08c0-1.33-.11-2.66-.12-4a8.8,8.8,0,0,1,.3-3.75l-2.8-.76c0,4.2-1.17,8.27-1,12.49.08,2.06.31,4.11.49,6.17.09,1.1.18,2.21.22,3.32V558c0,.37-.07.37,0,.19l2.56,1.06c-.44-4.65-.49-9.35-.69-14l-2.94.4c1.63,4.22.11,8.54-1.34,12.58l3,.4c.37-6.59.77-13.2,2.41-19.62l-2.89-.79c-.61,3.38-.44,6.78-.65,10.2-.16,2.83-.7,5.86-2.52,8.13l2.56,1.06c.49-4.25.62-8.77,1.84-12.89a55.83,55.83,0,0,0,2.42-11.8c.15-1.93-2.86-1.92-3,0Z"/><path class="tres12" d="M288.19,524.88c.09,2.63-.64,5.19-.82,7.81s-.11,5.48-.13,8.22-.11,5.41.06,8.1a68.75,68.75,0,0,1,.19,8.12l1.9-1.45c-.25-.1-.46-1.29-.51-1.48a10.84,10.84,0,0,1-.28-2.27,1.51,1.51,0,0,0-3-.4,14.74,14.74,0,0,0-.1,6.83c.36,1.63,3.1,1.3,2.95-.4-.23-2.61.55-5.2.63-7.81s.12-5.37.46-8.07.79-5.35,1.19-8a67.49,67.49,0,0,1,1.44-8.11l-3-.4c.32,4.72-2,9.13-2.33,13.79a1.52,1.52,0,0,0,1.53,1.49,1.53,1.53,0,0,0,1.27-.73,87.43,87.43,0,0,0,5.34-15.4l-3-.4a69.09,69.09,0,0,1-1.46,8.92c-.47,2.6-1.08,5.69-.06,8.23a1.51,1.51,0,0,0,2.89,0c1.14-3.25-.4-6.55.33-9.81.42-1.88-2.47-2.68-2.89-.79-.73,3.24.77,6.66-.33,9.8h2.89c-1-2.44-.17-5.52.32-8a56.14,56.14,0,0,0,1.31-8.36c.09-1.71-2.5-2-2.94-.4a83,83,0,0,1-5,14.69l2.8.75c.37-4.68,2.66-9,2.33-13.79a1.51,1.51,0,0,0-2.95-.4,70.07,70.07,0,0,0-1.44,8.12c-.41,2.78-.86,5.56-1.23,8.34a75,75,0,0,0-.51,8.06c-.05,2.77-.88,5.52-.64,8.29l2.94-.4a11.27,11.27,0,0,1,.1-5.23l-2.94-.4c.08,2.43.45,5.62,3,6.65,1,.39,1.85-.58,1.9-1.45a64.75,64.75,0,0,0-.18-7.88c-.18-2.77-.09-5.56-.07-8.34s0-5.33.11-8,.93-5.33.84-8c-.07-1.92-3.07-1.93-3,0Z"/><path class="tres12" d="M290.13,522.39c.38.26.54.26.51,0s0-.17-.06,0a1.6,1.6,0,0,1,.38.93,8.93,8.93,0,0,1-.1,2.58c-.24,1.69-.72,3.34-1,5-.54,3.2.13,6.64-1.09,9.68l2.94.4c0-3.42.07-6.86,0-10.28,0-1.6-.26-3.15-.4-4.74a4.81,4.81,0,0,1,.19-2.32,11,11,0,0,1,1.22-1.8,29.86,29.86,0,0,0,2-4c.68-1.34,1.43-2.63,2.17-3.93a34.33,34.33,0,0,0,3.79-8.45l-2.94-.4c-.35,3.27-.63,6.56-1.06,9.82s-1.7,6.22-2.48,9.39h2.9a17.84,17.84,0,0,1,1.32-9.46l-2.89-.8a35.1,35.1,0,0,1-3.1,8.17l2.75,1.15a29.07,29.07,0,0,1,1.88-5.53c.85-1.72-1.73-3.24-2.59-1.51a32.19,32.19,0,0,0-2.19,6.25c-.42,1.59,2,2.73,2.75,1.15a38.66,38.66,0,0,0,3.39-8.88,1.5,1.5,0,0,0-2.89-.8,20.81,20.81,0,0,0-1.33,11.06c.22,1.5,2.57,1.35,2.9,0,.8-3.32,2.08-6.39,2.53-9.8s.75-6.8,1.11-10.21c.18-1.7-2.53-2-2.95-.4a34.9,34.9,0,0,1-3.91,8.48c-1.55,2.71-2.69,5.62-4.49,8.16-1.94,2.76-.8,6.09-.72,9.2.09,3.5,0,7,0,10.51,0,1.81,2.35,1.89,3,.4,1.19-3,.6-6.13,1-9.22s1.82-6.45,1.18-9.68a3.9,3.9,0,0,0-2.41-3,2.83,2.83,0,0,0-3.41,1.21c-1.32,2.36.89,5.89,3.61,4.27a1.5,1.5,0,1,0-1.52-2.59h0Z"/><path class="tres12" d="M294.81,485.49c2.84,8.87,2.2,18.23,1.54,27.38-.11,1.52,2.09,2,2.8.76a7.12,7.12,0,0,0,.79-3c.16-1.93-2.84-1.91-3,0a3.5,3.5,0,0,1-.39,1.52l2.8.76c.68-9.41,1.28-19-1.65-28.18-.59-1.83-3.49-1.05-2.89.8Z"/><path class="tres12" d="M296.93,492a25.63,25.63,0,0,0,2.08,6.73c1,2.42,1.75,5,2.66,7.45,1.78,4.79,3.57,9.58,5.59,14.28.66,1.55,3.3.45,2.74-1.16a79.35,79.35,0,0,1-2.44-8c-.67-2.9-1.19-5.82-2-8.68a114.41,114.41,0,0,0-6.37-15.72c-.81-1.75-3.4-.23-2.59,1.51a105.9,105.9,0,0,1,6.2,15.46c.78,2.71,1.27,5.48,1.91,8.23a76.85,76.85,0,0,0,2.44,8l2.74-1.15c-2-4.61-3.72-9.31-5.45-14-.85-2.3-1.52-4.68-2.47-6.94a26.89,26.89,0,0,1-2.11-6.79,1.51,1.51,0,0,0-1.85-1.05,1.54,1.54,0,0,0-1,1.84Z"/><path class="tres12" d="M297.83,495.64q1.1,6.19,2.05,12.43a57.67,57.67,0,0,1,1,12.37h3a28,28,0,0,0-1.2-5.43,29.22,29.22,0,0,1-.86-5.66,1.5,1.5,0,0,0-3,0h0a38.1,38.1,0,0,0,.71,11.52c.35,1.33,2.68,1.53,2.89,0,.53-3.92-.26-7.68-1.36-11.44l-2.74,1.15a81.34,81.34,0,0,1,4.13,11,1.5,1.5,0,0,0,2.94-.4,32.85,32.85,0,0,0-.51-7.14c-.31-2.34-.67-4.67-1.1-7L301,508.2c2.68,5.15,4.26,10.95,6.14,16.42a1.5,1.5,0,0,0,2.9-.79h0a39.94,39.94,0,0,0-1.62-7,21.86,21.86,0,0,1-1.55-6.71l-2.94.4a45,45,0,0,0,4.1,11,1.51,1.51,0,0,0,2.8-.76,34.08,34.08,0,0,0-5.95-18.07c-1.05-1.62-3.65-.11-2.59,1.51,3.22,5,5.48,10.58,5.54,16.56l2.79-.75a42.07,42.07,0,0,1-3.8-10.24,1.51,1.51,0,0,0-2.95.4,22.31,22.31,0,0,0,1.52,7.08,40.64,40.64,0,0,1,1.75,7.46l2.9-.79c-2-5.73-3.65-11.76-6.45-17.14-.83-1.6-3-.43-2.74,1.15.41,2.21.76,4.44,1,6.67a31,31,0,0,1,.45,6.66l3-.4a85.76,85.76,0,0,0-4.43-11.72c-.73-1.55-3.21-.45-2.75,1.16.93,3.17,1.82,6.51,1.37,9.85h2.89c-.92-3.52-.77-7.13-.6-10.73h-3a32.73,32.73,0,0,0,.76,5.57c.41,1.84,1.19,3.63,1.3,5.52a1.5,1.5,0,0,0,3,0,59.26,59.26,0,0,0-1-12.68q-1-6.48-2.12-12.92c-.34-1.9-3.23-1.09-2.9.8Z"/><path class="tres12" d="M337.14,525.28c-.76,2.26-.48,4.88-.52,7.22,0,2,2.82,1.89,3,0a54.62,54.62,0,0,0,.17-6.77,10.7,10.7,0,0,0-.24-3.19c-.34-1-1.33-1.45-2.15-1.95a15,15,0,0,1-4.13-4.41c-1.3-1.8-2.58-3.62-3.79-5.48-1-1.61-3.61-.14-2.59,1.51,1.47,2.38,2.82,4.78,4.12,7.25,1.12,2.13,3,4,3.51,6.41l2.2-1.69c-1.17-.8-2-2.2-3-3.17a19.21,19.21,0,0,0-3.65-2.69,1.5,1.5,0,0,0-1.51,2.59,16.23,16.23,0,0,1,3.55,2.73,22.22,22.22,0,0,0,3.08,3.13c1.17.79,2.43-.52,2.2-1.7-.5-2.59-2.4-4.51-3.62-6.77-1.4-2.57-2.77-5.11-4.31-7.6l-2.59,1.51c1.14,1.76,2.34,3.47,3.56,5.17a24.21,24.21,0,0,0,3.76,4.62,11.55,11.55,0,0,0,1.2.88,4.66,4.66,0,0,0,1.27.79c.28.23.29.17,0-.2v.83c0,.54,0,1.09,0,1.64a51.29,51.29,0,0,1-.17,6.56h3c0-2.07-.26-4.43.41-6.42.62-1.83-2.28-2.62-2.89-.8Z"/><path class="tres12" d="M326.84,501.3A44.38,44.38,0,0,0,327,510c.26,2.27.33,5.36,2,7.12a1.51,1.51,0,0,0,2.51-1.46c-.76-3.34-2.54-6.36-3-9.77-.23-1.67-3.08-1.29-2.95.4a16.14,16.14,0,0,0,1.68,5.38c.82,1.79,1.65,3.57,2.63,5.29.59,1,2.52,1,2.74-.36.31-1.88-.56-3.42-1.15-5.15a36.23,36.23,0,0,1-1.38-5.52c-.6-3.51-1-7.78.55-11.1l-2.74-1.16a25,25,0,0,0-1.11,6.91c0,1.64,2.58,2.1,2.94.4a9.2,9.2,0,0,1,2.59-4.77c1.26-1.25-.34-3.07-1.82-2.36-4.44,2.13-9.56,2.11-14,4.25l1.81,2.36.32-.26-2.36-1.82q-2.34,5-4.56,10.09c-1.34,3.07-3.14,6.31-3.67,9.64-.25,1.58,1.82,2.72,2.74,1.15a98.63,98.63,0,0,0,5.51-10.91,36.28,36.28,0,0,0,3.17-11.08c.14-1.67-2.61-2-3-.4-1.46,7.17-.66,14.61-2.44,21.72a1.5,1.5,0,0,0,2.89.79l8.52-22.57-2.89-.79c-.88,3.63-2,7.19-3.21,10.73-.6,1.73-1.22,3.45-1.84,5.17a15.89,15.89,0,0,0-1.39,5.41,1.51,1.51,0,0,0,3,.4,139.79,139.79,0,0,1,9.35-21.88l-2.74-1.15c-1.06,5.67-3.77,10.89-4.63,16.6-.29,1.87,2.48,2.73,2.89.8l2.73-13-2.95-.4a166.91,166.91,0,0,1-1.18,16.72c-.19,1.57,2.08,1.91,2.79.76,1.2-1.91,1.42-4.29,1.74-6.47q.54-3.76.78-7.57c.1-1.66-2.64-2.07-2.95-.39s-.57,3.11-1,4.63a17.38,17.38,0,0,1-.67,2c-.21.54-.53,1.65-1.05,1.95l1.82.24a2.84,2.84,0,0,1-.67-2.07c-.1-1.11-.18-2.23-.22-3.35a29.35,29.35,0,0,1,.46-6.75,1.5,1.5,0,0,0-2.89-.79c-1.52,5.23-4.88,9.67-6.55,14.86-.51,1.58,2.06,2.73,2.74,1.15a145.57,145.57,0,0,0,5.44-14.7c.59-1.9-2.17-2.52-2.89-.8-1.06,2.55-2.1,5.11-3.1,7.68-.93,2.38-2.15,4.84-2.43,7.4-.16,1.47,2.16,2,2.79.75a28.55,28.55,0,0,0,1.65-4.1c.53-1.65-1.87-2.59-2.74-1.16a56.28,56.28,0,0,0-4.95,10.54c-.57,1.63,1.91,2.61,2.74,1.16a43.48,43.48,0,0,0,2.8-5.84c.71-1.79-2.19-2.57-2.89-.8a37.28,37.28,0,0,1-2.5,5.12L313.5,520a53.14,53.14,0,0,1,4.65-9.82l-2.74-1.16a24.18,24.18,0,0,1-1.35,3.39l2.8.76a15.25,15.25,0,0,1,1.1-3.43c.46-1.21.93-2.42,1.4-3.63.95-2.42,1.92-4.82,2.92-7.22l-2.89-.8a138.72,138.72,0,0,1-5.14,14l2.74,1.15c1.67-5.17,5-9.61,6.55-14.86l-2.89-.79a34.13,34.13,0,0,0-.53,8.5c.12,2.12,0,5.06,1.73,6.58a1.54,1.54,0,0,0,1.82.23c1.52-.89,2.18-3,2.72-4.54a42,42,0,0,0,1.36-5.87l-2.94-.4c-.14,2.27-.35,4.53-.68,6.77-.27,1.88-.4,4.11-1.43,5.76l2.8.75a166.91,166.91,0,0,0,1.18-16.72c0-1.66-2.59-2.08-2.95-.4l-2.72,13,2.89.8c.87-5.72,3.57-10.93,4.63-16.6.3-1.59-1.87-2.74-2.74-1.16a145.64,145.64,0,0,0-9.66,22.59l3,.4c0-1.73.87-3.46,1.45-5.06s1.23-3.45,1.82-5.18c1.16-3.38,2.22-6.8,3.06-10.28a1.5,1.5,0,0,0-2.89-.79L314,518.55l2.89.79c1.78-7.12,1-14.54,2.44-21.71l-2.94-.4a33.19,33.19,0,0,1-3.13,10.43,97,97,0,0,1-5.14,10.05l2.74,1.15c.52-3.24,2.26-6.38,3.57-9.37q2.11-4.85,4.36-9.63A1.51,1.51,0,1,0,316.4,498l-.32.26c-1.4,1.14.39,3,1.82,2.35,4.44-2.13,9.56-2.1,14-4.25L330.08,494a12.13,12.13,0,0,0-3.35,6.09l2.95.4a21.88,21.88,0,0,1,1-6.11c.43-1.59-2-2.74-2.74-1.16-1.63,3.5-1.61,7.45-1.17,11.22a38.88,38.88,0,0,0,1.1,5.75c.24.88.52,1.75.83,2.61s1.06,2,.92,2.91l2.74-.36c-.83-1.45-1.55-2.94-2.25-4.46a14.19,14.19,0,0,1-1.65-4.69l-3,.39c.47,3.42,2.24,6.44,3,9.78L331,515c-.63-.67-.66-2.15-.8-3-.2-1.13-.34-2.28-.43-3.42a45.92,45.92,0,0,1,0-7.23c.16-1.92-2.84-1.91-3,0Z"/><path class="tres12" d="M335.94,547.84a33.29,33.29,0,0,1,.21,3.46c0,1.64,2.64,2.12,2.94.4.56-3.17.13-6.26-.21-9.43-.28-2.58-.83-6.25,1.1-8.36h-2.12a5.57,5.57,0,0,1,.73,3.09c.08,1.26.11,2.53.1,3.79,0,2.7-.22,5.39-.44,8.08a95,95,0,0,0-.53,15.91c.15,1.91,3.16,1.92,3,0-.48-5.79.19-11.57.64-17.34a81.34,81.34,0,0,0,.31-8.55c-.06-2.47-.07-5.09-1.69-7.1a1.51,1.51,0,0,0-2.12,0c-4.68,5.13-.6,13.08-1.66,19.12l2.95.39a33.29,33.29,0,0,0-.21-3.46c-.22-1.9-3.22-1.92-3,0Z"/><path class="tres12" d="M320.17,498.51a42.8,42.8,0,0,1,3.14-6.37,15.79,15.79,0,0,1,2-2.53c.9-.9,1.93-1.66,2.76-2.64a1.53,1.53,0,0,0-.06-2.16,1.58,1.58,0,0,0-.6-.35A2.2,2.2,0,0,0,325,488a4.62,4.62,0,0,0,2.34.85,3.88,3.88,0,0,1,2,1.07c.29.28.55.58.82.88s.59.85.9,1c0,0,.08.12.1.09-.17.18.06-.26,0-.29a5.2,5.2,0,0,0-.77.67,14.62,14.62,0,0,0-3.19,4.1l2.75,1.16a28.1,28.1,0,0,0,1.62-7.75,1.52,1.52,0,0,0-1.53-1.49,1.53,1.53,0,0,0-1.27.73l-2.53,5.19L329,495l.38-5.27c.12-1.69-2.56-2-2.95-.4a23.79,23.79,0,0,1-3.16,7.4l2.74,1.16a41.42,41.42,0,0,1,2.12-7.32l-2.89-.8a17.85,17.85,0,0,1-4,5.83l2.51,1.45a26.25,26.25,0,0,1,3.48-5.89,1.55,1.55,0,0,0,0-2.12,1.51,1.51,0,0,0-2.12,0,30.66,30.66,0,0,0-4.25,7.22c-.6,1.4,1.55,2.5,2.5,1.46a20.54,20.54,0,0,0,4.82-7.15,1.51,1.51,0,0,0-1.05-1.85,1.52,1.52,0,0,0-1.84,1,41.42,41.42,0,0,0-2.12,7.32,1.5,1.5,0,0,0,2.74,1.15,25.89,25.89,0,0,0,3.46-8.11l-2.94-.4L326,495a1.52,1.52,0,0,0,1.53,1.49,1.53,1.53,0,0,0,1.27-.73l2.53-5.19-2.79-.76a25.42,25.42,0,0,1-1.52,6.95,1.51,1.51,0,0,0,2.75,1.16,11.88,11.88,0,0,1,2.54-3.35,6.88,6.88,0,0,0,1.46-1.49,2.56,2.56,0,0,0,0-2.49,9.06,9.06,0,0,0-1.39-1.7,12.94,12.94,0,0,0-1.65-1.66,6.84,6.84,0,0,0-2.18-1.12,11.48,11.48,0,0,0-1.16-.27,1.86,1.86,0,0,0-.41-.08c-.37-.15-.5.1-.38.75-.41.48-.42.77,0,.86l-.66-2.5c-.83,1-1.86,1.74-2.76,2.64a18.62,18.62,0,0,0-2.36,2.95,41,41,0,0,0-3.27,6.56,1.56,1.56,0,0,0,.54,2.05,1.5,1.5,0,0,0,2.05-.54Z"/><path class="tres12" d="M323.46,492.86a4.88,4.88,0,0,0-.34.58,7.19,7.19,0,0,0-.4,1,1,1,0,0,0,0,.59,1.12,1.12,0,0,0,.18.56,1,1,0,0,0,.38.42,1.26,1.26,0,0,0,.51.27l.4.05a1.54,1.54,0,0,0,.76-.2l.3-.24a1.44,1.44,0,0,0,.39-.66l.12-.33-.15.36a4.16,4.16,0,0,1,.47-.85,1.12,1.12,0,0,0,.18-.56,1.22,1.22,0,0,0,0-.6,1.26,1.26,0,0,0-.27-.51,1.31,1.31,0,0,0-.42-.39l-.36-.15a1.55,1.55,0,0,0-.8,0l-.35.15a1.55,1.55,0,0,0-.54.54Z"/><path class="tres12" d="M331.82,686.59c-1.2-.2-2.4-.43-3.58-.68v4.26a4.57,4.57,0,0,0,0,.74c1.18.25,2.38.48,3.58.68v-4.27A4.45,4.45,0,0,0,331.82,686.59Z"/><path class="cls-4" d="M295,484c.62,5.59.88,10.35,1,14,.32,9.72-.37,13-2,16a19,19,0,0,1-4,5"/><path class="cls-4" d="M335,492a19.53,19.53,0,0,0-4.41,9.47c-1.26,8,3.12,14,4.33,15.54a20.67,20.67,0,0,0,4.69,4.36"/><path class="cls-4" d="M341,498a38.47,38.47,0,0,0-1,5,39.11,39.11,0,0,0,1,15"/><path class="cls-4" d="M289,491a23.49,23.49,0,0,1,0,23"/><path class="cls-4" d="M326,483a73,73,0,0,0-16,31q-2.67-7.23-6-15c-2.62-6.05-5.31-11.72-8-17"/><g id="t-bolas"><path class="cls-5" d="M289.5,513.5c-8.35,45.59-3.57,63,3,70a25.35,25.35,0,0,1,6,8,25.06,25.06,0,0,1,2,7c.36,2.79-.11,3,0,7a49.38,49.38,0,0,0,1,10c.44,2,.92,3.42.5,5.5a12.9,12.9,0,0,1-1.5,3.5c-1,2-1,3.61-1,9,0,9.73.11,9.13,0,10-.59,4.57-1.7,5.23-2,10-.21,3.34.32,3.11,0,6-.49,4.34-1.71,4.94-2,9-.22,3,.41,3.26,0,6s-1.16,3.33-2,6c-2.1,6.66,0,11-2.5,12.5-1,.59-1.43-.06-2.5.5-3,1.58-1.86,7.31-3,12-.83,3.42-3.24,7.75-10,12-5.33.73-13.69,1.83-24,3-17.26,2-22.31,2.11-30,5-10,3.78-22.06,11.15-21,16,.69,3.17,6.73,5,13,6A134.17,134.17,0,0,0,229,749c22.44.86,34.68-3.81,64-8,7-1,15,0,22-2a12,12,0,0,0,1-2c2-5-.49-8.66-2.5-16.5-1.82-7.1-2.28-13.79-2.78-21,0,0-.1-1.45-.17-3-.64-12.65.62-83.86.95-102"/><path class="cls-5" d="M299.5,476.5a267.74,267.74,0,0,0-58,166c-.72,2.08-1.89,5.39-3.44,9.44-2.27,5.92-2.83,6.83-3.06,9.06-.6,5.93,2.06,12.32,4.5,12.5,1.36.1,2.63-1.82,3.5-3.5a22,22,0,0,0,2.69-8.06c.56-3.63.81-8.44.81-8.44-.28,2-.64,4.74-1,8-.85,7.68-.77,9.75,0,12,.29.84,2,5.83,5,6,2.3.13,4.11-2.64,5-4a15.47,15.47,0,0,0,2.09-10.12,21,21,0,0,0-1.09-4.88s.6,2.49,1,4c2.13,8.06,3.19,12.11,6,13,2.13.68,4.66-.66,6-2a7.89,7.89,0,0,0,2-4c1.46-5.8-1.18-11.22-2.31-13.55a28.78,28.78,0,0,0-2.69-4.45l4,7c.39.18,3.38,1.51,6,0s2.95-5.08,3-6c.25-4.54-3.37-9.14-9-12a222.89,222.89,0,0,1-3-28,198.56,198.56,0,0,1,3-48,184.63,184.63,0,0,1,19-53"/><path class="cls-5" d="M364.5,640.5c.61-2.55,1.4-6.19,2-10.62.51-3.58,1.76-13.58,0-33.35-1-11.42-1.84-20.63-5-33a160.08,160.08,0,0,0-10-28,154.15,154.15,0,0,0-10-18"/><path class="cls-5" d="M320.5,477.5a186.28,186.28,0,0,1,17,16c7.93,8.47,13.1,15.75,19,24,2.83,4,7,9.83,12,18a185.06,185.06,0,0,1,12,22,148.32,148.32,0,0,1,9,27,196.81,196.81,0,0,1,5,56"/><path class="cls-5" d="M311.5,698.5q2,13,4,26a36,36,0,0,1,1,7q.15,3,0,6c-.08,1.44-.2,1.62,0,2,.89,1.69,4.79,1.21,7,1,.73-.07,6.15,0,17,0,2.06,0,2.69.08,13,1,13,1.15,19.63,1.71,27,2,13.88.54,17.65-.32,20-1,6.75-2,15.47-6.37,15-10-.2-1.56-2-2.52-3-3-15.95-8-27-9-27-9l-19-1"/><path class="cls-5" d="M366.5,719.5c-4-.22-7.35-.62-10-1-6-.87-7.28-1.55-8-2-1.92-1.2-3.25-3.31-5.92-7.53-2.42-3.83-3.63-5.75-4.08-7.47-1.15-4.42.1-7.55-2-9-.85-.58-2-.7-3-2a5.88,5.88,0,0,1-1-2,10.83,10.83,0,0,1,0-5c.35-3.12-1.21-3.65-2-8-.54-3,0-3.61,0-8a54.17,54.17,0,0,0-1-10,12.56,12.56,0,0,1-2-3.86c-1-3.18-.07-5,0-9.14s-.75-3.47-1-9c-.24-5.17.5-5.39,0-9-.61-4.4-1.75-4.38-2-8-.29-4.11,1.11-5.11,1-9A18.18,18.18,0,0,0,323,601a24.51,24.51,0,0,1,2-5,40.71,40.71,0,0,1,6-8h0a67.53,67.53,0,0,1,6.39-9.27l.49-.59L338,578c5.6-6.62,3.5-39.5,3.5-39.5-.31-4.78-.62-11.82-.5-20.5"/><path class="cls-5" d="M364.5,640.5a71.26,71.26,0,0,0-3,8c-1.81,5.9-1.39,7.25-1,8,1.3,2.49,4.88,4,7,3,3-1.48,2.51-8,3-8,.87,0-1.25,20.55,5,23a5.41,5.41,0,0,0,5-1c1.86-1.53,1.94-4.17,2-8a36.86,36.86,0,0,0-1-9c.13,1,2.38,17.46,8,18a4.77,4.77,0,0,0,4-2c1-1.47.69-3.14-1-10-1.31-5.34-2-8-2-8s.49,2.13,1,4c1.19,4.33,1.81,6.5,3,7,1.62.68,3.86-.64,5-2,2.22-2.65,1.15-6.49,1-7-.36-1.22-.74-1.41-2.2-5-.48-1.17-.53-1.35-.64-1.64a3.48,3.48,0,0,0-.16-.37c-.09-.21-1.3-2.91-2-5a26.29,26.29,0,0,1-1-4"/></g><path class="dos12" d="M287.6,574.7a1.62,1.62,0,0,0,0,2l-1.69-.69a2.61,2.61,0,0,1,.23,1l1.5-1.5h-.21l1.06.43s.06-1.3.06-1.45v-1.64a28.16,28.16,0,0,1,.41-3.55l-1.45,1.1a6.64,6.64,0,0,1,2.89.85,18.09,18.09,0,0,0,3.21,1c2.14.46,4.32.78,6.48,1.13,4.4.71,8.84,1.33,13.29,1.61a65.77,65.77,0,0,0,13.23-.4c4.2-.59,8.61-1.56,12.26-3.84,1.17-.74.8-2.92-.76-2.8-4.66.38-9.28.85-13.61,2.75-1.76.77-.24,3.36,1.52,2.59,3.8-1.67,8-2,12.09-2.34l-.76-2.79c-3.55,2.22-8,3.1-12.07,3.6a67.17,67.17,0,0,1-12.84.17c-4.34-.32-8.66-1-13-1.67A56.86,56.86,0,0,1,293.1,569c-1.88-.54-3.52-1.72-5.55-1.63a1.52,1.52,0,0,0-1.44,1.11,33.21,33.21,0,0,0-.56,6.21c0,1.57,0,3.73,2.08,3.79a1.52,1.52,0,0,0,1.5-1.5,7.1,7.1,0,0,0-.64-2.48,1.52,1.52,0,0,0-1.7-.69,2.09,2.09,0,0,0-.71,3.7c1.56,1.16,3.17,0,4.11-1.34,1.13-1.57-1.47-3.06-2.59-1.51Z"/><path class="dos12" d="M335.56,570.24c.95.8,1.79,2.19,1.27,3.47a3.64,3.64,0,0,1-1.6,1.53c-.85.55-1.71,1.09-2.6,1.58-3.54,1.95-7.59,1.78-11.52,2-8.09.45-16.31.64-24.31-.83a54.3,54.3,0,0,1-6.4-1.57,7.55,7.55,0,0,0-1.74-.57c-.68,0,.31.24.17.28s.06-.79.07-.86a8.7,8.7,0,0,1,1.16-3.19l-2.74-1.16a12.19,12.19,0,0,0,.47,5.72,1.52,1.52,0,0,0,2.74.35,14.1,14.1,0,0,0,1.9-4.44l-2.95-.4v.67a1.52,1.52,0,0,0,1.5,1.5q12.42,1.27,24.87,2.23c4,.3,7.86.47,11.72-.67,3.42-1,6.58-3.56,10.21-3.68l-1.3-2.26c-.72,1.44-2.45,1.89-3.88,2.33a36.74,36.74,0,0,1-5.78,1.25c-3.88.54-7.81.61-11.72.83a97.89,97.89,0,0,1-12.23.4c-4.13-.28-8.25-.94-12.35-1.49a1.52,1.52,0,0,0-1.5,1.52,1.49,1.49,0,0,0,.2.74,6.9,6.9,0,0,0,4.18,2.7,51.36,51.36,0,0,0,6,1.2,85.85,85.85,0,0,0,12.91,1A47.71,47.71,0,0,0,325,578.75c4.09-1.12,8.1-2.58,12.12-3.92l-1.46-2.51c-2.18,2.42-6.42,2.41-9.42,2.68a79.61,79.61,0,0,1-11.66.15c-1.93-.12-1.93,2.88,0,3a77.71,77.71,0,0,0,13.12-.3c3.47-.37,7.58-.64,10.08-3.41.94-1,0-3-1.46-2.51-7.4,2.48-14.7,5.3-22.6,5.51a77.51,77.51,0,0,1-11.6-.65c-1.92-.23-3.84-.54-5.74-.94-1.42-.3-3.72-.52-4.61-1.84l-1.29,2.25c4.42.59,8.85,1.34,13.31,1.55s8.74-.34,13.1-.55a93.37,93.37,0,0,0,12.49-1.14c3.22-.59,8-1.41,9.65-4.67a1.51,1.51,0,0,0-.58-2.06,1.45,1.45,0,0,0-.71-.19c-3.67.12-6.56,2.26-9.91,3.44-3.95,1.39-7.91,1.22-12,.91q-12.45-.94-24.87-2.23l1.5,1.5v-.67a1.5,1.5,0,0,0-2.94-.4,12,12,0,0,1-1.6,3.73l2.74.36a8.89,8.89,0,0,1-.46-4.12c.22-1.58-1.82-2.75-2.75-1.16s-2.07,4.33-1.56,6.37a2.65,2.65,0,0,0,1.95,1.81c1.21.45,2.46.81,3.71,1.15a69.74,69.74,0,0,0,14.8,2.14,148.21,148.21,0,0,0,15.2-.24c2.38-.13,4.79-.19,7.16-.5a17.3,17.3,0,0,0,6.74-2.66c1.89-1.16,4-2.37,4.41-4.73a6.28,6.28,0,0,0-2.2-5.78c-1.47-1.24-3.6.88-2.12,2.12Z"/><path class="dos12" d="M310.49,577.82c3.8.41,7.59.89,11.4,1.22a39.48,39.48,0,0,0,11.11-.87c1.89-.37,1.09-3.26-.8-2.89a36.69,36.69,0,0,1-10.71.72c-3.67-.34-7.34-.78-11-1.18-1.92-.21-1.9,2.79,0,3Z"/><path class="dos12" d="M322.28,574.13q.64-.15,1.32-.24l-.4.05a15.37,15.37,0,0,1,3.39-.06,1.5,1.5,0,0,0,1.06-.44,1.54,1.54,0,0,0,.44-1.06,1.5,1.5,0,0,0-.44-1.06,1.68,1.68,0,0,0-1.06-.44,16.26,16.26,0,0,0-5.11.36,1.51,1.51,0,0,0-1.05,1.84,1.53,1.53,0,0,0,1.85,1Z"/><path class="dos12" d="M242.93,628.11a32.69,32.69,0,0,0,8.44,2.45,22.11,22.11,0,0,0,8.69-.12,12.65,12.65,0,0,0,3.56-1.64,16.65,16.65,0,0,0,3.22-2.44c2-2.12,1.1-5.61.47-8.12a1.51,1.51,0,0,0-1.85-1c-3.28,1.33-5.83,4.06-9.52,4.26a14,14,0,0,1-5.37-.82,20.71,20.71,0,0,1-2.61-1.12l-1.08-.57-.7-.4c-.34-.35-.49-.26-.43.26l-2.21.89a34.27,34.27,0,0,0,4.43,2.17c.76.31,1.54.59,2.33.84.39.13,2,.81,2.32.66q.52.23-.06-.93a1,1,0,0,1-.42.17,6.59,6.59,0,0,1-1.09.09,8.87,8.87,0,0,1-2.16-.53,5.36,5.36,0,0,1-3.09-2.35,1.5,1.5,0,0,0-2.07-.52,1.61,1.61,0,0,0-.52.52c-.92,1.86-2.11,6.1.36,7.35,1.26.63,3,.33,4.41.36,1.59,0,3.18.19,4.77.32,5.14.4,11.23-.09,14.12-5a1.51,1.51,0,0,0-1.69-2.2,38.54,38.54,0,0,1-9.75,1.84c-1.66.12-3.33.18-5,.23-1.39,0-3,.31-4.25-.5-1.62-1.06-3.12,1.53-1.51,2.59a8.21,8.21,0,0,0,4.93.94c1.81,0,3.61-.11,5.41-.23a42,42,0,0,0,11-2l-1.69-2.2c-2,3.45-6.43,3.85-10,3.66-2.33-.12-4.64-.42-7-.43h-1.79c-.23,0-.93-.21-.48.13s.17,0,.15-.31a5.88,5.88,0,0,1,.62-3h-2.59a8.49,8.49,0,0,0,4.88,3.73c2.08.74,5,1.2,6.69-.63a2.3,2.3,0,0,0,.22-2.91,4.48,4.48,0,0,0-2.72-1.35,30,30,0,0,1-7.22-3.06,1.52,1.52,0,0,0-2.07.57,1.56,1.56,0,0,0-.14.33c-.37,2.47,2.27,3.48,4.14,4.37a20.6,20.6,0,0,0,6.73,2,13.27,13.27,0,0,0,6.7-1c2.06-.91,3.75-2.48,5.84-3.32L264.41,619a18.5,18.5,0,0,1,.58,3.31,2.47,2.47,0,0,1-1.13,2.63,12.79,12.79,0,0,1-5.81,2.82,26.39,26.39,0,0,1-13.6-2.28c-1.76-.77-3.29,1.82-1.52,2.59Z"/><path class="dos12" d="M366.52,621.41c.31,1.12-.19,2.36-.14,3.51a15.51,15.51,0,0,1,.1,1.8c0,.64-.36,1.22-.38,1.87-.08,2.32,2.45,3.48,4.35,3.94a21.64,21.64,0,0,0,3.39.58,27.1,27.1,0,0,0,3.82-.33c2.78-.23,5.56-.08,8.33-.53,1.67-.27,1.28-3-.4-2.94-2,.08-4,.08-6,.13a5.54,5.54,0,0,0-4.14,1.45,1.53,1.53,0,0,0,1.06,2.57c2.27.27,4.58.69,6.86.79s4.08-1,6-2.2,3.37-2.08,4.13-4.2a23.2,23.2,0,0,0,1-6.36A1.5,1.5,0,0,0,393,620a1.47,1.47,0,0,0-1,.42c-2,1.84-4.82,2.26-7.36,2.73a17.14,17.14,0,0,1-9.09-.68c-1.39-.49-2.73-1.09-4.06-1.7-1.14-.52-2.34-1.15-3.46-.21a3,3,0,0,0-.64,3.17c.18.64.54,1.22.68,1.86a5.52,5.52,0,0,1-.29,2.58l2.95.4a13.88,13.88,0,0,1,.55-3.33l-2.2.9c.66.48,1,1.48,1.53,2.09a3.73,3.73,0,0,0,2.43,1.28c2.6.3,5.46-.41,8-.92,1.3-.27,2.59-.55,3.9-.78s2.69-.29,4-.63c2.15-.56,4.16-2.25,4-4.66-.07-.88-.92-1.82-1.9-1.45l-1.43.54,1.84,1.85c-.61-.22-.91-.14-.9.23a.93.93,0,0,1-.17.49,9.6,9.6,0,0,1-.66,1,7.62,7.62,0,0,1-1.07,1.72c-1.07,1-3.42,1.28-4.8,1.49a19.19,19.19,0,0,1-9.66-1.16c-1.81-.69-2.59,2.21-.8,2.9a21.78,21.78,0,0,0,8.49,1.43c2.63-.1,5.8-.54,8.09-1.93,1.16-.71,1.63-1.83,2.35-2.93s1.46-2.27,1.18-3.67c-.5-2.56-4.32-3.18-4.94-.36-.23,1,.7,2.27,1.84,1.84l1.44-.53-1.9-1.45c.15,2-3,2-4.38,2.18-2.08.3-4.13.77-6.2,1.18-1,.19-2,.38-3.05.5a8.19,8.19,0,0,1-3,.16c-.59-.2-.83-.9-1.16-1.38a6,6,0,0,0-1.54-1.61,1.52,1.52,0,0,0-2.06.56,1.36,1.36,0,0,0-.14.33,17.53,17.53,0,0,0-.66,4.13,1.51,1.51,0,1,0,3,.4,8.2,8.2,0,0,0,.28-4.17,6.77,6.77,0,0,0-.73-2c0-.3-.2-.28-.52,0-.59.11-.63.23-.15.35a3,3,0,0,0,.83.38,30.84,30.84,0,0,0,8.29,2.8,24.42,24.42,0,0,0,8.68-.69,13.75,13.75,0,0,0,6.76-3.12l-2.56-1.06a21.33,21.33,0,0,1-.73,5.21c-.55,1.7-2.23,2.36-3.66,3.24a8.42,8.42,0,0,1-2.31,1.23,8.17,8.17,0,0,1-2.79,0l-5.49-.66,1.06,2.56c.79-.83,2.27-.58,3.31-.59,1.57,0,3.15-.06,4.72-.12l-.4-3a64.6,64.6,0,0,1-6.81.37c-1.08.06-2.14.25-3.21.36a10.5,10.5,0,0,1-3.16-.29,5.44,5.44,0,0,1-2.56-.84c-.56-.57,0-1.62,0-2.46a22.76,22.76,0,0,1,0-3.09,6.61,6.61,0,0,0-.06-2.8,1.5,1.5,0,0,0-2.89.8Z"/><path class="dos12" d="M372.85,624.61l-1.37-1.42-1.82,2.35,6.61,3,.76-2.8-4.87.11c-1.24,0-2.89-.18-3.68,1-1.74,2.71,3,3.8,4.68,4.17,2.76.62,5.8-.84,8.43-1.61a17.69,17.69,0,0,1,4.44-.84c1.64,0,3.28-.06,4.92-.09l-1.44-1.9c-.09.39-.74.87-1,1.19a18.16,18.16,0,0,1-1.28,1.42c-.7.73-1.73,1.07-2.21,2a1.52,1.52,0,0,0,.54,2c1.51.88,3.74,0,5.29-.45,1.71-.52,3.32-1.61,3.64-3.49s-2.56-2.7-2.89-.8c-.17,1-1.05,1.27-1.94,1.51l-1.35.33a5.93,5.93,0,0,1-1.24.31l.54,2c.17-.32.95-.63,1.23-.88.49-.44.91-.95,1.35-1.43.78-.87,2-1.82,2.24-3a1.54,1.54,0,0,0-1.11-1.86,2,2,0,0,0-.34,0c-1.77,0-3.56,0-5.33.1a22.34,22.34,0,0,0-5.25,1.06c-1.65.49-3.32,1.08-5,1.45a4.22,4.22,0,0,1-2.33-.22l-1.08-.31-.52-.12q-.64-.35-.21.57l-.69.89a3.83,3.83,0,0,1,1.39-.07h1.62l3.48-.08c1.37,0,2.2-2.16.76-2.79L371.17,623a1.51,1.51,0,0,0-1.81,2.36l1.37,1.43c1.35,1.39,3.47-.74,2.12-2.13Z"/><path class="cls-5" d="M292.5,692.5a12.68,12.68,0,0,1,6,0c1.74.44,1.63.83,3,1,2.6.32,4-1,7-1h4a31.2,31.2,0,0,1,6,1c3,.64,3.81-.48,9-1a39.61,39.61,0,0,1,8,0"/><path class="cls-4" d="M245.11,629.66a19.39,19.39,0,0,0,6.48,1.18c3.62-.23,3.45.46,8.64,0a6.76,6.76,0,0,0,6-3.54,19.34,19.34,0,0,0,1.3-2.36c.14-1.57.29-3.15.43-4.72-.14-1.57-.29-3.15-.43-4.72l-4.75,2.36c-4,3.4-7,3.22-9.07,2.36-3-1.25-6.18-.87-9.07-3.54-.35-.32-1.57-1.49-2.16,0-.29.72-.34,2.06-.43,4.72a31,31,0,0,0,0,4.72A3.89,3.89,0,0,0,245.11,629.66Z"/><path class="cls-4" d="M369.47,632.66a23.94,23.94,0,0,0,7.22,1.18c4.05-.23,3.85.46,9.64,0,2.42-.19,4.51-.49,6.74-3.54a19.64,19.64,0,0,0,1.45-2.36l.48-4.72-.48-4.72-5.3,2.36c-4.42,3.4-7.8,3.22-10.12,2.36-3.37-1.25-6.89-.87-10.11-3.54-.4-.32-1.75-1.49-2.41,0-.32.72-.38,2.06-.48,4.72a24.81,24.81,0,0,0,0,4.72A4.07,4.07,0,0,0,369.47,632.66Z"/><path class="cls-4" d="M291.7,580.66a87,87,0,0,0,13.95,1.18c7.81-.23,7.43.46,18.61,0,4.67-.19,8.7-.49,13-3.54a23.22,23.22,0,0,0,2.79-2.36l.93-4.72-.93-4.72-10.23,2.36c-8.53,3.4-15.06,3.22-19.54,2.36-6.5-1.25-13.3-.87-19.53-3.54-.76-.32-3.38-1.49-4.65,0-.62.72-.73,2.06-.93,4.72s-.3,3.83,0,4.72C286,579.7,289.28,580.29,291.7,580.66Z"/></g><path class="cls-6" d="M318,510.74a6.82,6.82,0,0,0-2.54,5.07,7.14,7.14,0,0,0,2.54,5.07c2,2,6.07,4.18,8.87,2.54a6.37,6.37,0,0,0,2.54-3.8,8.79,8.79,0,0,0,0-5.08c-.3-1-1.14-3.91-3.8-5.07a7.28,7.28,0,0,0-5.08,0A7.1,7.1,0,0,0,318,510.74Z"/><path class="cls-7" d="M320.57,517.08a2,2,0,0,0,0,1.27c.49,1.24,2.37,1.27,2.54,1.27s2.05,0,2.54-1.27a2,2,0,0,0,0-1.27"/><line class="cls-8" x1="319.3" y1="514.54" x2="319.3" y2="514.54"/><line class="cls-8" x1="325.65" y1="514.54" x2="325.65" y2="514.54"/></g></g></g></g></svg>