<svg xmlns="http://www.w3.org/2000/svg" viewBox="0 0 585 750"><defs><style>.uno12,.uno124{fill:#fff;}.uno12{opacity:0;}.dos12{fill:gray;}.tres12{fill:#1b4329;}.uno122,.cls-4,.cls-5,.cls-8{fill:none;}.uno120,.uno121,.uno123,.cls-4,.cls-5,.cls-6,.cls-7,.cls-8,.cls-9{stroke:#000;}.uno123,.cls-4,.cls-7,.cls-8{stroke-linecap:round;stroke-linejoin:round;}.uno120,.uno121,.cls-4,.cls-5,.cls-6,.cls-7{stroke-width:3px;}.uno120,.uno121,.uno122,.uno124,.cls-5,.cls-6,.cls-9{stroke-miterlimit:10;}.cls-6,.cls-7{fill:#b3b3b3;}.uno120,.cls-9{fill:#00081f;}.uno122,.cls-9{stroke-width:0.75px;}.uno121{fill:#e98300;}.uno122{stroke:#aa4700;}.uno123{fill:#6f0000;stroke-width:2px;}.uno124{stroke:#fff;}</style></defs><g id="Capa_2" data-name="Capa 2"><g id="Capa_1-2" data-name="Capa 1"><rect class="uno12" width="585" height="750"/><g id="t-lee"><path class="dos12" d="M311.54,566a33.32,33.32,0,0,0,5.4-4.94,20.52,20.52,0,0,0,3.43-6.65c1.77-5.25,3.5-10.59,3.57-16.19,0-1.93-3-1.93-3,0-.06,5.18-1.7,10.12-3.33,15a17.53,17.53,0,0,1-3.05,6,35.71,35.71,0,0,1-5.14,4.61c-1.52,1.2.61,3.31,2.12,2.13Z"/><path class="tres12" d="M309.58,557.7a66.36,66.36,0,0,1,.31,15.62c-.54,6.28,8.23,7.68,11.19,3l10.16-16-11.18-3a103.43,103.43,0,0,1-5.38,26.91c-2.2,6.49,7.65,10.49,11,4.63l5.75-10.18H321c.36.75-7,9.39-7.82,10.9a38.44,38.44,0,0,0-3.85,13.6l11.18-3q-6.3-11.24-13.63-21.82c-4.45-6.42-13.52-1-10.36,6.06,2,4.42,3.69,12,8,14.69,5,3.19,9.06-.78,11-5.15A68,68,0,0,0,320.21,577c.89-5.56,2.38-11.65.81-17.19-1.6-5.69-10-5.72-11.57,0a21.93,21.93,0,0,0-.09,10.74c.35,1.69.93,3.34,1.12,5.06.36,3-1.3,2.52,2.07,3l4.19,4.19c-1.53-4.22-1.09-10.11-1.52-14.58l-1.5-15.5c-.66-6.85-9.29-8-11.78-1.6a120.53,120.53,0,0,0-3.92,13c-.58,2.19-1.16,4.39-1.88,6.53q-.56,1.68-1.23,3.3-1.71,3,.49.16h6.06c-1.27-.84-1.93-4.89-2.29-6.37a72.63,72.63,0,0,1-1.43-7.9,97.13,97.13,0,0,1-.6-17,92.08,92.08,0,0,1,2.23-16.19c.61-2.63,1.31-5.24,2.12-7.81.58-1.82,1.53-5.76,2.24-6.64l-5.84,1.54c-1.86-.45-.89-.17-.39,1.18s1.45,2.66,1.94,4.11a12.6,12.6,0,0,1,.13,7.47c-1.27,5.1-3.65,10-5.66,14.86-3.85,9.29-7.17,18.49-8,28.59-.54,6.89,10,7.94,11.78,1.59a410,410,0,0,0,10.72-48c1.21-7.55-10.35-10.8-11.57-3.19a410,410,0,0,1-10.72,48l11.79,1.6c1-12.69,7.41-24,11.72-35.79,2.31-6.3,3.34-12.66,1.06-19.14-1.61-4.59-4.45-11.6-9.66-12.85-1.92-.46-4.5-.11-5.83,1.54-3.25,4-4.69,9.6-6.1,14.53a109.09,109.09,0,0,0-2.24,49.46c1.14,6.07,7.16,24.32,16.31,15.64,3.08-2.92,4.35-8.75,5.48-12.69,1.57-5.46,2.75-11,4.81-16.32l-11.79-1.59,1.68,17.44c.48,5,.08,11.17,1.77,15.83.65,1.8,2.08,3.9,4.19,4.19,5.73.78,10.48-2.53,12.4-8a17.9,17.9,0,0,0,.48-9c-.56-3.39-2.17-6.77-1.22-10.21H309.45c1.18,4.18-.62,10.19-1.43,14.35a68.75,68.75,0,0,1-1.68,6.94c-.35,1.17-.74,2.33-1.19,3.47-.74,1.84-2.37,2.93.18,1.26l4.62-.6-.82-.31,3.59,2.76c-2.43-3.79-4-8.43-5.81-12.54l-10.36,6.06q7.33,10.59,13.63,21.82c3.17,5.64,10.57,2.48,11.18-3,.72-6.45,4.24-10.54,8-15.46,3.59-4.67,4.57-9.71,2-15.1-2-4.13-8.28-3.69-10.36,0l-5.75,10.18,11,4.62a115.59,115.59,0,0,0,5.81-30.1c.39-6.24-8.17-7.75-11.18-3l-10.17,16,11.18,3a79,79,0,0,0-.74-18.81c-1.14-7.62-12.7-4.38-11.57,3.19Z"/><path class="tres12" d="M296.15,528.23a88.28,88.28,0,0,1-.4,19.7c-.87,6.64,10.83,8.29,11.79,1.6,1.91-13.43,3.92-26.84,8-39.81l-11.79-1.6a199.38,199.38,0,0,1,.21,27.76c-.57,8.89-2,17.41-.8,26.31.8,5.9,10.43,5.53,11.57,0a46.7,46.7,0,0,0,1-8.57c.15-7.72-11.85-7.72-12,0a28.54,28.54,0,0,1-.55,5.38h11.57c-1.12-8.19.9-16.84,1.34-25a200.9,200.9,0,0,0-.32-25.85c-.49-6.65-9.68-8.26-11.78-1.59-4.1,13-6.11,26.38-8,39.81l11.78,1.59a88.28,88.28,0,0,0,.4-19.7c-.69-7.63-12.7-7.7-12,0Z"/><path class="tres12" d="M318.48,532.61a56.13,56.13,0,0,1,8.89-19.46l-11.18-3c-1.05,9.32-.13,18.81.41,28.14q.42,7.08.92,14.15c.34,4.82,1.09,9.83.18,14.62l11.78,1.6a355.66,355.66,0,0,1,5.25-52.2L323,514.84c-.8,19-5.61,38.21-20.06,51.49l10.24,4.24c.52-8.11,1-16.23,2-24.31.44-3.8,1-7.6,1.69-11.37.61-3.32.9-8.8,3-11.52l-10-2.65c2.35,6.55,1.88,13.81,1.84,20.68,0,7.61-.41,15.21-1,22.79h12a114.92,114.92,0,0,1,9-44.08l-8.21,2.16q-1.85-3.67-1.12,0c.07,1.23.12,2.45.15,3.68,0,1.84,0,3.68,0,5.53,0,4,.31,7.36,2.12,11,2.36,4.69,9.69,3.35,11-1.44a89.06,89.06,0,0,0,3-26.8l-11.18,3c2,3.93,1.47,10,1.71,14.33s.37,8.55.27,12.83a83,83,0,0,1-4.82,26.84c-1.59,4.31,3.24,8.65,7.38,7.38,8.92-2.75,11.28-13.63,10.27-22-1.31-10.85-16-8.62-23.12-6.23-7.28,2.46-4.15,14.05,3.19,11.58,2-.69,4.35-1.68,6.53-1.76l1.62,0q3.42,1.53-.1-2.05c-1.66.9,1.08,8.08-1.58,8.9l7.38,7.38c3.74-10.19,5.18-21,5.28-31.86,0-5.2-.21-10.39-.61-15.57-.41-5.44-.57-10.86-3-15.81-2.66-5.34-11.42-2.78-11.19,3A78,78,0,0,1,324,537.84l11-1.43c-1-2-.46-4.64-.44-6.76,0-2.75,0-5.53-.25-8.28-.33-4-1.19-7.17-4.76-9.46-2.49-1.6-6.95-.75-8.21,2.15a130.19,130.19,0,0,0-10.67,50.13c-.11,7.82,11.4,7.61,12,0,.66-8.22,1-16.45,1-24.7,0-7.3.22-15-2.28-22-1.35-3.74-7-6.53-10-2.65-5.62,7.2-6.37,17.28-7.56,26.07-1.33,9.83-2,19.72-2.64,29.62-.35,5.47,6.66,7.54,10.24,4.24,16.78-15.42,22.65-37.9,23.58-60,.28-6.64-10.6-8.33-11.79-1.6a377.09,377.09,0,0,0-5.68,55.39c-.18,6.62,10.49,8.33,11.79,1.59,1.88-9.82,0-20.18-.56-30.08s-1.64-20.09-.52-30c.73-6.51-8.16-7.32-11.19-3a65.4,65.4,0,0,0-10.09,22.33c-1.82,7.5,9.74,10.71,11.57,3.19Z"/><path class="tres12" d="M378.49,588.82c-1.2-9.93-1.67-20.33-4-30.07-2.26-9.45-7.12-18.62-11.25-27.37A61.65,61.65,0,0,0,328,499.27c-7.27-2.64-10.41,9-3.19,11.57,13.66,5,22.85,15.28,28.79,28.25,3.39,7.4,7.36,14.9,9.28,22.85,2.1,8.7,2.5,18,3.57,26.88.91,7.57,12.92,7.66,12,0Z"/><path class="tres12" d="M377,576.63q-4.86-19.47-10.05-38.85c-2-7.45-13.58-4.29-11.57,3.19q5.19,19.38,10.05,38.85c1.87,7.48,13.44,4.31,11.57-3.19Z"/><path class="tres12" d="M389.73,586.4c-1.15-8.24-2.56-16.45-5.6-24.23s-7.43-14.75-11.94-21.71c-4.68-7.23-9.37-14.45-14.34-21.47-4.82-6.8-9.87-14.61-16-20.26-5.62-5.15-14.89-3.68-21.91-3.86l-13.16-.34c-3.52-.1-7.35-.61-10.7.78-7.25,3-7.37,11.66-1.59,16.18,2.75,2.15,6.08,2.94,9.5,3.24,1.82.16,3.63.13,5.45.13l3.7,0q3.56.6.37-1.36V505l-.29.26h8.48l-.19-.21c-5.24-5.69-13.71,2.82-8.48,8.49l.19.21c2.26,2.45,6.18,2.13,8.48,0l.29-.27a6.05,6.05,0,0,0,0-8.48c-3.88-3.81-10.9-1.95-15.83-2.14-.92,0-2.49-.56-3.28-.38q-2.56-1-2,3.91h1.26c2.8.94,7.36.2,10.33.27l10.34.27c2.79.08,6.72-.53,9.39.25,4.8,1.4,9.15,9.32,12.14,13.38,7.61,10.31,14.69,21.1,21.44,32,7.24,11.68,10.57,23.51,12.47,37,1.07,7.61,12.63,4.37,11.57-3.19Z"/><path class="tres12" d="M283.86,504.43l-.14.58,1.54-2.65a21.17,21.17,0,0,0-4,4.46c-1.09,1.79-2.42,2.67-4,4-3.68,3.13-5.46,7.56-7.06,12-2.63,7.28,9,10.41,11.57,3.19a18.89,18.89,0,0,1,2.43-5.23c1.18-1.5,3-2.41,4.36-3.72,1.57-1.51,2.23-3.55,3.61-5.13.81-.91,2.73-1.95,3.29-4.33,1.75-7.51-9.81-10.72-11.57-3.19Z"/><path class="tres12" d="M270.05,523.42c-4.7,10.56-9.71,21.08-13.39,32.05a106,106,0,0,0-4,15.69c-.77,4.54-1.18,9.53-4.73,12.82-4.12,3.81-.61,9.82,4.24,10.24a29.43,29.43,0,0,0,10.68-1.06L255.52,589l.3,1.26c1.83,7.52,13.28,4.33,11.57-3.19-1-4.5,1.07-8.91,2-13.26,1.05-4.89.89-9.82,1.56-14.74,1.31-9.72,6.52-19.23,10.19-28.23,2.91-7.15-8.69-10.26-11.57-3.19C265.43,537.76,260.11,548,259,559c-.57,5.36-.82,10.45-2.2,15.69s-2.14,10.16-.93,15.5L267.39,587l-.3-1.26a6.09,6.09,0,0,0-7.38-4.19,19.93,19.93,0,0,1-7.49.63l4.24,10.24c7.87-7.28,7.42-18.88,10.13-28.51,3.37-11.94,8.8-23.18,13.83-34.47,3.11-7-7.23-13.11-10.37-6.06Z"/><path class="tres12" d="M251.2,569.86q-1.56,5.6-3.5,11.07c-1.08,3.06,1.22,6.57,4.19,7.39,3.32.91,6.29-1.13,7.38-4.2q1.94-5.48,3.5-11.07a6,6,0,0,0-11.57-3.19Z"/><path class="tres12" d="M287.93,513.83c3-5,6.12-9.91,9.51-14.66,1.66-2.32,3.36-4.62,5.14-6.87.95-1.2,1.9-2.39,2.9-3.56.62-.74,2-1.5.78-1.16a14.49,14.49,0,0,1,7.17.31c2,.76,3.74,3.29,5.3,4.85l13.48,13.44,4.24-10.24a44,44,0,0,1-14.19-4.3c-4.22-2.13-8.21-5.05-12.8-6.38-3.45-1-7.44-.72-9.92,2.18a7.67,7.67,0,0,0,.5,10.71c5.72,5.17,14.23-3.29,8.49-8.48q-5.88,6.19-1.41,7.5a10.17,10.17,0,0,1,1.61.73c1.28.62,2.49,1.36,3.73,2.05a75.91,75.91,0,0,0,7.65,3.84,61,61,0,0,0,16.34,4.15c5.38.67,7.61-6.88,4.24-10.24-5.82-5.82-11.48-11.89-17.51-17.48-5-4.6-11.52-5.23-18.07-4.49-6.8.78-10.4,7.19-14.22,12.21a208,208,0,0,0-13.32,19.83c-4,6.66,6.41,12.7,10.36,6.06Z"/><path class="tres12" d="M331.51,720.36c-2.47-10.25-8.86-19-11.41-29.16-1.32-5.24-.86-10.78-1-16.13-.18-6.33-.61-12.64-1.21-19l-7.59,5.79c1.07.29,3.19,2.76,4.89,3.4a8.44,8.44,0,0,0,2.91.59c5.32.06-1.46-1.62-1.34-1.71-.79.63,1.35,9.69,1.56,11q.81,5.16,1.84,10.28c2.49,12.59,4.93,26.78,11.85,37.81l5.18-9-3.6,0q1.95,1.17-.06-1.29c-.73-2.28-2.43-4.6-3.53-6.74-2.08-4.08-4.22-8.14-5.44-12.57-2.47-9-2-18.45-4.27-27.47-1.91-7.48-13.49-4.31-11.57,3.19,2.93,11.47,2,23.3,6.8,34.36,2.4,5.51,5.24,10.84,8.11,16.12,1.22,2.25,2.41,4.66,4.87,5.73s5.94.66,8.69.64c4.42,0,7.64-5.11,5.18-9-3.68-5.87-5.34-12.57-7.06-19.21q-3-11.49-5-23.2c-.65-3.84-1.21-7.69-1.71-11.56-.39-3-.78-5.86-3.24-7.93a7.61,7.61,0,0,0-3.76-1.76c-.58-.09-4.65-.31-2.85.36s-1.14-1.51-1.48-1.75a11.7,11.7,0,0,0-3.82-1.82c-3.47-.93-8,1.81-7.6,5.78.6,6.31,1,12.62,1.21,19,.18,5.94-.11,11.91,1.09,17.76,2.21,10.85,9.18,20,11.77,30.72,1.82,7.51,13.39,4.33,11.57-3.19Z"/><path class="tres12" d="M301.52,665.34c-.16,5.71-.3,11.41-.65,17.11-.33,5.53-1.28,11.1-1.14,16.65.12,4.77.3,9-.77,13.69-1.11,4.93-1.51,9,.6,13.7l6.78-8.82c-4.55-1.24-9.13-2.42-13.76-3.35a19.5,19.5,0,0,0-5.2-.64,7.62,7.62,0,0,0-2.83.63q-4,1.29,2.43,1l1.22,9.42c4.8-4.14,6.24-8.05,7.32-14.09,1.12-6.22,4.26-11.67,7-17.28,6.05-12.39,9.8-25.4,8.88-39.23-.42-6.33-10.46-8.65-11.78-1.59-1.91,10.2-2,20.39-3.16,30.66s-5.21,20.09-7,30.31c-1.13,6.41,7.3,10.81,11,4.62a35.73,35.73,0,0,0,2.88-6.25c2.64-7.27-8.95-10.4-11.57-3.19a13,13,0,0,1-1.67,3.39l11,4.62c1.78-10.14,5.56-19.81,7-30s1.24-20.69,3.16-31l-11.79-1.6c.81,12.29-2.5,23.66-8,34.64a104.7,104.7,0,0,0-6.28,14,66.12,66.12,0,0,0-1.65,7.86c-.51,2.6-1.79,3.87-3.79,5.6-3.19,2.76-1.65,7.32,1.22,9.42s5.49.25,8.46.24c4.33,0,9.59,2.22,13.76,3.36,5.46,1.48,8.82-4.25,6.77-8.82-.6-1.35.51-3.94.8-5.25a60.87,60.87,0,0,0,1.12-6.43c.48-4.44-.28-8.84,0-13.28.54-10.06,1.45-20,1.72-30.13.2-7.72-11.8-7.72-12,0Z"/><path class="tres12" d="M295.66,585c6.6,9.78,7.32,25.21,5.69,36.56-1,7.13-2,14.21-2.38,21.41-.27,5.61-1.48,13.13,2.31,17.82a8.58,8.58,0,0,0,13.78-.37c3.07-4.45,2.21-12,2.43-17.13.3-6.95,2-13.6,2.39-20.5.48-7.63-.43-14.48,2-21.91H310.34c1.4,4.85.91,9.83.85,14.82-.08,5.66.07,11.33.42,17,.61,9.68.93,20.3,5.75,28.95,3.16,5.68,10.55,2.45,11.18-3a28.51,28.51,0,0,0-4.85-19.42c-4.32-6.34-14.73-.34-10.36,6.06a18.51,18.51,0,0,1,3.21,13.36l11.18-3c-4.49-8.08-4.05-19.56-4.39-28.55-.37-9.63,1.29-20-1.42-29.34-1.7-5.85-9.73-5.53-11.57,0a50.61,50.61,0,0,0-2.53,16.38,120.38,120.38,0,0,1-1.52,18.39c-.8,5.67-.78,11.42-1.12,17.12,0,.69-.61,4.16-.31,4.49l6-.39,0-1.18c1-2,.07-7.21.18-9.53.56-11.46,3.53-22.72,2.73-34.22C313,598.51,311.91,587.69,306,579c-4.3-6.37-14.7-.37-10.36,6.06Z"/><path class="cls-4" d="M289.5,513.3c-8.35,45.59-3.57,63,3,70a35.89,35.89,0,0,1,6,8c4.85,8.88,4.36,17.34,3.5,29.5-2.52,35.47-3.83,47.32-7,59-1.61,6-3.11,10.38-4,13-2,6-5,11-8,17-2,4-3,8-6,12a180.41,180.41,0,0,0-28.38-1.25c-5.84.31-11.05.4-17.2,2.59a44.58,44.58,0,0,0-8.92,4.36,10.76,10.76,0,0,0-6,7,10.64,10.64,0,0,0,1.5,8.3,33.53,33.53,0,0,0,10.5,4.7c4,1,7.13,1,12,1a111,111,0,0,0,12.73-.75c15.5-2,26.65-5,39.77-7a197.68,197.68,0,0,1,22-2,3.49,3.49,0,0,0,1-2c0-4-1-6-3-9a8.75,8.75,0,0,1-2.5-.5v-6q0-63.75,1-127"/><path class="cls-4" d="M299.5,476.3a267.75,267.75,0,0,0-58,166,16.74,16.74,0,0,0-3.81,6.18c-.58,1.74-.51,2.56-1.19,6-.85,4.3-1.25,4.48-1.5,6.3-.8,5.75,2,12.31,4.5,12.5,1.36.1,2.63-1.82,3.5-3.5a22,22,0,0,0,2.69-8.06c.56-3.63.81-8.44.81-8.44-.28,2-.64,4.74-1,8-.85,7.68-.77,9.75,0,12,.29.84,2,5.83,5,6,2.3.13,4.11-2.64,5-4a15.46,15.46,0,0,0,2.09-10.12,21.14,21.14,0,0,0-1.09-4.88s.6,2.49,1,4c2.13,8.06,3.19,12.11,6,13,2.13.68,4.66-.66,6-2a7.87,7.87,0,0,0,2-4c1.46-5.8-1.18-11.22-2.31-13.55a29,29,0,0,0-2.69-4.45l4,7c.39.18,3.38,1.51,6,0s2.95-5.08,3-6c.25-4.54-3.37-9.14-9-12a221.83,221.83,0,0,1-3-28,198.77,198.77,0,0,1,3-48,184.15,184.15,0,0,1,19-53"/><path class="cls-5" d="M320.5,477.3a184.83,184.83,0,0,1,17,16c7.93,8.47,13.1,15.74,19,24,2.82,4,7,9.83,12,18a185.32,185.32,0,0,1,12,22,148,148,0,0,1,9,27,196.73,196.73,0,0,1,5,56h-30c.3-2.21.67-5.3,1-9a226.26,226.26,0,0,0,0-36c-1-14.54-1.52-21.8-4-32a149.31,149.31,0,0,0-10-28,154.48,154.48,0,0,0-10-18"/><path class="cls-5" d="M316.5,739.3c.89,1.68,4.79,1.21,7,1,.73-.07,6.15,0,17,0,2.06,0,2.69.08,13,1,11.51,1,18.67,1.64,27,2,10.12.44,14.93.2,19-3,1.06-.83,3.52-2.83,4-6,.67-4.46-3.06-8.09-4-9-4-3.93-9.31-4.62-14-5a133.2,133.2,0,0,0-30,1c-8.8,1.36-10.18,2.21-26,5-5.08.89-9.26,1.57-12,2a10.46,10.46,0,0,0-1,3c-.36,2.07.17,2.78,0,6C316.42,738.74,316.3,738.91,316.5,739.3Z"/><path class="cls-5" d="M344,722.8c-1.89-5.28-4.44-12.82-7-22a363.4,363.4,0,0,1-9-43c-1.41-8.78-3-18.64-4-32-.77-9.93-1-18.44-1-25a22.94,22.94,0,0,1,2-5,40.41,40.41,0,0,1,6-8,121.33,121.33,0,0,0,7-10c7-10.6,3.35-55.82,3-60"/><path class="cls-5" d="M242.5,642.3H271"/><path class="cls-4" d="M321.5,726.3c-1.11-2.06-2.51-4.77-4-8-.81-1.75-1.84-4-3-7-.9-2.33-2-5.37-3-9"/><path class="cls-5" d="M310,727.3a91.89,91.89,0,0,1-32.5-5"/><path class="cls-4" d="M365,640.8a38.42,38.42,0,0,0-3.5,7.5c-1.36,4-2,6-1,8,1.3,2.49,4.88,4,7,3,3-1.49,2.51-8,3-8,.87,0-1.25,20.54,5,23a5.42,5.42,0,0,0,5-1c1.86-1.53,1.94-4.17,2-8a36.65,36.65,0,0,0-1-9c.13,1,2.38,17.46,8,18a4.74,4.74,0,0,0,4-2c1-1.47.69-3.14-1-10-1.31-5.34-2-8-2-8s.49,2.12,1,4c1.19,4.32,1.81,6.5,3,7,1.62.68,3.86-.64,5-2,2.22-2.65,1.15-6.49,1-7-.36-1.22-.74-1.41-2.2-5-.64-1.56-.51-1.37-.8-2-1.22-2.7-2.29-3.15-3-5a7.29,7.29,0,0,1-.5-3.5"/><path class="cls-6" d="M245.5,592.3a41.21,41.21,0,0,0,22,1c-.34,6.9-.47,12.83-.5,17.5-.1,14.43.62,20.84,2,27,.38,1.68.74,3.06,1,4,1.15,1.92,2.58,5,1.5,7.5-3.4,8.07-30.23,7.51-33,0-.9-2.46.86-5.39,2.5-7.5a227.61,227.61,0,0,1,4.5-49.5Z"/><path class="cls-7" d="M389.84,589.8a52.45,52.45,0,0,1-25,1c.39,7,.53,13,.57,17.68.12,14.58-.7,21-2.27,27.27-.43,1.7-.85,3.09-1.14,4a15.34,15.34,0,0,0,3.5,7.5c7,7.85,23.18,7.49,28,0a11.15,11.15,0,0,0,1.45-7.5,203.38,203.38,0,0,0-1.13-26.26A207.06,207.06,0,0,0,389.84,589.8Z"/><path class="cls-8" d="M265.5,594.3l-20,3,20,4-21,3,21,3-22,4h24l-25,6h24l-25,7,25,3-25,3,26,3-26,4,27,3-27,2,28,2-30,5,30,2"/><path class="cls-8" d="M368,592.3l22,3-22,4,23.14,3-23.14,3,24.24,4H365.75l27.55,6H366.86l27.55,7-27.55,3,27.55,3-28.66,3,28.66,4-31.91,3,31,2-30,2,30,4-24,3"/><path class="cls-9" d="M403,731.78a25.65,25.65,0,0,0-6.38-.55,24.34,24.34,0,0,0-4.79.68"/><path class="cls-9" d="M402.81,728.27a25,25,0,0,0-11.17.12"/><path class="cls-9" d="M400.71,725.19a25.05,25.05,0,0,0-11.17.12"/><path class="cls-9" d="M216.91,737.46a24.78,24.78,0,0,1,11.12-1"/><path class="cls-9" d="M216.69,734a24.81,24.81,0,0,1,11.13-1"/><path class="cls-9" d="M218.47,730.67a24.76,24.76,0,0,1,11.12-1"/><path class="cls-9" d="M316.5,733.3c-1.42-.58-1.43-1.44-3-2-2.38-.85-4.17.5-7,1-1,.17-2.58.33-8-1a123.93,123.93,0,0,1-15-5c-10.72-4-12.55-4.53-15-5a63.28,63.28,0,0,0-10-1c-7.15-.33-10.72-.49-12,1-2.49,2.9,1.56,7.63-1,15a17.45,17.45,0,0,1-2,4c-2,.11-4.53.19-7.46.15-1.08,0-2.6-.05-4.54-.15-4.77-.26-6.14-.78-10-1a53.38,53.38,0,0,0-6,0,17,17,0,0,0,5,6,17.28,17.28,0,0,0,7,3c11.59,2.4,24,0,24,0,27.74-5.38,26.54-5.24,31-6a182.38,182.38,0,0,1,29-3,43.67,43.67,0,0,1,6,0c2.67.25,3.72.68,6,1a33,33,0,0,0,8,0c3.53-.27,8.73.13,19,1,24.76,2.09,28.22,3.78,37,2,2.1-.43,7.8-.22,12-4,1.77-1.6,3.61-4.13,3-5s-2.57.25-6,1c-3.23.7-10.79,2.34-14-1-.52-.54-.71-1-2-6-.85-3.28-1.52-6-2-8-1.63,0-4.06-.1-7,0a93.22,93.22,0,0,0-22,3c-2.18.58-.46.22-12,4-14.59,4.78-12.61,3.81-13,4C321.7,732.65,319,734.34,316.5,733.3Z"/><path class="uno120" d="M312.5,729.3q1,5,2,10"/><path class="uno121" d="M280.5,714.3c1.85-2.53,1.67-4.35,3-10a53.94,53.94,0,0,1,3-10c3.07-7,5.7-6.59,7-12,1-4,0-6.44,2-8,.58-.46,2.39-.64,6-1a22.67,22.67,0,0,1,7,0,6.69,6.69,0,0,1,3,1c2.49,1.85,2.13,6.27,2,8-.56,7.64.27,15.34,0,23-.21,6-.89,12-1,18-.08,4.56,0,5.74-1,7a6.16,6.16,0,0,1-1.58,1.27c-6.46,3.55-23.42-4.27-23.42-4.27-5.83-2.69-11.28-5.26-11-8C275.68,717.5,278.14,717.53,280.5,714.3Z"/><path class="uno121" d="M345.58,714.3c-1.85-2.53-1.67-4.35-3-10a53.94,53.94,0,0,0-3-10c-3.07-7-5.7-6.59-7-12-1-4,0-6.44-2-8-.58-.46-2.39-.64-6-1a22.67,22.67,0,0,0-7,0,6.74,6.74,0,0,0-3,1c-2.49,1.85-2.12,6.27-2,8,.56,7.64-.27,15.34,0,23,.22,6,.89,12,1,18,.09,4.56,0,5.74,1,7,4.48,5.49,19.78-.84,25-3,3.34-1.38,11.34-4.69,11-8C350.4,717.5,348,717.53,345.58,714.3Z"/><path class="uno122" d="M299.5,675.3a91.14,91.14,0,0,1-12,49"/><path class="uno122" d="M296.5,675.3a91.14,91.14,0,0,1-12,49"/><path class="uno122" d="M302.5,675.3a108.17,108.17,0,0,1-7,52"/><path class="uno122" d="M306.5,675.3a161.43,161.43,0,0,1-2,55"/><path class="uno122" d="M325,675.3a91.14,91.14,0,0,0,12,49"/><path class="uno122" d="M328,675.3a91.14,91.14,0,0,0,12,49"/><path class="uno122" d="M322,675.3a108.17,108.17,0,0,0,7,52"/><path class="uno122" d="M318,675.3a161.43,161.43,0,0,0,2,55"/><path class="uno123" d="M290.5,583.3c8.88,3.45,22,2,22,2,5.4-.6,13.45-1.38,24-2a15.81,15.81,0,0,0,6-8c-2.79,0-7.34,0-13,0-9.09,0-10.67-.17-15,0-6.55.25-7.7.69-14,1q-7.49.36-15,0a8.35,8.35,0,0,0,2,5A7.62,7.62,0,0,0,290.5,583.3Z"/><path class="uno124" d="M301.49,576.42c-1.42,2.08-.48,5.78,1.55,7.75,1.76,1.72,4.79,1.67,10.86,1.56,3.2-.06,5.24-.56,9.31-1.56a5.11,5.11,0,0,0,3.1-1.55,5.56,5.56,0,0,0,0-6.2c-1.3-1.8-3.48-1.69-14-1.55C304.2,575,302.49,574.94,301.49,576.42Z"/><path d="M316.37,578.2a4.5,4.5,0,0,0-1.89-1.45,5.35,5.35,0,0,0-2.75-.52,3.4,3.4,0,0,0-2.39,1.28,4,4,0,0,0-.77,2.41,3.54,3.54,0,0,0,2.75,3.62,2.55,2.55,0,0,0,3.09-2.5,2.59,2.59,0,0,0-1.13-2.07,1.41,1.41,0,0,0-1.5-.14,1,1,0,0,0-.35,1.31c.32.6,1.23.07.9-.53.08.14-.06.08.14.13a.92.92,0,0,1,.31.16,1.26,1.26,0,0,1,.4.49,1.53,1.53,0,0,1,.1,1.24,1.71,1.71,0,0,1-2.33.72,2.78,2.78,0,0,1-1.31-2.84,2.44,2.44,0,0,1,2.26-2.25,4.52,4.52,0,0,1,2.16.45,3.24,3.24,0,0,1,1.4,1,.54.54,0,0,0,.72.19.54.54,0,0,0,.19-.72Z"/><path d="M308.49,579a9.77,9.77,0,0,0-1.55,2.35,9.17,9.17,0,0,1-1.46,2.27.52.52,0,0,0,.23.87,1.83,1.83,0,0,0,1.28-.08l1.23-.4c.86-.25,1.73-.47,2.61-.65a.52.52,0,0,0,.36-.64.53.53,0,0,0-.64-.37q-1.23.25-2.43.6c-.39.11-.77.23-1.15.36s-.66.3-1,.17l.23.88c1.31-1.34,1.72-3.28,3-4.62.47-.48-.27-1.23-.75-.74Z"/><path d="M316.33,578.78a13,13,0,0,1,3.81-2.48.52.52,0,1,0-.28-1,14.27,14.27,0,0,0-4.27,2.75.52.52,0,0,0,0,.74.53.53,0,0,0,.74,0Z"/></g></g></g></svg>