<svg xmlns="http://www.w3.org/2000/svg" viewBox="0 0 585 750.84"><defs><style>.uno12,.ci1{fill:#fff;}.uno12{opacity:0;}.dos12{fill:#e6e6e6;}.tres12{fill:#36362f;}.cu1{fill:#1a1e11;}.se1{fill:#1b1f12;}.si1{fill:#1a1a1a;}.oc1{fill:#680000;}.uno120,.nu1{fill:none;stroke:#000;stroke-width:3px;}.nu1{stroke-linecap:round;stroke-linejoin:round;}.uno120{stroke-miterlimit:10;}</style></defs><g id="Capa_2" data-name="Capa 2"><g id="Capa_1-2" data-name="Capa 1"><rect class="uno12" width="585" height="750"/><g id="t-traje"><path class="dos12" d="M294.9,499.77c.2.66.38,1.32.53,2,0,.17.07.33.11.5s.07.34,0,.22c.08-.31.05-.34-.08-.11a1.88,1.88,0,0,0-.16.23,3.18,3.18,0,0,0,.49,3.68,1.53,1.53,0,0,0,2.36-.31,11.57,11.57,0,0,0,1.75-3.6,2.32,2.32,0,0,0-.45-2.21,5.66,5.66,0,0,1-.76-1.16,11.13,11.13,0,0,1-.66-7.06c.43-1.88-2.46-2.69-2.89-.8a14.24,14.24,0,0,0,.28,7.66,7.11,7.11,0,0,0,1.68,3.2c.24.3.21.16-.09-.43,0,.15-.1.31-.15.46a7.92,7.92,0,0,1-.31.75,12.33,12.33,0,0,1-1,1.68l2.36-.31c-.09-.09,0-.15.13-.27a2.49,2.49,0,0,0,.49-1.49,13.54,13.54,0,0,0-.78-3.43c-.56-1.84-3.46-1.05-2.89.8Z"/><path class="dos12" d="M313.81,494.22c0,.92-1,1.77-1.57,2.43a29.39,29.39,0,0,0-2,2.45c-1.13,1.7-.14,3.38,0,5.23.31,4.43.58,8.85.87,13.28a1.53,1.53,0,0,0,1.9,1.45c1.19-.39,1.59-1.23,2.25-2.19a15.28,15.28,0,0,1,2.47-2.42c2-1.79,2.82-3.91,3.77-6.32,1.94-4.94,5.59-9,7.25-14.06a1.51,1.51,0,0,0-1.45-1.89c-2.67,0-5.34-.1-8-.12-1.78,0-5.28.41-4.53,3.07.29,1,1,1.85,1.39,2.84a10.69,10.69,0,0,1,.63,3.11,10.83,10.83,0,0,1-1.69,6.26l2.8.76c-.2-1.61-.41-3.21-.59-4.82a8.11,8.11,0,0,1,.26-4.29l-2.8-.76a54.93,54.93,0,0,1-1.56,9.63h2.89c-.47-3.4,1.66-6.77,2.63-9.92l-2.89-.8-2.12,8,2.94.4,0-5.68a1.52,1.52,0,0,0-2.8-.76c-1.51,2.85-2.74,5.86-1.21,9a1.52,1.52,0,0,0,2.74-.36,9.09,9.09,0,0,0-.06-3.78,9.44,9.44,0,0,1-.37-3.69l-2.95-.4c.27,4.53-.83,9,1,13.33a1.51,1.51,0,0,0,2.36.3,34.72,34.72,0,0,0,4.47-6.41,1.51,1.51,0,0,0-2.36-1.82,14.29,14.29,0,0,0-3.64,5.72,1.51,1.51,0,0,0,2.5,1.46,30.12,30.12,0,0,0,4.9-7.95c1.39-3,2.62-6.12,3.89-9.19l-2.94-.4a1.55,1.55,0,0,1-.67,1.23,3.46,3.46,0,0,1-1.06.51c-.26.08-.79.06-1,.21-.35,0-.3.12.14.41.32.53.44.52.34,0a5.36,5.36,0,0,0,.1-1,6.82,6.82,0,0,1,.78-2.1L318.05,493l-.73,4.73a1.52,1.52,0,0,0,2.51,1.46,7.05,7.05,0,0,0,1.48-1.91c.38-.64.65-1.21,1.43-1.35l-1.69-2.21-3.75,6.23c-.86,1.42,1.23,3.13,2.36,1.81l.9-1c1.25-1.46-.86-3.59-2.13-2.12l-.89,1,2.35,1.82,3.75-6.22a1.53,1.53,0,0,0-1.7-2.21,4.05,4.05,0,0,0-2.44,1.56,14.59,14.59,0,0,1-1.8,2.47l2.51,1.46.73-4.73c.24-1.56-1.86-2.76-2.74-1.15-1,1.78-2.76,7.23.89,7.24,2.87,0,6-1.86,6.05-5,0-1.82-2.34-1.86-2.95-.39-1.18,2.83-2.31,5.68-3.6,8.46a27.45,27.45,0,0,1-4.42,7.35l2.51,1.46a11.14,11.14,0,0,1,2.87-4.4l-2.36-1.81a31.45,31.45,0,0,1-4,5.8l2.35.3c-1.58-3.67-.39-8-.62-11.81-.09-1.6-2.58-2.14-2.94-.4a9.44,9.44,0,0,0,.06,3.78,9.25,9.25,0,0,1,.37,3.69l2.74-.36c-1-2,.29-4.19,1.21-5.93l-2.79-.76,0,5.68a1.51,1.51,0,0,0,2.95.4l2.12-8a1.5,1.5,0,0,0-2.89-.8c-1.19,3.86-3.21,7.35-2.63,11.52.21,1.51,2.55,1.34,2.89,0a59.34,59.34,0,0,0,1.67-10.43c.1-1.44-2.18-2.11-2.8-.76-1.51,3.33-.5,7.15-.07,10.63a1.51,1.51,0,0,0,2.79.75,13.67,13.67,0,0,0,1.43-11.5,7.41,7.41,0,0,0-1.18-2.6c-.25-.61-.47-.43-.64.55a2.27,2.27,0,0,1,.77-.22,12.18,12.18,0,0,1,1.71,0l7.54.12-1.44-1.9c-1.49,4.55-4.7,8.25-6.64,12.59-.89,2-1.37,4.23-2.94,5.82-.78.79-1.67,1.46-2.45,2.26a10.22,10.22,0,0,0-.95,1.12,9.18,9.18,0,0,1-.66,1.09l1.89,1.45c-.29-4.49-.53-9-.88-13.48-.08-1-.39-1.91-.47-2.84s-.32.23.1-.69a8,8,0,0,1,1.22-1.46c1.21-1.45,2.79-2.89,2.75-4.92s-3-1.93-3,0Z"/><path class="dos12" d="M314.06,485.1a11.15,11.15,0,0,1,.62,2.21,5.33,5.33,0,0,1,.09,1c0,.39-.12.76-.11,1.14,0,2.07,3.13,1.81,4.53,1.75a89.2,89.2,0,0,1,10.08,0,1.51,1.51,0,0,0,1.06-2.56,22.24,22.24,0,0,0-5.1-3.18,15.21,15.21,0,0,1-2.09-1.57,13.46,13.46,0,0,0-1.23-.91c-.18-.12-.38-.22-.56-.33-.6-.34.15.17,0,.54l-.38.66.1-.12-1.82.23c.23.16.41.68.56.91a12.8,12.8,0,0,0,1,1.3c.42.5,1.36,1.28,1.32,2l.2-.76-.08.14.54-.54c.28-.14,0,0-.09,0s-.42,0-.63,0c-.43,0-.85-.05-1.28-.08a17.33,17.33,0,0,0-2.39,0c-.88.06-2,.05-2.54.91-.16.27-.09.71-.24.93a1.15,1.15,0,0,1-.57.29l1.46,2.51,2.1-2.19a11.2,11.2,0,0,0,1.83-2.12,3.51,3.51,0,0,0-1.49-4.76l-1.15,2.74a17.9,17.9,0,0,1,6.47,4.09l.66-2.5q.27,0-.12-.09l-.51-.18-1-.36c-.63-.22-1.27-.45-1.9-.69s-1.26-.47-1.88-.72a6.42,6.42,0,0,1-.76-.29c.31.33.36.35.17,0l-.22-.41c-.89-1.72-3.48-.2-2.59,1.51a3,3,0,0,0,1.6,1.65c.87.35,1.75.69,2.63,1s1.69.62,2.53.92a5.12,5.12,0,0,0,2.87.49,1.52,1.52,0,0,0,.66-2.51,21.36,21.36,0,0,0-7.79-4.86,1.48,1.48,0,0,0-1.77.86,1.52,1.52,0,0,0,.61,1.88c.78.47.34.83-.18,1.37-.95,1-1.91,2-2.87,3a1.51,1.51,0,0,0,1.46,2.5,4.3,4.3,0,0,0,1.92-1.1,3.19,3.19,0,0,0,.61-.93,2.84,2.84,0,0,0,.17-.49,2.33,2.33,0,0,0,.05-.44L317.56,490c1.8-.71,7.63,1.41,7.59-2,0-1.42-1-2.58-1.91-3.59s-1.38-2.27-2.47-3a1.49,1.49,0,0,0-1.81.24,2.27,2.27,0,0,0,.61,3.48c.45.29.93.52,1.36.85s.82.69,1.24,1c1.87,1.5,4.29,2.11,6,3.79l1.06-2.56c-2.15-.15-4.31-.14-6.46-.13-1.07,0-2.14,0-3.22.08a8.46,8.46,0,0,1-3-.12l.66.39-.06-.06.44,1.06c0-.25.11-.77.11-1.14a11.31,11.31,0,0,0-.15-1.54,12.35,12.35,0,0,0-.67-2.45,1.55,1.55,0,0,0-1.85-1.05,1.51,1.51,0,0,0-1,1.85Z"/><path class="dos12" d="M302.19,478.35a24,24,0,0,0-3.05.25,1.26,1.26,0,0,0-.51.27,1.18,1.18,0,0,0-.38.42l-.15.36a1.12,1.12,0,0,0,0,.6,1.42,1.42,0,0,0,.41.86,1.56,1.56,0,0,0,1.06.44h.58a1.59,1.59,0,0,0,1.06-.44,1.52,1.52,0,0,0,.44-1.06,1.46,1.46,0,0,0-.44-1.06,1.5,1.5,0,0,0-1.06-.44h-.58l.4,2.95.21,0-.4,0a18.08,18.08,0,0,1,2.44-.17,1.58,1.58,0,0,0,1.06-.44,1.56,1.56,0,0,0,.44-1.06,1.54,1.54,0,0,0-.44-1.06,1.56,1.56,0,0,0-1.06-.44Z"/><path class="dos12" d="M295,497.54c.21.66.39,1.33.54,2,0,.17.07.34.1.51s.07.34,0,.21c.07-.3,0-.34-.09-.11a1.2,1.2,0,0,0-.15.24,3.14,3.14,0,0,0,.49,3.67,1.51,1.51,0,0,0,2.35-.3,11.87,11.87,0,0,0,1.76-3.61,2.33,2.33,0,0,0-.45-2.21,4.69,4.69,0,0,1-.76-1.15,11.16,11.16,0,0,1-.67-7.07c.44-1.88-2.46-2.68-2.89-.8a14.38,14.38,0,0,0,.29,7.67,7.3,7.3,0,0,0,1.67,3.2c.24.3.21.15-.08-.43l-.15.45c-.1.26-.2.51-.32.76a11.29,11.29,0,0,1-1,1.67l2.36-.3c-.08-.1.05-.15.13-.27a2.47,2.47,0,0,0,.49-1.5,13.45,13.45,0,0,0-.77-3.42c-.57-1.84-3.47-1.06-2.9.79Z"/><path class="dos12" d="M314,492c0,.92-1,1.76-1.57,2.43a29.37,29.37,0,0,0-2,2.44c-1.13,1.71-.14,3.38,0,5.24.32,4.42.59,8.85.88,13.28a1.51,1.51,0,0,0,1.9,1.44c1.18-.38,1.59-1.22,2.25-2.18a15.29,15.29,0,0,1,2.46-2.43c2-1.78,2.82-3.9,3.77-6.31,1.94-4.94,5.6-9,7.25-14.06a1.51,1.51,0,0,0-1.44-1.9c-2.68,0-5.35-.1-8-.12-1.78,0-5.29.42-4.53,3.08.28,1,1,1.85,1.39,2.84a10.29,10.29,0,0,1,.62,3.1,10.71,10.71,0,0,1-1.68,6.26l2.79.76c-.19-1.6-.4-3.2-.59-4.81a8.15,8.15,0,0,1,.26-4.3l-2.8-.75a54.29,54.29,0,0,1-1.55,9.63h2.89c-.48-3.41,1.66-6.78,2.62-9.93l-2.89-.8-2.12,8,2.95.4,0-5.68a1.51,1.51,0,0,0-2.8-.76c-1.5,2.84-2.74,5.86-1.2,9a1.51,1.51,0,0,0,2.74-.36,9.39,9.39,0,0,0-.06-3.77A9.51,9.51,0,0,1,315,498l-2.94-.4c.26,4.54-.84,9,1,13.33a1.5,1.5,0,0,0,2.35.3,35,35,0,0,0,4.47-6.4,1.51,1.51,0,0,0-2.36-1.82,14.26,14.26,0,0,0-3.64,5.71,1.51,1.51,0,0,0,2.51,1.46,29.52,29.52,0,0,0,4.89-8c1.4-3,2.62-6.11,3.9-9.18l-3-.4a1.55,1.55,0,0,1-.66,1.23,3.52,3.52,0,0,1-1.07.51c-.26.08-.79.06-1,.2-.35,0-.3.13.15.41.32.53.43.53.34,0a8.06,8.06,0,0,0,.1-1,7.11,7.11,0,0,1,.77-2.09l-2.74-1.16-.73,4.73a1.52,1.52,0,0,0,2.51,1.46,6.94,6.94,0,0,0,1.49-1.91c.37-.64.65-1.21,1.43-1.35l-1.7-2.2-3.74,6.22c-.86,1.43,1.22,3.13,2.35,1.82l.9-1c1.25-1.46-.86-3.59-2.12-2.12l-.9,1,2.36,1.82,3.74-6.23a1.51,1.51,0,0,0-1.69-2.2,4.06,4.06,0,0,0-2.44,1.55,15.41,15.41,0,0,1-1.8,2.48l2.51,1.46.73-4.73c.24-1.56-1.86-2.77-2.75-1.16-1,1.79-2.76,7.23.9,7.24,2.86,0,6-1.86,6-5,0-1.82-2.33-1.86-2.94-.4-1.18,2.83-2.31,5.69-3.6,8.47a27.4,27.4,0,0,1-4.42,7.34l2.5,1.46a11.09,11.09,0,0,1,2.88-4.39l-2.36-1.82a30.84,30.84,0,0,1-4,5.8l2.36.31c-1.58-3.67-.4-8-.62-11.82-.1-1.6-2.58-2.14-2.95-.39a9.26,9.26,0,0,0,.07,3.78,9.44,9.44,0,0,1,.37,3.69l2.74-.36c-1-2,.28-4.2,1.21-5.94l-2.8-.75,0,5.68a1.51,1.51,0,0,0,3,.39l2.11-8a1.5,1.5,0,0,0-2.89-.8c-1.18,3.87-3.2,7.35-2.62,11.53.21,1.51,2.55,1.34,2.89,0A58.55,58.55,0,0,0,317.87,496c.11-1.44-2.18-2.11-2.79-.76-1.51,3.32-.5,7.15-.08,10.62a1.52,1.52,0,0,0,2.8.76,13.63,13.63,0,0,0,1.42-11.5,7.24,7.24,0,0,0-1.18-2.6c-.25-.62-.46-.43-.64.55a2.4,2.4,0,0,1,.78-.22,9.65,9.65,0,0,1,1.7,0l7.55.11-1.45-1.9c-1.49,4.55-4.7,8.26-6.64,12.59-.89,2-1.37,4.23-2.93,5.83-.78.79-1.68,1.46-2.46,2.25a10,10,0,0,0-.94,1.12,9.87,9.87,0,0,1-.67,1.1l1.9,1.45c-.3-4.5-.54-9-.89-13.49-.08-1-.39-1.9-.47-2.84s-.32.23.11-.69a7.9,7.9,0,0,1,1.21-1.45C315.41,495.47,317,494,317,492s-3-1.93-3,0Z"/><path class="dos12" d="M318.12,483.06a25.11,25.11,0,0,1,3.48,1.74c.27.16.53.33.79.51l.44.31c.26.18-.15-.13.12.09a12.69,12.69,0,0,1,1.47,1.37l1.06-2.56-.4,0-.2,0c-.28,0,.4.06.12,0l-1.05-.21a19.17,19.17,0,0,1-2.35-.69l-.6-.24c-.28-.11.29.13,0,0l-.26-.12a10.48,10.48,0,0,1-1.05-.55l-.41-.28c-.23-.16.28.25,0,0l-.19-.17-.14-.15c-.14-.14,0-.16.07.11,0-.12-.15-.24-.2-.36a1.51,1.51,0,0,0-2.05-.54,1.55,1.55,0,0,0-.54,2.06,4.47,4.47,0,0,0,1.78,1.8,13.49,13.49,0,0,0,2.57,1.23,14.38,14.38,0,0,0,4.87,1.1,1.52,1.52,0,0,0,1.06-2.56,19.43,19.43,0,0,0-6.9-4.49,1.54,1.54,0,0,0-2.05.53,1.52,1.52,0,0,0,.53,2.06Z"/><path class="dos12" d="M314.58,484a6.38,6.38,0,0,1,.16,1.47c0,.63,0,1.25,0,1.87a1.51,1.51,0,0,0,1.1,1.45c4.46,1.07,9,.06,13.54.21a1.52,1.52,0,0,0,1.06-2.56c-1.49-1.39-3.56-2.21-5.32-3.22-.5-.28-1-.57-1.48-.88l-.68-.45-.34-.25c-.36-.26.21.18-.12-.09-.17-.15-.34-.29-.5-.45s-.44-.54-.23-.22c-.11-.17-.25-.62-.15-.2,0-.16,0-.29,0,.09,0-.13.05-.35,0,.1l-2.74.36a31.3,31.3,0,0,0,1.84,2.6c.27.36.54.72.78,1.1a4.76,4.76,0,0,1,.28.49c-.14-.3,0,.45,0-.08l.2-.75a1.26,1.26,0,0,1-.58.5c-.19.11,0,0-.29.11a5,5,0,0,1-.53.11c.26,0-.18,0-.23,0l-.63,0h-1a4.76,4.76,0,0,0-4.37,2.18,1.5,1.5,0,0,0,2.35,1.81l.32-.3,0,0c.31-.18,0-.16-.84.05l-.66-.38,0,0-.44-1.06a.94.94,0,0,1,.41-.91c.11-.08.1-.07,0,0s0,0-.27.09l1.46,2.5a29.93,29.93,0,0,0,3.42-3.52c1.13-1.59,1.32-3.71-.29-5.06a1.55,1.55,0,0,0-2.13,0,1.52,1.52,0,0,0,0,2.12,3.21,3.21,0,0,1,.31.27c-.06-.07-.05-.05,0,.07-.06-.17-.06-.17,0,0s0,.15,0,0,0-.1,0,0,.11-.14,0,.09-.05.16-.07.25c.06-.16.06-.15,0,0s-.14.25-.22.37a3.11,3.11,0,0,1-.45.61c-.83.95-1.82,1.72-2.7,2.61A1.51,1.51,0,0,0,316,489.7c1.13-.31,2.56-1.29,2-2.66-.74-1.67-2.5-.76-3.42.15L316.9,489c.21-.35-.09,0,.16-.25,0,0,.35-.28.16-.15,0,0,.36-.19.21-.12s.24-.07.3-.09.32-.07.11,0c.14,0,.3,0,.45,0s.57,0,.86,0a7.22,7.22,0,0,0,3.89-.73,3.69,3.69,0,0,0,1.67-1.86,2.91,2.91,0,0,0-.5-2.11c-.79-1.38-1.93-2.55-2.75-3.91-.62-1-2.51-1-2.75.36-.45,2.53,2.26,4.15,4.11,5.25,1.09.66,2.23,1.26,3.35,1.88.46.26.93.52,1.39.8l.55.36c.3.19,0,0,0,0s.15.14.2.18l1.06-2.56c-4.21-.14-8.59.9-12.74-.1l1.1,1.44a15.14,15.14,0,0,0-.3-4.14c-.54-1.85-3.44-1.06-2.89.8Z"/><g id="patas"><path class="tres12" d="M283.5,728.29c-7-2-13.94-4.56-21.22-5.11-7.11-.53-14.72-1.07-21.85-.48-10.66.88-29.9,8.61-19.21,21.89l2.65-10-1.07.17,4.62.61-1-.56,2.76,3.59-.38-1L220,744.13c.85.53,2,3,3.24,3.87,2.19,1.54,4.61,1.69,7.22,1.52,6.94-.45,13.85-1.09,20.81-1.32,12.28-.42,24.41-.45,35.57-6.27,4.47-2.33,3.55-9.88-1.44-11-8.48-1.84-17.74-1.16-26.37-1.07-9,.09-17.94.21-26.9-.33-7.72-.47-7.69,11.53,0,12,8.32.5,16.64.44,25,.35,8-.08,17.2-1.09,25.1.62l-1.43-11c-9.11,4.75-19.53,4.3-29.51,4.63-5.3.17-10.58.53-15.86.93-1.31.1-2.67.11-4,.31-2-.22-2.57-.09-1.59.41.5.38.53.31.12-.21-1.42-1.42-2.13-2.76-3.93-3.87-4.2-2.58-10.68,1.77-8.81,6.78,1.73,4.62,5,6.38,9.79,5.58s5.14-6.92,2.64-10q-1.17,3.43,1,1.66c1-.46,2-.9,3-1.31a26.28,26.28,0,0,1,6.8-1.75c4.27-.46,8.69,0,13,.13s8.67,0,12.87,1c4.72,1.12,9.38,2.67,14,4,7.43,2.14,10.61-9.43,3.19-11.57Z"/><path class="cu1" d="M295.32,734.65a15.42,15.42,0,0,0-5.41.36,47.27,47.27,0,0,0,7.14-3"/><path class="tres12" d="M296.16,725.92c-4-.65-8-1.44-12-1.93a17.06,17.06,0,0,0-5.43.09c-1.82.35-3.31,1.2-5.16,1v12h4.78c7.72,0,7.73-12,0-12h-4.78c-7.9,0-7.5,11.17,0,12,3.2.35,5.89-1.33,9-1.25,3.39.1,7,1.11,10.37,1.66s6.42-.84,7.38-4.19c.83-2.86-1-6.85-4.19-7.38Z"/><path class="tres12" d="M284.32,742.38c8.23,1.61,16.12-2.29,24.49-.88,5.26.89,10.91-5.75,5.84-10-2.14-1.8-4.2-2.86-7.08-2.7-7.68.45-7.73,12.45,0,12l-1.41-.81,5.84-10a53.17,53.17,0,0,0-11.82-.74c-4.08.23-8.65,2.41-12.67,1.62-7.54-1.48-10.77,10.08-3.19,11.57Z"/><path class="tres12" d="M321,741.35a325.23,325.23,0,0,1,34.59-4.88c10.8-.91,23.38-2.81,34-.05,2.62.69,2,1.44,2.91-2.35.95-4,.55-3-2.72-2.94-2.58,0-5.17.11-7.76.15a77.93,77.93,0,0,1-16.69-1.46c-11.46-2.28-22.82-2.5-34.47-2.25-7.71.17-7.75,12,0,12,10.65,0,20.83,2.51,31.38,3.1a25.54,25.54,0,0,0,13.5-2.52c2.06-1.12,3.67-2.78,5.62-4s3.79-1.72,5.06-3.71a7.47,7.47,0,0,0-2.15-9.91c-4.07-2.94-10-.84-14.59-.39-11.41,1.13-22.88,1.59-34.08,4.27-7.5,1.8-4.32,13.37,3.19,11.57a136.45,136.45,0,0,1,20.61-3c3.11-.26,6.23-.49,9.35-.79,1.86-.17,3.73-.37,5.59-.6l1.86-.24q4.82.13-.74-5.57l2.75-3.59c-3.39,1.73-6.27,5-9.91,6.09-3.46,1-7.35.36-10.83-.18a178.46,178.46,0,0,0-26.61-2.52v12c7.55-.16,15.16-.38,22.69.41s14.59,3,22.07,3.28c6.37.26,14,.82,20.26-.47,5.63-1.16,9.05-7,6-12.3s-11-6.34-16.63-6.87c-7.26-.69-14.71-.15-22,.29a351.3,351.3,0,0,0-45.46,5.87c-7.57,1.47-4.37,13,3.19,11.57Z"/></g><path class="ci1" d="M255.32,635.53a5.54,5.54,0,0,1,.22.69l.06.32,0,.17c0-.2,0-.24,0-.13,0,.47.07.94.1,1.4a7.93,7.93,0,0,0,.73,3.22,1.51,1.51,0,0,0,2.74-.36,22.11,22.11,0,0,1,.86-3.41c.1-.27.19-.54.3-.8a4.37,4.37,0,0,1,.18-.46l0-.08c.24-.56.51-1.11.8-1.64a1.51,1.51,0,0,0-.54-2.05,1.52,1.52,0,0,0-2.05.53,23.14,23.14,0,0,0-2.48,7.11l2.74-.35-.1-.2.07.15c-.06,0-.08-.23-.1-.31s-.1-.42-.14-.64c-.06-.37,0,.34,0,0l0-.33c0-.23,0-.45,0-.67a9.53,9.53,0,0,0-.47-2.91,1.64,1.64,0,0,0-.69-.9,1.5,1.5,0,0,0-2.21,1.69Z"/><path class="dos12" d="M255.84,635.85a4.18,4.18,0,0,0,4.88,1.66,7.07,7.07,0,0,0,2.53-1.46c.35-.29.68-.6,1-.91l.51-.45.27-.22c.24-.21-.15.1.13-.1l-2.26-1.3,0,4.11a1.5,1.5,0,0,0,3,0c0-.32,0-.63,0-.95,0-.11,0-.1,0,0,0-.09,0-.19.05-.29a3.67,3.67,0,0,1,.09-.43c.07-.28.15-.56.25-.84,0,0,.16-.42.06-.18.08-.18.17-.36.26-.53l-2.8-.76a17,17,0,0,1,.11,2.36c0,.37,0,.74,0,1.1l-.06.63c0,.18,0,.21,0,.07,0,.1,0,.21,0,.31l2.95.4,0-.66a1.5,1.5,0,0,0-3,0l0,.66a1.51,1.51,0,0,0,2.95.4,20.21,20.21,0,0,0,.16-5.27,1.53,1.53,0,0,0-1.1-1.44,1.51,1.51,0,0,0-1.69.69,10.12,10.12,0,0,0-1.16,4.7h3l0-4.11a1.51,1.51,0,0,0-2.26-1.29c-.69.51-1.33,1.08-2,1.66l-.41.36-.21.17c-.32.27.13-.07-.07.06l-.45.3c-.12.07-.35.26-.49.26.07,0,.26-.09.06,0l-.2.06c-.07,0-.35.13-.42.1s.31,0,0,0h-.43c-.05,0-.28-.05-.06,0s-.08,0-.1,0l-.2-.06c-.24-.06.09,0,.08,0l-.17-.1-.17-.1s.26.25,0,0c-.06-.08-.08-.18,0,0s0,0-.05-.1a1.51,1.51,0,0,0-2.05-.54,1.54,1.54,0,0,0-.54,2.05Z"/><path class="dos12" d="M269.71,636a2.73,2.73,0,0,1,.93-2.21c3.45-4.8-3.84-9.71-7.85-6.06l-.36.33,3.54-1.47c-6.19.75-12.59-.9-18.74-.64-5.73.23-6.19,6.55-6.83,10.92-.39,2.7.63,5.34,3.5,6.15,3.29.94,7.35-.06,10.75-.22,4-.18,8-.23,12-.2l-4.82-6.33-.15.85c-1.09,6.3,8.54,9,9.65,2.66l.14-.85c.56-3.17-1.32-6.3-4.82-6.33s-6.92,0-10.38.14c-1.59.06-3.19.14-4.78.23-1.35.09-3.65.77-4.9.41l3.49,6.15c.21-1.46.36-4.63.93-5.84l-3,2.3c.84-.33,3.67.4,4.71.43,2.38.07,4.77.09,7.15.14,3.51.06,7.22.78,10-1.76L262,628.7a10.8,10.8,0,0,0-1.94,4.6c-1.13,6.29,8.51,9,9.64,2.66Z"/><path class="dos12" d="M385,639.76l.71.57c2,1.62,5.12,2.19,7.07,0,3.72-4.18.8-9.92,1.28-14.91L392.55,629l.35-.35-3.53,1.47h.46c6.43-.06,6.44-9.94,0-10Q380.4,620,371,619.7c-2.91-.09-4.72,2.38-5,5-.2,1.89.63,3.47.64,5.28,0,2-.76,4.21-1.13,6.13-.57,3,1.35,6.58,4.82,6.33l12.59-.89c2.61-.18,5.56,0,7.53-2,4.59-4.81-2.31-11.34-6.4-13.54-5.06-2.71-13.61-.65-11.77,6.68.66,2.65,3,4.38,5.5,5.18s7.76.15,9.17,2.69c3.13,5.62,11.77.59,8.64-5a12.09,12.09,0,0,0-6.74-5.56,24.15,24.15,0,0,0-4.37-.95c-.91-.1-1.82-.24-2.72-.42-2.07-.84-1.94-.2.41,1.9L380.67,634c-1.47,1.56-1.77.29,0,1.86l.82.83q1.46,2,.37-.7l2.48-4.31c-.26.18-5.11.14-6.19.21l-7.87.56,4.83,6.33c.47-2.47,1.05-4.95,1.37-7.45.29-2.29-.76-4.48-.53-6.62l-5,5q9.42.3,18.86.37v-10c-8.78.09-4.85,11-5.21,16.24l1.47-3.54-.43.49h7.07l-.71-.57c-5-4-12.08,3-7.07,7.07Z"/><path class="cu1" d="M307.45,621.33c.72,17.91-.3,37.06,4.88,54.39,1.15,3.88,2.61,7.7,3.44,11.66s.71,8.16.89,12.28a64,64,0,0,0,6,24.35c3.24,7,13.58.92,10.37-6.06-3.53-7.64-4.22-15.24-4.53-23.53-.28-7.71-2.44-14.56-4.63-21.89-4.86-16.26-3.78-34.38-4.45-51.2-.32-7.7-12.32-7.74-12,0Z"/><path class="cu1" d="M298.5,714.32c7.72,0,7.74-12,0-12s-7.73,12,0,12Z"/><path class="cu1" d="M293.34,705.66l-.55,1.22a4.62,4.62,0,0,0-.71,2.24,4.53,4.53,0,0,0,.11,2.39,4.47,4.47,0,0,0,1.07,2,4.55,4.55,0,0,0,1.69,1.54l1.43.61a6.16,6.16,0,0,0,3.19,0l1.43-.61a6.09,6.09,0,0,0,2.16-2.15l.54-1.23a4.35,4.35,0,0,0,.71-2.23,4.52,4.52,0,0,0-.1-2.39,6.81,6.81,0,0,0-2.76-3.59l-1.43-.6a6,6,0,0,0-3.19,0l-1.44.6a6.09,6.09,0,0,0-2.15,2.16Z"/><path class="cu1" d="M294,724.84a33.69,33.69,0,0,0,7.33-10.69c2.27-5.32-2.5-11.26-8.21-8.21a25,25,0,0,0-6.37,4.72,27.49,27.49,0,0,0-2.32,2.85l-.81,1.18c-1.17,1.31-.67,1.59,1.48.84V727.1c4.89-.93,9.83-.15,14.76,0,3.89.1,8.31.4,11.16-2.7,4.52-5-1.2-12.91-7.27-9.43-5,2.89-5.41,10.17.08,12.86,3.32,1.62,7.88.42,8.81-3.59a12.64,12.64,0,0,0,.18-6.2c-.36-1.45-1.46-2.91-1.72-4.35-.57-3.08,2.08-7.62,2.57-10.78,1.21-7.91-.66-16.09,1.79-23.81l-11,1.44c1.69,2.85,2.2,6,2.76,9.17.25,1.51.71,10.41,1.8,10.89-.41-.18,4.63-3.82.07-2.3a8.19,8.19,0,0,0-5.4,5c-.48,1.17-2.09,4.7.49,2.73-6.05,4.62-.08,15,6.06,10.36a10.14,10.14,0,0,0,3.59-4c.43-1,1.14-2.42.9-3.5.31-1.07.09-1.09-.66,0-1,.68-1.08.9-.25.66,3.6,1.07,7.14-4.92,7.33-7.6.3-4.3-1.36-9.34-2.06-13.58-.82-4.91-1.7-9.54-4.27-13.86-2.71-4.56-9.42-3.43-11,1.43-2.5,7.87-1,15.69-1.84,23.71-.41,3.9-2.36,7.23-2.94,11a13,13,0,0,0,0,4.73c.3,1.48,2.27,4.22,1.93,5.66l8.82-3.58,1,.94.6,4.62.31-.84-2.76,3.59.77-.45-7.27-9.42c1.78-1.94-1.17-.77-2.67-.81-2.14,0-4.28-.23-6.41-.33a49.08,49.08,0,0,0-11.54.8c-5.77,1.1-5.67,10.39,0,11.57,9.25,1.92,10.55-7.2,17.27-10.8L291,708.09a25.15,25.15,0,0,1-5.46,8.27c-5.45,5.48,3,14,8.49,8.48Z"/><path class="cu1" d="M317,703.51a52.15,52.15,0,0,0,.4,12.85L329,713.17l-1.79-4.3-11,4.62c3,4,2.5,8.89,5.79,12.8,1.38,1.65,3.87,2,5.84,1.54a43,43,0,0,1,9.32-1.06c4.13,0,8-5.24,5.19-9-6.43-8.52-8.19-20-10.72-30.13-2.85-11.44-5.24-23-6-34.75h-12a123.51,123.51,0,0,0,4.5,24.94c2.16,7.4,13.75,4.25,11.57-3.19a107.94,107.94,0,0,1-4.07-21.75c-.61-7.62-12.49-7.75-12,0,.8,12.86,3.29,25.47,6.4,37.94,2.77,11.12,4.87,23.66,11.92,33l5.18-9a58.52,58.52,0,0,0-12.51,1.49l5.83,1.54c.65.77-.08-.55-.08-1a11.68,11.68,0,0,0-.77-3.5,21,21,0,0,0-3.05-5.87c-3.64-4.93-13.82-2.2-11,4.63l1.79,4.3c3,7.17,12.64,4.5,11.57-3.19a40,40,0,0,1,0-9.66c.81-7.67-11.2-7.62-12,0Z"/><path class="cu1" d="M294.77,706.9c-.49.93-.93,1.09-1.35,1.89-.16.32-.19.25-.18.24-.2.16,1.49-.12-.27.08a17.59,17.59,0,0,0-7.83,2.58,6,6,0,0,0,6.05,10.37c2.17-1.4,4.72-.86,7.42-2.3a16.55,16.55,0,0,0,6.52-6.8,6.13,6.13,0,0,0-2.15-8.21,6.06,6.06,0,0,0-8.21,2.15Z"/><path class="cu1" d="M292.93,720a330.33,330.33,0,0,0,15.84-39.75A161,161,0,0,0,314,661c1-5.34,3.45-14.16.17-19a6.09,6.09,0,0,0-10.37,0c-2.29,3.71-1.18,8.51-1.7,12.68-.68,5.55-2.39,10.89-3.72,16.3-2.42,9.8-1.34,20.33-1.26,30.34.06,7.94,11.07,7.44,12,0,1.13-9,2-18.09,2.47-27.18.24-4.5.35-9,.49-13.5.11-3.92-.24-9,2.2-12.34l-5.18,3a25.34,25.34,0,0,1,8.73.5l-4.19-4.19c1.31,3.15,1.46,7.34,2,10.69,1.3,7.6,12.87,4.38,11.57-3.19-.59-3.46-.75-7.41-2-10.69-1.52-3.91-4.51-4.44-8.28-4.77-3.27-.28-7.87-1.28-10.86.47s-4.2,5.83-4.88,9c-1.73,8.14-1.16,16.74-1.6,25-.49,9.09-1.34,18.15-2.47,27.18h12c-.07-9.22-1.2-19.08,1.06-28.09,1.11-4.37,2.38-8.69,3.15-13.14.42-2.42.77-4.87,1-7.32.1-1.27.15-2.55.15-3.83q.15-3.4-.27-.88H303.77c-.18-1.6-.26-1.72-.24-.38,0,.61,0,1.22-.07,1.82-.09,1.59-.22,3.17-.44,4.75a88,88,0,0,1-1.8,8.95c-1.36,5.56-3.05,11.06-4.86,16.49A306.47,306.47,0,0,1,282.57,714c-3.27,6.95,7.07,13,10.36,6.06Z"/><path class="cu1" d="M306,572.8v-1.42c0-7.74-11.72-7.7-12,0-.23,1.51-.12,1.67.33.49l3.58-2.75a9.86,9.86,0,0,1-3.46.43,6.05,6.05,0,0,0-3,11.18c1.23.76,2,3.81,2.54,5q1.62,3.57,3.07,7.21c1.87,4.64,3.55,9.35,5.11,14.11a6.08,6.08,0,0,0,11,1.43c3.1-4.76,2.42-12.23,2.71-17.7.26-5,1.32-11.89-1.76-16.24a6.88,6.88,0,0,0-11.53.32c-2.83,4.59-1.41,10.82.63,15.34,1.58,3.49,7,3.82,9.43,1.21,3.94-4.24,7.88-8.48,12.73-11.72L316.51,573c-1,5.73-4.63,10.5-5.59,16.25-.92,5.48,5.55,10.58,10,5.84,4.34-4.59,7-10.58,11.89-14.63l-10-2.65c1.12,4.33-7.18,12.54-8.91,17.07a35.42,35.42,0,0,0-1.9,9.58c-.15,1.66-.21,3.32-.37,5a23.73,23.73,0,0,1-.3,2.52q-1.23,3.08,1.21.38l4.62-.61c3.82,1.48-.47-2.84-1.35-4.2l-4.13-6.35c-3.09-4.75-11.4-3.2-11.18,3a123.92,123.92,0,0,0,5,30.9c1.36,4.6,8.67,6.31,11,1.44a172.48,172.48,0,0,0,6.6-16l-11.79-1.6c.3,4.15-.49,8.24-.32,12.38a38.15,38.15,0,0,0,2.77,11.83c2.19,5.88,12.3,5.65,11.79-1.6l-.85-12a6.08,6.08,0,0,0-9-5.18,22.44,22.44,0,0,0-6.86,5.13,28.54,28.54,0,0,0-2.37,3.1c-.41.62-2,2.13-.55,1.54l7.59,5.79a98.34,98.34,0,0,1,.22-23.57c.45-3.23-.78-6.4-4.19-7.38-2.8-.8-6.93,1-7.38,4.19a110.43,110.43,0,0,0-.65,26.76c.36,3.43,3.62,7.37,7.6,5.78,5.79-2.31,7.22-8.27,12.65-11l-9-5.18.85,12,11.78-1.59c-1.28-3.44-2.37-6.7-2.34-10.41s.58-7,.32-10.61a6,6,0,0,0-11.78-1.59,141.34,141.34,0,0,1-5.39,13.13l11,1.43a110.31,110.31,0,0,1-4.53-27.71l-11.18,3,6.19,9.52c1.63,2.51,3,5.35,6,6.36,6.81,2.29,9.07-5.38,9.76-10.4.44-3.29.43-6.64.92-9.92.55-3.64,2.08-6,4.17-9,3.77-5.32,7.74-12.5,6-19.18-1.21-4.7-6.7-5.41-10-2.65-5,4.1-7.55,10-11.9,14.64l10,5.83c1-5.73,4.59-10.51,5.59-16.25.82-4.71-4.06-9.95-8.81-6.78-5.73,3.82-10.49,8.58-15.16,13.6l9.42,1.21a5.62,5.62,0,0,1-.52-2.74c.51-1.93.3-1.81-.62.34l-4.24,1.76.69.07-4.24-1.75q-1.2-2.64-.56.33c0,1.07.06,2.14,0,3.21,0,1.81-.14,3.62-.23,5.42-.17,3.13.54,9.17-1.07,11.65l11,1.43q-3.18-9.66-7.15-19c-2.22-5.24-4-11.36-9.09-14.51l-3,11.19c7.48-.27,11.27-2.38,11.55-10.17H294v1.42c0,7.72,12,7.73,12,0Z"/><path class="cu1" d="M314.74,582.85c7.72,0,7.73-12,0-12s-7.74,12,0,12Z"/><path class="se1" d="M306.22,550.81c4.28-3.74,11.19-4,16.36-5.93A62.46,62.46,0,0,0,339,535.53l-9.42-7.27c-2.91,4.7-5.93,9.78-10.47,13.1s-10.89,3.25-16.07,5.69c-6.41,3-1.72,12.36,4.62,11a34.62,34.62,0,0,1,18.55,1.05l-2.64-10c-.91,1.15-4.71,1.08-6.24,1.27l-9.07,1.11v12a181.25,181.25,0,0,1,24.86-1.51l-5.78-7.6c-.8,5.64-4.13,10.38-1.88,16.19,1.51,3.89,6.75,6.31,10,2.64A27.94,27.94,0,0,0,341,563.9c2.73-7.23-8.86-10.36-11.57-3.19a12.38,12.38,0,0,1-2.46,3.95l10,2.65c-1.14-2.95,1.45-6.79,1.88-9.81.54-3.8-1.5-7.56-5.79-7.59a181.25,181.25,0,0,0-24.86,1.51c-7.53,1-7.69,12.93,0,12,4.84-.59,9.68-1.14,14.51-1.77,3.53-.47,7-1.17,9.28-4.13,2.78-3.55,2-8.53-2.65-10a47,47,0,0,0-24.93-1l4.62,11c3.21-1.51,7-1.48,10.3-2.71a29,29,0,0,0,8.18-4.79c5.18-4.22,8.89-10,12.37-15.6,3.86-6.27-4.41-11.15-9.43-7.27a47.2,47.2,0,0,1-17.21,8.17c-5.75,1.5-11,3.13-15.52,7.11-5.82,5.09,2.69,13.55,8.49,8.49Z"/><path class="se1" d="M326.56,547.09c1.75,5,4.92,8.61,7.92,12.92a37.33,37.33,0,0,1,6,14.38l7.38-7.38c-1-.38-3.46-1.08-4-2.18s.15-3.23.31-4.42a53.14,53.14,0,0,0,.16-9.93c-.36-7.74-.86-15.47-1.36-23.2l-10.25,4.24c3.11,2.86,4.79,7.05,6.7,10.75a118.54,118.54,0,0,1,6.08,13.45l11-4.62c-4.06-9.48-10.16-21.25-9.09-31.78l-9,5.18c3.34,1.79,5,7.94,6.29,11.26,1.56,4,3,8.07,4.76,12a93.09,93.09,0,0,0,6.18,11.14c2.34,3.74,5.8,7.94,6.23,12.47l11.19-3a158.81,158.81,0,0,0-13.59-23.77c-3.31-4.78-11.05-3.19-11.18,3-.28,12.91,0,25.8,6.12,37.5,3.6,6.92,13.63.85,10.36-6.05l-15.15-32c-2.94-6.2-12.82-1.81-11,4.63,1.75,6.08,4.62,11.73,7.32,17.43s6.33,11.62,7.26,18l8.82-6.78C359,578.6,355.8,577,353,575c-2.61-1.92-4.07-4.64-5.61-7.42-3.43-6.19-12.28-1.82-11,4.63a44.88,44.88,0,0,0,9.33,19.34c4.82,6,13.26-2.5,8.49-8.48A32.24,32.24,0,0,1,348,569l-11,4.62c2,3.67,4.23,7.19,7.49,9.9,3.44,2.87,7.56,5,11.38,7.25,4.93,3,9.53-1.91,8.82-6.77-1.85-12.58-11.09-23.31-14.59-35.46l-11,4.62,15.15,32,10.36-6.05c-5-9.68-4.71-20.83-4.48-31.45l-11.19,3a158.32,158.32,0,0,1,13.59,23.77c2.46,5.3,11.74,2.79,11.18-3-1.08-11.33-9.66-19.66-14.09-29.76-3.84-8.78-6.12-22.55-15.31-27.48-4.29-2.3-8.57.66-9,5.18-1.3,12.75,5.84,26.42,10.73,37.83,2.65,6.2,13.3,1.76,11-4.62a143.49,143.49,0,0,0-7.3-16.32c-2.4-4.66-4.65-9.56-8.57-13.17-3.57-3.29-10.6-1.22-10.24,4.24s.7,11,1,16.43c.28,4.93,1,10.17.4,15.09-.53,4.38-1.44,8.07,1.09,12.1s6.89,6,11.2,7.68c4.61,1.81,8.18-3.37,7.38-7.38a47.52,47.52,0,0,0-5.4-14.48c-2.53-4.36-6.81-8-8.48-12.82-2.5-7.26-14.1-4.14-11.57,3.19Z"/><path class="se1" d="M340.9,521.38c2.22,3.39,5.5,6,7.55,9.45,2.21,3.72,2.94,8.14,5.11,11.95,5.17,9,10.63,17.91,15.94,26.87,3.93,6.64,14.31.61,10.36-6.06-5.31-9-10.77-17.83-15.93-26.87-2.05-3.59-2.77-7.65-4.76-11.28-2.09-3.84-5.54-6.51-7.91-10.11-4.22-6.43-14.62-.43-10.36,6Z"/><path class="se1" d="M353.66,539l3.45,6.28a38.12,38.12,0,0,1,2.75,5.14,6.16,6.16,0,0,0,7.38,4.19c3-.82,5.27-4.31,4.19-7.38-1.75-5-4.86-9.64-7.41-14.28-3.72-6.77-14.09-.72-10.36,6.05Z"/><path class="se1" d="M363.35,558.19a276,276,0,0,1,13.14,27.09c1.26,3,4,5.09,7.38,4.19,2.84-.75,5.44-4.39,4.19-7.38a302.39,302.39,0,0,0-14.35-30c-3.72-6.77-14.09-.72-10.36,6.05Z"/><path class="se1" d="M390.78,607.41l-6.35-26.33c-1.81-7.51-13.39-4.33-11.57,3.19l6.35,26.33c1.81,7.51,13.39,4.33,11.57-3.19Z"/><path class="se1" d="M372.06,604.5l-.35.17a5.76,5.76,0,0,0-2.86,6,4.38,4.38,0,0,0,.71,2.23l.94,1.22a6,6,0,0,0,2.64,1.54l1.6.21a5.89,5.89,0,0,0,3-.82l.35-.17a4.48,4.48,0,0,0,1.68-1.55,4.58,4.58,0,0,0,1.08-2,4.52,4.52,0,0,0,.1-2.39,4.38,4.38,0,0,0-.71-2.23l-.94-1.21a6,6,0,0,0-2.64-1.55l-1.6-.21a5.89,5.89,0,0,0-3,.82Z"/><path class="se1" d="M378.61,606.5a220.07,220.07,0,0,0-4.07-37.45l-11,4.62c2.74,6,3.71,12.86,5,19.28a27,27,0,0,1,.76,8.44c-.27,2.61-.89,7.37-2.4,9.55l5.18-3h-.3c-7.72,0-7.74,12,0,12l15.93,0c3.68,0,7.09-3.86,5.78-7.59s-1.19-6-.91-9.78c.22-3-.66-6-1.36-8.95-1.4-5.91-2.67-11.78-5.1-17.37-5.38-12.36-12.33-24.19-18.55-36.15-3.56-6.85-13.92-.79-10.36,6.06,5.94,11.41,12.56,22.71,17.8,34.46,2.41,5.4,3.48,11.31,4.84,17,.72,3.05.3,5.19.19,8.25a26.16,26.16,0,0,0,1.88,9.63l5.79-7.6-15.93,0v12c4.59,0,6-3.62,7.15-7.33,1.56-5,2.8-10.33,2.36-15.63a92,92,0,0,0-7.43-29.39c-3-6.53-12.18-1.64-11,4.63a201,201,0,0,1,3.64,34.26c.16,7.71,12.16,7.73,12,0Z"/><path class="se1" d="M387.48,576.15c-.83-5.25-3.62-10.36-5.85-15.14-2.41-5.15-5-10.2-7.7-15.2A209.4,209.4,0,0,0,357,518.65c-4-5.33-13.46-19.93-20.71-10.45-2.8,3.66-2.27,8.62-3.95,12.75-1.53,3.75-3.75,8.95-7.64,10.65L332,541a51.67,51.67,0,0,0,13.83-24.67c1.79-7.51-9.78-10.71-11.57-3.19a39.93,39.93,0,0,1-10.74,19.38c-5.14,5.15,1.34,12,7.27,9.42,4.92-2.14,7.73-6.8,10.17-11.35a48.49,48.49,0,0,0,3.29-7.23c.59-1.73.55-6.87,1.82-8l-5.84,1.54c-1.16-1-1.28-1-.38-.13.59.62,1.18,1.25,1.75,1.89.77.85,1.52,1.71,2.26,2.58,2.07,2.46,4,5,5.84,7.64,3.47,4.94,6.62,10.08,9.61,15.31s5.91,10.65,8.64,16.08c3,5.91,6.92,12.49,8,19.08,1.19,7.6,12.75,4.38,11.57-3.19Z"/><path class="se1" d="M342.87,510.42c1.13-3.95,1.29-8.36-1-11.95a5,5,0,1,0-8.63,5,24,24,0,0,0,5.1,5.93c2.09,1.71,5,2,7.07,0,1.77-1.76,2.1-5.35,0-7.07a15,15,0,0,1-3.54-3.91l-8.63,5a5.77,5.77,0,0,1,.49.84c-.21-.45-.23-.39,0,.17.12-.86,0,.37,0,.62,0,.06-.15,1.57,0,.66a16.4,16.4,0,0,1-.46,2,5,5,0,1,0,9.64,2.65Z"/><path class="se1" d="M271.4,514.39c.09,2.37-.7,4.1-1.49,6.3a11.62,11.62,0,0,0-.39,7c1.64,6.22,11.29,3.58,9.64-2.65-.29-1.1,1-3.14,1.39-4.21a18.14,18.14,0,0,0,.85-6.46c-.26-6.41-10.26-6.44-10,0Z"/><path class="se1" d="M270.59,620c-3.33-8.18.57-16,2.1-24.13,1.48-7.89,1-15.8,3.39-23.56,2.19-7.16,6.06-13.86,6.25-21.5.2-8.23-3-16.67-5.09-24.53-1.32-5-8.1-4.5-9.64,0-5.36,15.62-9.79,31.58-14.52,47.41-2.24,7.52-4.69,15-6,22.8-1.36,8-1.11,15.77-3.8,23.48-1.4,4,2.74,6.63,6.15,6.15a123.48,123.48,0,0,0,12.77-2.47l-4.87-8.35,1-.23,1.32,9.82c6-1.87,6.94-7.15,5.6-12.64-2-8.19-.56-15.84,1.54-23.93a231.37,231.37,0,0,1,15.86-42.85L274,540.42c-5.58,11.82-9.08,24.3-11.85,37-1.39,6.41-2.79,12.85-3.89,19.31-.8,4.73-.09,12.85-3.41,16.6l6.06-.78-.32-.38-2.21,8.36c4.21-1,7.11-.8,10.13-4.43,2.79-3.36,3.35-7.7,3.8-11.9.69-6.4-9.31-6.35-10,0-.17,1.57-.23,4.75-1.69,5.8-1.22.87-3.38.54-4.9.88-4,.9-4.4,5.64-2.2,8.36a8.31,8.31,0,0,0,2.34,2,5.07,5.07,0,0,0,6.06-.78c3.77-4.27,4.54-9.1,5.12-14.59.72-6.9,2.23-13.68,3.63-20.45,2.83-13.63,6-27.3,12-39.94,2.72-5.77-5.82-10.86-8.64-5.05a249.78,249.78,0,0,0-14.62,37.22,133.37,133.37,0,0,0-4.72,20.08c-.26,1.91-1.54,18.75,2.33,17.53-5.19,1.64-4.52,10.08,1.33,9.82a7.76,7.76,0,0,0,6.06-2.7c3.16-3.72.22-9.62-4.86-8.36a123,123,0,0,1-12.77,2.47l6.15,6.15c2.62-7.49,2.47-14.88,3.65-22.6,1.23-8.06,3.84-15.89,6.16-23.69,4.73-15.82,9.16-31.78,14.52-47.41H267.6c2.1,8,6.09,17.27,4.22,25.57-1.7,7.55-5.69,14.28-7.05,22-1.41,8-1.42,15.89-3.46,23.82-1.9,7.4-3.35,15-.37,22.35,2.4,5.88,12.08,3.31,9.65-2.66Z"/><path class="se1" d="M261.88,597c1.1-4.88,2.65-9.89,2.69-14.93,0-5.31-.68-10.49-.32-15.82.43-6.43-9.58-6.4-10,0a129.69,129.69,0,0,0,.26,14.08c.19,4.79-1.23,9.37-2.27,14-1.41,6.27,8.23,9,9.64,2.66Z"/><path class="se1" d="M264.38,566c.29-1,.6-2,1-2.91,0-.11.59-1.44.15-.43.23-.54.48-1.06.73-1.59,1.14-2.35.72-5.51-1.79-6.84-2.24-1.18-5.63-.72-6.84,1.79a46.82,46.82,0,0,0-2.85,7.32,5,5,0,1,0,9.64,2.66Z"/><path class="se1" d="M333,576.21c.5,3.91,1.06,7.81,1.82,11.68.65,3.32,3.06,8.82,1.88,12.08l9.14-1.2a63.2,63.2,0,0,1-3.9-11c-1-3.9-5.58-4.52-8.36-2.21-4.31,3.59-9.75,10.15-9.3,16.17.12,1.62.83,3.61,2.47,4.32,3.68,1.58,4.41,4.51,5.87,8.08q2.65,6.55,5.32,13.09c3.51,8.62,7.8,17.27,9.43,26.49L357,651c-1-5.14-.08-10.38-.16-15.57A98.42,98.42,0,0,0,355,619.71a61.5,61.5,0,0,0-3.37-13.25c-1.82-4.34-5.36-7.71-7.06-12.05-1.62-4.12-8.58-5.34-9.64,0a25.1,25.1,0,0,0,10.69,26.22l1.2-9.14c1.05.48,1.11.31.17-.52l-.78-1a27.52,27.52,0,0,0-3.72-3.68c-1.78-1.44-5.94-2.81-7.17-4.63-3.57-5.31-12.24-.31-8.63,5.05,2.92,4.34,8,5.41,11.48,9.18,3.18,3.47,6,7,11.3,5.25a5.07,5.07,0,0,0,1.2-9.14,14.66,14.66,0,0,1-6.1-14.92h-9.64c1.55,4,4.05,7,6.21,10.66,2.62,4.39,3.33,9.67,4.22,14.64a78.11,78.11,0,0,1,1.51,15.85c-.15,5.27-.5,10.27.53,15.48,1.26,6.35,10.76,3.62,9.65-2.66-1.95-11-7.39-21.45-11.57-31.72-3.15-7.75-5.29-18.31-13.65-21.91l2.48,4.31c-.25-3.28,4.17-7.27,6.37-9.09l-8.36-2.21a78.76,78.76,0,0,0,4.91,13.4c2,4.25,7.82,2.46,9.14-1.19,1.47-4,.27-7.79-.68-11.82a144.6,144.6,0,0,1-2.66-14.6c-.81-6.29-10.82-6.37-10,0Z"/><path class="se1" d="M342.1,593c2.21,8.07-.5,16.12,3.21,24,1.78,3.79,8.37,2.92,9.14-1.19a132.22,132.22,0,0,1,8.05-27.2l-9.32-2.52q.4,12.63-.4,25.24c-.3,4.74,7.34,7.1,9.32,2.52A176.42,176.42,0,0,0,371,588.22l-9.82-1.33a84.12,84.12,0,0,1-1.32,11.64c-.62,3.26-2,6.78-1.75,10.12a7.24,7.24,0,0,0,10.93,5.83l-7.35-3c-.42-1.44-.72-.79-2,.38a10.53,10.53,0,0,0-1.65,1.75c-1.66,2.29-1.73,4.82-1.76,7.56a68,68,0,0,1-3.3,20.07c-2,6.22,7.4,8.58,9.64,2.66A14.28,14.28,0,0,1,364,641.1c2.86-5.16-3.6-9.63-7.86-6.06a7.79,7.79,0,0,0-2.72,4.41l9.14-1.19c-4-6.36-3.19-13.93-2.44-21.09.66-6.46-9.18-6.24-10,0-1.55,11.71-2.72,23.49.86,35,1.79,5.74,9.11,4,9.82-1.33a11.67,11.67,0,0,1,.86-2.9c2.6-5.83-6-10.92-8.64-5a27,27,0,0,0-2.22,7.95l9.82-1.33c-3.3-10.58-1.93-21.51-.5-32.3h-10c-.93,9-1.24,18.22,3.8,26.13a5.06,5.06,0,0,0,9.14-1.19h.15l-7.85-6.06a39.85,39.85,0,0,0-2.36,5.2l9.64,2.66c2.31-7.21,3-14.28,3.66-21.78.15-1.93,0-2.3,1.38-3.73a22.5,22.5,0,0,0,2.64-2.62,7.81,7.81,0,0,0,1.06-6.95,5,5,0,0,0-7.34-3c2.81,2,4.32,2,4.51-.1.23-.91.44-1.82.64-2.73.39-1.83.71-3.66,1-5.51a104.88,104.88,0,0,0,1.05-10.62c.29-5.66-8.41-6.74-9.82-1.33a160,160,0,0,1-7.92,23.25l9.32,2.53q.81-12.62.4-25.24c-.15-4.5-7.26-7.41-9.32-2.53a143.12,143.12,0,0,0-9.05,29.59L354,612c-3-6.43-.32-14.74-2.21-21.63-1.7-6.2-11.35-3.57-9.64,2.66Z"/><path class="se1" d="M360.38,658q.06-.9.18-1.8l-.18,1.33c.1-.7.22-1.39.36-2.08a5.37,5.37,0,0,0-.5-3.85,5.1,5.1,0,0,0-3-2.3c-2.5-.57-5.59.75-6.15,3.49a40,40,0,0,0-.72,5.21,5,5,0,0,0,5,5,5.12,5.12,0,0,0,5-5Z"/><path class="se1" d="M350.21,661.91v.24a3.72,3.72,0,0,0,.43,1.92,4.5,4.5,0,0,0,2.64,2.65,3.88,3.88,0,0,0,1.93.43l1.33-.18a5,5,0,0,0,2.2-1.29l.79-1a5,5,0,0,0,.68-2.52v-.24a5.53,5.53,0,0,0-1.47-3.53,3.77,3.77,0,0,0-1.6-1,3.88,3.88,0,0,0-1.93-.43l-1.33.18a5.05,5.05,0,0,0-2.21,1.29l-.78,1a5,5,0,0,0-.68,2.52Z"/><path class="se1" d="M355,670.56c6.44,0,6.45-10,0-10s-6.44,10,0,10Z"/><path class="se1" d="M352.85,669.91l-.78,1.44a13.19,13.19,0,0,1-.77,1.38l.24-.3-.14.14.3-.24a.27.27,0,0,1-.1.06l.36-.15h-.06l.4,0h-.05l.4,0,0,0,.36.15,0,0,.54.54,0,0,.15.36a.27.27,0,0,1,0-.12l0,.4a10.18,10.18,0,0,1,.07-1.11l.07-1.18.15-2.34a1.49,1.49,0,0,0-1.5-1.5,1.54,1.54,0,0,0-1.5,1.5l-.16,2.53-.08,1.22a3.38,3.38,0,0,0,.11,1.58,1.69,1.69,0,0,0,2.46.74,3,3,0,0,0,1-1.27l1.22-2.23a1.5,1.5,0,0,0-2.6-1.51Z"/><path class="se1" d="M355.44,672.19a20.79,20.79,0,0,0,.33-4.16,1.56,1.56,0,0,0-.44-1.06,1.5,1.5,0,0,0-1.06-.44,1.53,1.53,0,0,0-1.5,1.5,19.3,19.3,0,0,1-.16,3l.05-.4c0,.24-.07.48-.11.72a1.67,1.67,0,0,0,.15,1.16,1.56,1.56,0,0,0,.9.69,1.54,1.54,0,0,0,1.15-.16,1.43,1.43,0,0,0,.69-.89Z"/><path class="si1" d="M325.52,522.33q3.89-8.57,8.36-16.85l-2.74-1.16q-1.81,8-3.59,16a1.5,1.5,0,0,0,2.89.8A56.36,56.36,0,0,0,333.33,494c-.23-1.66-3.09-1.28-2.95.4l.61,7.34a1.5,1.5,0,0,0,3,0c.31-2.37.79-4.79.92-7.18.09-1.58-.47-3.33-2.18-3.72a1.55,1.55,0,0,0-1.85,1,206.19,206.19,0,0,1-9.39,20c-1.6,3-3.22,6-5.08,8.87-1.59,2.46-3.58,4.85-6.52,5.65l1.16,2.74c8.83-5.81,18.57-12.59,20.85-23.66H329c1.67,7.48-5,13.79-7.79,20.1-.57,1.29.65,2.87,2,2.05l5-2.92-1.82-2.35a35.17,35.17,0,0,1-29.57,13.53l.4,2.95c3.94-1.47,6.61-5,9.37-8,3-3.28,6-6.58,8.92-10A120.44,120.44,0,0,0,330.78,499L328,497.88c-2.48,12.85-14.3,20.54-22.31,29.85-1.25,1.46.86,3.59,2.13,2.12,8.36-9.73,20.48-17.74,23.08-31.17.3-1.58-1.91-2.75-2.74-1.16a116.16,116.16,0,0,1-14.45,20.81c-2.69,3.18-5.48,6.27-8.3,9.34-1.4,1.52-2.8,3-4.22,4.54a13.19,13.19,0,0,1-4.74,3.71,1.51,1.51,0,0,0,.4,2.94,38,38,0,0,0,31.7-14.41c1-1.26-.23-3.28-1.82-2.36l-5,2.92,2.05,2c3.22-7.28,10-13.77,8.09-22.4a1.51,1.51,0,0,0-2.89,0c-2.12,10.27-11.28,16.47-19.48,21.86a1.51,1.51,0,0,0,1.16,2.74c3.14-.85,5.46-3,7.34-5.62a80.77,80.77,0,0,0,5.61-9.45,216.08,216.08,0,0,0,10.14-21.5l-1.85,1.05c-.21-.05,0-.16,0,.12s0,.47,0,.71c0,.75-.18,1.51-.28,2.26l-.64,4.92h3l-.61-7.34-2.94.4a53.18,53.18,0,0,1-2.89,25.52l2.89.8q1.77-8,3.59-16c.37-1.6-1.9-2.71-2.74-1.15q-4.47,8.26-8.36,16.84c-.79,1.75,1.79,3.27,2.59,1.52Z"/><path class="si1" d="M282.47,518a14,14,0,0,1-1.63-6.34c0-1.83.2-4.48-2.15-5a1.54,1.54,0,0,0-1.85,1.05,12.05,12.05,0,0,0,.27,4.59l.82,4.6c.43,2.45.64,5.32,2.95,6.79,1.64,1,3.14-1.56,1.52-2.59a3,3,0,0,1-1-1.91c-.26-1.1-.42-2.24-.62-3.36L280.1,512a9.73,9.73,0,0,1-.36-3.55l-1.85,1c.47.1-.16-.19-.16-.19s.07.18.09.25a3.84,3.84,0,0,1,0,.86,19.62,19.62,0,0,0,.11,3,17.83,17.83,0,0,0,1.91,6.08c.9,1.71,3.49.19,2.59-1.52Z"/><path class="si1" d="M293.54,508.83a19.28,19.28,0,0,1,.82-9.62l-9.82-1.33L283,518.67c-.44,6-.24,10.46,2.42,16s10.13,1.38,9.14-3.85c-1.06-5.61-3.69-10.74-4.84-16.33-.57-2.76-1.33-5.83-1.11-8.65.26-3.44,2.48-6.11,4.67-8.64l-8.54-3.53L284.62,522c0,6.44,10,6.45,10,0l.16-28.32c0-4.11-5.63-6.89-8.53-3.54-5.12,5.93-8.32,11.69-7.31,19.69a69.41,69.41,0,0,0,2.57,12.62c1.2,3.7,2.72,7.2,3.45,11l9.14-3.86c-2.25-4.65-1.15-9.71-.79-14.71l1.23-17c.42-5.83-8.17-6.5-9.82-1.33a30,30,0,0,0-.82,14.94c1.13,6.32,10.77,3.64,9.64-2.66Z"/><path class="si1" d="M308.63,538.15a75.48,75.48,0,0,1,15.59-12.86l-6.06-7.86a69.29,69.29,0,0,1-8.21,8.31c-4,3.42.33,9.44,4.86,8.36,10.36-2.47,17.3-11.22,18.2-21.67.3-3.55-4.58-6.56-7.52-4.32-2.31,1.75-3.23,3-3.38,6-.21,4.06,5.82,7,8.53,3.54a24.47,24.47,0,0,0,5.72-15.86c0-6.44-10-6.45-10,0a13.6,13.6,0,0,1-2.79,8.79l8.54,3.53.05-1.06-2.47,4.32.84-.65L323,512.43c-.53,6.09-5.06,10.64-10.85,12l4.86,8.35a70,70,0,0,0,8.21-8.3c3.44-4.11-.92-11-6.06-7.86a86,86,0,0,0-17.61,14.43c-4.39,4.7,2.67,11.79,7.07,7.07Z"/><path class="si1" d="M329.46,491.59a6.25,6.25,0,0,1,.18.86l-.06-.4a6,6,0,0,1,0,1.69l.05-.39v0a1.66,1.66,0,0,0,.15,1.16,1.52,1.52,0,0,0,.9.69,1.49,1.49,0,0,0,1.15-.15l.3-.24a1.39,1.39,0,0,0,.39-.66,8.88,8.88,0,0,0,.11-1.71,8.17,8.17,0,0,0-.28-1.69,1.53,1.53,0,0,0-.69-.89,1.49,1.49,0,0,0-1.15-.15,1.51,1.51,0,0,0-.9.69,1.53,1.53,0,0,0-.15,1.15Z"/><path class="si1" d="M295,494.27v-5.36c0-.87,0-1.75,0-2.63v-.43c0-.09,0-.17,0-.25,0,.19,0,.2,0,0s-.19.15,0-.09c-.19.2-.29.21,0,.08L293,483.57a7.21,7.21,0,0,1-.55,1.07c-.11.17-.22.34-.34.5.09-.12,0,0-.05.06l-.26.29a6.64,6.64,0,0,1-.91.85c-.2.16.14-.09-.07.06l-.26.18c-.2.13-.41.25-.62.37l1.82,2.35,3.5-3.27a1.5,1.5,0,1,0-2.12-2.13l-3.5,3.28a1.51,1.51,0,0,0,1.81,2.36,9.53,9.53,0,0,0,4.14-4.46,1.5,1.5,0,0,0-2.05-2.05c-1.91.83-1.55,3.43-1.55,5.1l0,6.14a1.5,1.5,0,0,0,3,0Z"/><path class="oc1" d="M299.73,513c0,.15,0,.31.08.46s.07.48,0,.21c0,.25.06.51.08.76a17.42,17.42,0,0,1,0,1.77c0,.29,0,.57-.06.85s0,.3-.05.46c0-.21,0,.05,0,.13a16.61,16.61,0,0,1-.37,1.73l2.89.8a15,15,0,0,0-.38-5c0-.11,0-.09,0,.08a2.3,2.3,0,0,1,0-.26c0-.17,0-.35,0-.52a6.77,6.77,0,0,1,0-.9c0,.37,0-.15.05-.23s.07-.24.1-.36.06-.16,0,0l.11-.22a4.38,4.38,0,0,1,.28-.42,1.5,1.5,0,0,0-.54-2.05,1.54,1.54,0,0,0-2.05.54,6,6,0,0,0-.93,4.21c.09.83.25,1.63.39,2.45a5.07,5.07,0,0,1,.09.54c0-.25,0,.32,0,.37,0,.21,0,.41,0,.62s-.06.62,0,.37a1.54,1.54,0,0,0,1.05,1.85,1.52,1.52,0,0,0,1.84-1.05,17.69,17.69,0,0,0,.28-8,1.51,1.51,0,0,0-1.85-1.05,1.53,1.53,0,0,0-1,1.84Z"/><path class="oc1" d="M306.8,515.29c-1.13-1.64,1.18-4.4,1.84-5.89a21.8,21.8,0,0,0,1.67-6.6,41,41,0,0,0,0-6.83c-.14-2.24-1.21-6.33-.12-8.46h-8.64a1.8,1.8,0,0,1,.07,2.7c-3.3,5.54,5.34,10.58,8.63,5.05a11.88,11.88,0,0,0-.06-12.8c-1.88-3-6.86-3.45-8.64,0-3.38,6.61.21,13.73-1.28,20.61-1.29,6-6.3,11.13-2.06,17.27,3.63,5.25,12.31.26,8.63-5.05Z"/><path class="oc1" d="M297.85,484v1.77a5.07,5.07,0,0,0,6.33,4.82,11.58,11.58,0,0,0,3.09-1.27c.24-.12,1.31-.58.05-.06.89-.2.43-.23-1.4-.09a3.56,3.56,0,0,1-1.85-1.47,5,5,0,0,0,8.63-5.05,6.9,6.9,0,0,0-7.37-3.16,10.24,10.24,0,0,0-2.81,1,7.73,7.73,0,0,0-.75.4c-.34.17-.2.12.41-.15a2.91,2.91,0,0,1-.66.17l6.33,4.82V484a5,5,0,0,0-10,0Z"/><path class="oc1" d="M299.65,511.45c-.24,3.07.7,5.74,1.38,8.65v-2.65l-.09.27,3.49-3.49a15.85,15.85,0,0,0-2.39,1c-.27.18-.54.38-.8.58-1,.62-.43.67,1.75.15l2.21,1.29-.31-.29,1.29,2.2-.07-.4c-.42-2.67-3.75-4.15-6.15-3.49-2.84.78-3.92,3.47-3.49,6.15.46,2.84,3.33,4.53,6,4.4a7.29,7.29,0,0,0,3.6-1.23c.27-.18.53-.39.79-.58.67-.51-.76.34.21-.18,1.61-.86,2.94-1.57,3.49-3.49a6.34,6.34,0,0,0-.09-3.56,14.11,14.11,0,0,1-.84-5.37c.21-2.7-2.45-5-5-5a5.09,5.09,0,0,0-5,5Z"/><path class="oc1" d="M303.39,522.71c-.69.71-1.4,1.4-2.15,2.06S299.7,526,299,526.66a8.13,8.13,0,0,0-1.72,2.19c-.18.34-.36.69-.57,1a2.2,2.2,0,0,0-.17.25c-.11.18.22-.24,0,0l-.16.18s-.34.27-.07.07l2.21,1.7a41.91,41.91,0,0,0,.65-4.61c0-.15,0-.3,0-.46,0,.26.06-.31.07-.36a7.17,7.17,0,0,1,.3-1,6.21,6.21,0,0,0,.52-2.2h-3l.1,2.19c0,.94.36,2,1.42,2.21a1.53,1.53,0,0,0,1.84-1.05l1-3.1a1.5,1.5,0,0,0-1-1.84,1.54,1.54,0,0,0-1.85,1l-1,3.11,1.85-1,.76.72,0,.2s0-.27,0-.32l0-.73-.06-1.38a1.5,1.5,0,0,0-3,0,1.31,1.31,0,0,1,0,.28c0-.16,0-.15,0,0s-.08.27-.13.41c-.1.32-.24.64-.35,1a10.21,10.21,0,0,0-.42,2.19l-.09,1-.06.55s-.06.48,0,.23c-.1.73-.23,1.46-.39,2.18a1.52,1.52,0,0,0,.54,1.58,1.5,1.5,0,0,0,1.67.11,6.66,6.66,0,0,0,1.87-2.24c.19-.34.37-.69.58-1l.17-.25c-.13.18,0,0,.07-.08a6.26,6.26,0,0,1,.52-.51c.73-.66,1.53-1.24,2.27-1.89s1.55-1.41,2.27-2.16a1.51,1.51,0,0,0,0-2.12,1.53,1.53,0,0,0-2.12,0Z"/><path class="se1" d="M302.75,565.84c.81,6.77,5.91,8,11.68,9.73l-3.58-8.81-1.25,1.68c-2.48,3.35.31,7.66,3.58,8.82,8.63,3.06,27.19-2.22,24.59-14.4-1.28-6-8.38-6.86-13.46-6.93a43.69,43.69,0,0,0-10.42,1.43c-2.67.62-5.37,1.52-5-2.11.59-6.35-8.19-7.56-11.18-3a7.15,7.15,0,0,0-1.24,4.55c.34,7.79,11.38,7.65,12,0,.38-4.8.36-11.49-3.67-14.87-3.59-3-9.71-2.48-13.41.12-4.68,3.29-4.38,9.22-2.34,14l.55,1.28c.57,1.55.8,1.65.7.33.29-1.19-.07-1.27-1.09-.24l-1.21.94c-1.86,1.57-2.82,4.21-4.93,5.29l8.21,2.16c-1.68-2.76-1.22-7.24-1.43-10.36-.27-4-.41-8.12-1-12.13-1.06-7.38-5.16-13.23-8-20-2.74-6.46-12.47-1.72-11,4.62a37,37,0,0,0,13,20.62c5.09,4.06,12.93-.92,9.42-7.27l-4.46-8.07c-3.74-6.75-14.11-.71-10.37,6.06l4.47,8.07,9.42-7.27a26.82,26.82,0,0,1-9.89-15.33l-11,4.62c1.39,3.27,3.22,6.28,4.71,9.49,1.76,3.81,2,7.6,2.33,11.74.47,6.8-.28,15.18,3.39,21.21a6.15,6.15,0,0,0,8.21,2.16c3.12-1.6,4.09-4.12,6.36-6.37,2.5-2.48,5.26-2.9,6.59-6.63,1-2.77.24-7.75-2.11-9.75l-.37-1.17q-1.11,3.57-3.27.43c.25-.09.19,5.84.15,6.31h12l-.4,1.51-11.18-3c-.82,8.8,6.85,15.5,15.33,14.66,4.77-.47,9-2.36,13.93-1.9l2,.3-2.3-4.18s-2.26,1.16-2.46,1.24a9.3,9.3,0,0,1-7,.31L320,574.5l1.25-1.69c2.39-3.22-.21-7.82-3.59-8.81-1.12-.33-4-.84-4.52-1.5l1.76,4.25-.11-.91c-.91-7.57-12.92-7.67-12,0Z"/><path class="si1" d="M290.85,535.82a3,3,0,0,0,.06.66,1.22,1.22,0,0,0,.06.26l2.9-.8-.32-.86a1.14,1.14,0,0,0-.27-.51,1.34,1.34,0,0,0-1-.57,1.22,1.22,0,0,0-.6,0l-.36.15a1.45,1.45,0,0,0-.53.54l-.16.36a1.51,1.51,0,0,0,0,.79l.32.87a1.26,1.26,0,0,0,.27.51,1.18,1.18,0,0,0,.42.38,1.16,1.16,0,0,0,.56.18,1,1,0,0,0,.6,0l.36-.15a1.61,1.61,0,0,0,.54-.53l.15-.36a1.55,1.55,0,0,0,0-.8,2.5,2.5,0,0,1-.07-.26l.06.4a1.13,1.13,0,0,1,0-.26,1.14,1.14,0,0,0-.13-.57,1.11,1.11,0,0,0-.31-.49,1.24,1.24,0,0,0-.48-.31,1.27,1.27,0,0,0-.58-.13l-.4.06a1.57,1.57,0,0,0-.66.38l-.24.31a1.5,1.5,0,0,0-.2.75Z"/><path class="dos12" d="M314.49,484.76a19.18,19.18,0,0,0,3.67-1.73l1.71-.91a8.77,8.77,0,0,0,.86-.45c.28-.14.06-.12-.65,0-.19-.09-.22-.1-.08,0s.11.06-.09-.08-.16-.24-.09-.1l-.15-1.15,0,.1.39-.66c-.17.2.23-.18.07-.06s.28-.1,0,0l-.61.23c-.48.19-1,.39-1.43.62a16.18,16.18,0,0,0-2.19,1.3,1.54,1.54,0,0,0-.53,2.06,1.51,1.51,0,0,0,2.05.53c.53-.36,1.06-.71,1.62-1,.26-.14.53-.27.8-.39l.36-.16c-.32.14.19-.07.24-.09a3.44,3.44,0,0,0,1.95-1.2,1.87,1.87,0,0,0-1-2.58,2.11,2.11,0,0,0-1.63-.18,7.2,7.2,0,0,0-1.08.53l-1.72.91-1.72.91c-.27.14-.53.28-.81.41l-.24.11h0l-.49.16a1.51,1.51,0,0,0-1.05,1.84,1.53,1.53,0,0,0,1.85,1.05Z"/><path d="M393.27,626.32c.16,4,.75,5.53,0,6s-2.19-.47-3-1a4.87,4.87,0,0,1-2-2,5,5,0,0,1,1-5,5.9,5.9,0,0,1,4-2S393.19,624.14,393.27,626.32Z"/><path d="M302.86,545a2,2,0,0,1-.9,3.13,3.11,3.11,0,0,1-3.81-1.34,2.18,2.18,0,0,1,1.1-2.68A3.32,3.32,0,0,1,302.86,545Z"/><path d="M249.82,629.32c1.65,1.21,2.94,3.28,1.64,5a7.41,7.41,0,0,1-3.28,2c-1.32.53-3.69,1.47-4.91,1s-.26-2,0-6a31.77,31.77,0,0,0,0-4A12.81,12.81,0,0,1,249.82,629.32Z"/><path class="nu1" d="M361.29,652.55c.12-1,.32-1.92.48-2.73a19.36,19.36,0,0,1,3-7c.05-.39.09-.77.13-1.15.9-8,1.35-15.53,1.5-22.37.19-9-.13-16.93-.63-23.48-.93-12.37-2-25.09-7-41a148,148,0,0,0-17-36"/><path class="nu1" d="M392.75,662.37a33.36,33.36,0,0,1,1,5.45c.48,4.6-.38,5.65-1,6-1,.56-2.62.1-3,0a5.7,5.7,0,0,1-2-1,6.47,6.47,0,0,1-2-4c-.4-2.16-1.44-5.49-4-11a30.42,30.42,0,0,1,1,10c-.2,2.79-.4,5.14-2,6-1.84,1-4.36-.6-5-1a9.56,9.56,0,0,1-4-6v-22c1.28,4.59,1.12,8.69,0,11.49a6.09,6.09,0,0,1-3,3.51,5.87,5.87,0,0,1-6-1c-1.66-1.54-1.76-4-1.48-6.26"/><path class="nu1" d="M392.75,662.37a15.45,15.45,0,0,1-2-5.55A38.41,38.41,0,0,1,392.75,662.37Z"/><path class="nu1" d="M321.27,479.32c2.93,2.61,6.24,5.67,9.79,9.21,1.61,1.59,3.27,3.29,5,5.08s3.47,3.71,5.25,5.71a235.91,235.91,0,0,1,24,32c10.53,17,25.16,40.7,27,67,.21,2.93.5,9.47,1.22,21,.21,3.52.47,7.51.78,12,.28,4.07.53,7.63.74,10.5.1,1.33.18,2.5.26,3.5a70,70,0,0,1,4.5,9.5,11.16,11.16,0,0,1,1,6,6.69,6.69,0,0,1-2,4,3.23,3.23,0,0,1-2,1c-.37,0-1.41-.05-3-2a13.23,13.23,0,0,1-1-1.45"/><path class="nu1" d="M267.45,656.09c2.58,4.3,6.79,5.92,9.32,4.73,2.09-1,3.05-3.85,3-6-.07-2.81-1.89-4.75-4-7a22.64,22.64,0,0,0-5-4c-.22-5.62-.31-11.62-.18-18,.14-6.64.51-13.67,1.18-21a295.29,295.29,0,0,1,6-38c-.57-8.13-.85-15.23-1-21-.32-12.49-.06-21.83,0-24,.21-7.21.59-13.44,1-18.36,0-.22,0-.43,0-.64"/><path class="nu1" d="M267.45,656.09c-.21-.42-.44-.84-.68-1.27A13.83,13.83,0,0,0,267.45,656.09Z"/><path class="nu1" d="M245.28,665.49a18.58,18.58,0,0,0,2.49,9.33c.47.75,2.83,4.43,5,4,1.28-.25,2.21-1.88,3-5,2.49-9.78-.22-18.94,0-19s1.55,4.39,6,20c4.46,1.57,6.43.4,7,0,3.26-2.31,3.27-9.88-1.32-18.73"/><path class="nu1" d="M245.28,665.49c.18-.54.34-1.1.49-1.67a29.53,29.53,0,0,0,1-8A25.43,25.43,0,0,0,245.28,665.49Z"/><path class="nu1" d="M299.27,478.32c-1.12.92-2.37,2-3.71,3.2a94,94,0,0,0-9.79,10.3,95.9,95.9,0,0,0-7.85,11.3l-.2.34a108.86,108.86,0,0,0-9,19.36c-9.23,25.53-13.91,38.28-16.5,48.5a375.73,375.73,0,0,0-9.55,54.45q-.89,8.63-1.42,18l0,.55-2.5,8.5a18.45,18.45,0,0,0-2,14,17.1,17.1,0,0,0,4,7,27.94,27.94,0,0,0,4.51-8.33"/><path class="nu1" d="M277.27,722.32a150.18,150.18,0,0,0,11-21,165.39,165.39,0,0,0,10-34c5-26.45,3.4-45.52,2-60-1-10.05-2.54-16.21-7-23a39.18,39.18,0,0,0-7-8,42.19,42.19,0,0,0-5.19-3.88c-.64-.43-1.25-.79-1.82-1.12"/><path class="uno120" d="M315.27,741.32a259.18,259.18,0,0,0-37,4c-19,3.47-28,3.65-46,4-3.52.07-9.62.1-13-4-2.88-3.49-3.05-9.08-1-13,1.39-2.67,4.33-5.56,16-8a106,106,0,0,1,37-1c8.31,1.36,14,3.32,23,4,3.67.28,7.32.88,11,1,4.83.16,6.46-.15,8,1C314.46,730.2,316.69,732.77,315.27,741.32Z"/><path class="uno120" d="M317.08,741.45a159.68,159.68,0,0,1,34.45.22c3.59.43,9.14,1,20.24,2.15a85.51,85.51,0,0,0,20,0c8.36-1,10.14-2.62,11-4,2.15-3.45.55-8.77-2-12-.95-1.2-4.13-4.77-19-6a119.24,119.24,0,0,0-26,1c-5.35.75-5.19,1-20.66,3.77-3.36.59-6.66,1.49-10,1.95-.87.12-1.63.21-2.3.28-2.73.32-3.92.43-5,1.39S315,733.71,317.08,741.45Z"/><path class="nu1" d="M332.77,575.82a15.32,15.32,0,0,1,1,8c-.82,5.06-4.33,8.12-6,10-2.34,2.64-3.55,5.82-4,10.44a102.81,102.81,0,0,0,0,15.56c2,36.44,7,59,7,59,2.48,11.24,6.25,26.34,12,44"/><path class="nu1" d="M311.77,727.82q1.25-12.26,2.5-24.5l-3-121"/><path class="nu1" d="M322.77,728.82a47.69,47.69,0,0,1-8.5-26.5"/><path class="uno120" d="M281.09,572.44l5.18,3.88h0c2.18-.76,6.55-2.64,9-7a11.3,11.3,0,0,0,1.38-5.09,57.5,57.5,0,0,0-.38-7.91c-.63-7.06-1.09-12.07-3.23-16.24a14.72,14.72,0,0,0-1.11-1.86c-.21-.31-.43-.6-.66-.9-.78-1-1.84-2.13-5-6-1.83-2.24-2.91-3.08-4-5a26.6,26.6,0,0,1-2-5c-.58-1.73-1.31-4.1-2-7a150.2,150.2,0,0,0-1,23c.22,6.36.8,11.09,1,21,.06,3.25.07,6.13.05,8.5,0,1.33,0,2.5-.05,3.5Z"/><path class="nu1" d="M298.27,564.32c3.55,3.82,6.67,6.84,9,9,5,4.61,6.47,5.44,8,6a16.55,16.55,0,0,0,11,0,15.33,15.33,0,0,0,5.64-3.79,16.06,16.06,0,0,0,2.36-3.21,108,108,0,0,1,6,10,93,93,0,0,1,10,28c.5,2.9.66,7.93,1,18,.6,17.94.12,30.17,0,33,0,.86-.07,1.7-.12,2.52-.25,5.44-.59,10-.88,13.48a18.84,18.84,0,0,0,6-5c1.9-2.42,2.35-4.83,4-14,.29-1.59.63-3.53,1-5.76h0c.16-.87.31-1.78.48-2.73"/><path class="nu1" d="M350.77,663.82a204.15,204.15,0,0,0-7.5-24.5,153.31,153.31,0,0,0-11-24c-2.66-4.63-5.14-8.36-7-11"/><path class="nu1" d="M295.27,539.32a51.16,51.16,0,0,0,10-1c5.81-1.17,14.8-3,21-10,4-4.51,5.13-9.26,7-17a71.22,71.22,0,0,0,2-17"/><path class="nu1" d="M296.27,482.32c-.34,2.85-.81,7.38-1,13-.34,10,.59,11.12,0,20-.34,5.06-.83,7.47-1,14-.09,3.37,0,6.15,0,8l1.07-.91c2.1-1.8,4.83-4.2,7.93-7.09,8-7.5,12.74-11.88,17-18,5.17-7.42,7.9-15.88,9-19,.19-.54.36-1.05.51-1.5s.36-1.1.49-1.5"/><path class="uno120" d="M310.07,499a14.83,14.83,0,0,1,1.7-3.17c.8-1.14,1.83-2.25,2-4a5.45,5.45,0,0,0,0-1h16"/><path class="uno120" d="M301.77,499.82a13.44,13.44,0,0,1-1.5,3.5c-.92,1.51-1.41,1.6-2,3-.47,1.11-.4,1.56-1,3a15.25,15.25,0,0,1-1,2q-.5,12.49-1,25l16-16a66.11,66.11,0,0,1-1-10c-.13-5.82.65-7,0-10a8.5,8.5,0,0,1-.2-1.32h0a4.87,4.87,0,0,1,.2-1.67c.43-1.42,1.19-1.53,2-3s.89-2.88,1-5c0-.45,0-.38,0-4v-2a6.61,6.61,0,0,0-4-3c-1.64-.33-2.72.36-5,0a9.89,9.89,0,0,1-3-1,6.58,6.58,0,0,0-2,2c-.27.43-1,1.77-1,5,.07,3.91,1.25,4,1,7-.22,2.67-.42,3.07,0,4a3.92,3.92,0,0,0,2.67,1.94,23.85,23.85,0,0,0,7.83.56c.1-.29.2-.56.3-.82"/><path class="uno120" d="M367.27,619.32h26"/><path class="uno120" d="M366.27,641.82h29"/><path class="uno120" d="M243.27,625.82h26"/><path class="uno120" d="M242.27,643.82h29"/></g></g></g></svg>