<?xml version="1.0" encoding="utf-8"?>
<!-- Generator: Adobe Illustrator 25.2.3, SVG Export Plug-In . SVG Version: 6.00 Build 0)  -->
<svg version="1.1" id="Capa_1" xmlns="http://www.w3.org/2000/svg" xmlns:xlink="http://www.w3.org/1999/xlink" x="0px" y="0px"
	 viewBox="0 0 585 750" style="enable-background:new 0 0 585 750;" xml:space="preserve">
<style type="text/css">
	.st0{fill:none;}
	.st1{fill:none;stroke:#000000;stroke-width:6;stroke-linecap:round;stroke-linejoin:round;}
</style>
<g id="Capa_2_1_">
	<rect class="st0" width="585" height="750"/>
	<path class="st1" d="M296.6,478.1c-2.1-4.3-5.1-8.1-8.7-11.1c0,0-0.6-0.4-1.3-0.9c-10.2-6.5-24.5-8.3-24.5-8.3s-15.6-1.9-36-6
		c-8.5-1.7-17-3.9-25.3-6.5c-12.3-4-27.2-8.9-42.8-20.3c-9.5-7-23.3-17.2-31-35c-7.1-16.6-6.6-34.3-7.9-34.2
		c-1.2,0.1,1.6,12.4-5.4,19.5c-5.9,6-15.6,5.1-17.7,4.9c-13-1.2-20.8-11.6-22.5-13.8c-7.5-9.9-7.7-20.5-7.9-34.2
		c-0.2-9.8-0.2-17.8,4.3-26.7c2.2-4.4,6.5-12.9,16.1-16.2c1.8-0.6,10-3.1,18,1.2c7.6,4.1,10.1,11.9,11.2,15.5
		c1.1,3.7,1.6,7.5,1.6,11.3c0.3,0-0.2-14.7,0.3-27.2c0.5-13.7,2.2-27.3,5-40.7c2.6-12.7,5.9-29.1,15-48.5
		c5.5-11.9,10.5-22.6,21.2-33.7c8.8-9,16.9-13.7,27.6-19.8c14-8.2,28.9-14.5,44.6-18.8c21.3-5.6,37.9-5.6,55.1-5.4
		c55.4,0.6,94.4,15.5,105.3,19.9c21.2,8.6,32.7,16.5,41.4,24.2c8.5,7.5,15.9,16.2,22,25.9c16.3,26,17.9,51.5,18.5,62.7
		c0.7,11.6-0.9,10.9-0.4,28.1c0.1,6.4-0.7,12.7-2.3,18.9c-0.5,2.4-1.5,4.7-2.8,6.7c-0.8,1.1-1.4,1.6-1.2,1.9
		c0.5,0.7,5.7-2.6,11.6-4.6c3.4-1.1,10.4-3.5,17.4-1.9c10.2,2.4,15.5,12.3,16.4,14.1c6.1,11.5,2.7,23.6,0,33.2
		c-2,6.9-5.4,18.9-16.5,28.2c-3.1,2.6-11.8,9.6-23.3,9.2c-3-0.1-9.1-0.3-12.5-4.5c-2.4-3-2.5-6.6-2.6-11.4
		c-0.2-4.4,0.3-8.7,1.5-12.9c-0.5,5-1.4,9.9-2.8,14.8c-1.4,5-3.4,9.8-5.8,14.4c-7.9,15.5-20.9,27.6-23.8,30.3
		c-12.7,11.6-27.5,20.8-43.6,26.9c-11.3,4.2-14.3,3.5-37.7,11.5c-15.9,5.5-22.3,8.4-26,15c-1.7,3-3,7-7.2,9.2c-3.7,1.9-9,2.2-12-0.5
		C297.9,481.3,297.8,480.4,296.6,478.1z"/>
</g>
</svg>
