<svg xmlns="http://www.w3.org/2000/svg" viewBox="0 0 585 750"><defs><style>.uno1,.tres1{fill:none;}.uno1{opacity:0;}.dos1{}.tres1{stroke:#000;stroke-linecap:round;stroke-miterlimit:10;stroke-width:5px;}</style></defs><g id="Capa_2" data-name="Capa 2"><g id="Capa_1-2" data-name="Capa 1"><rect class="uno1" width="585" height="750"/><g id="c-confused"><path class="dos1" d="M385.89,256c-8.15-9.19-38.44-4.43-66.66,0-18.1,2.84-26.06,6-27.16,10.07-.37,1.36,0,2.9,2.47,5.87,9.52,11.51,25.92,15.94,25.92,15.94,2.8.76,27.76,7.17,48.15-3.36C382.35,277.39,392.47,263.38,385.89,256Z"/><path class="tres1" d="M403.45,269a186,186,0,0,1-40,16c-14.24,3.83-25.86,7-41,5a80,80,0,0,1-31-11"/><path class="tres1" d="M133.45,256a93.15,93.15,0,0,1,44-21,90.94,90.94,0,0,1,41,2,88.85,88.85,0,0,1,32,17"/></g></g></g></svg>