<svg xmlns="http://www.w3.org/2000/svg" viewBox="0 0 585 750"><defs><style>.uno1,.tres1{fill:none;}.uno1{opacity:0;}.dos1{}.tres1{stroke:#000;stroke-linecap:round;stroke-miterlimit:10;stroke-width:5px;}</style></defs><g id="Capa_2" data-name="Capa 2"><g id="Capa_1-2" data-name="Capa 1"><rect class="uno1" width="585" height="750"/><g id="c-angry"><path class="dos1" d="M334.54,247.55c2,5-2.69,14.46-12.09,33.34-6,12-9.86,19.61-18.15,27.59-7.23,7-15.6,15.87-26.61,14.95-1.18-.1-8.32-.7-13.69-5.83-1.09-1-3.79-4.64-9-12-4.16-5.88-5.39-7.71-8-10.6-2.2-2.43-2.06-1.94-6-6-1.94-2-1.3-1.43-9-10-1.13-1.26-4.41-4.91-5.62-7.32-.1-.19-.65-1.29-1.47-2.74-.28-.51-.62-1.08-1.09-1.84-5.73-9.23-7.48-10.44-6.61-13.8C223.27,229.82,325.2,224.2,334.54,247.55Z"/><path class="tres1" d="M167.31,250.09c19.71-8.38,31.66-3.64,35.19-2,6.5,3.05,11.72,9,22.15,21.06,4,4.57,2.42,3.18,12.85,15.94,10.62,13,14.92,17.74,18,21,4.46,4.74,8.33,8.49,11,11"/><path class="tres1" d="M291.63,320.06a91.29,91.29,0,0,0,20.87-24c3.73-6.23,3.61-7.78,8-16,8.55-16,12.93-24.3,22.18-30.61,3.54-2.4,12-8,23.82-7.39a37.36,37.36,0,0,1,22,9"/></g></g></g></svg>