<svg xmlns="http://www.w3.org/2000/svg" viewBox="0 0 585 750"><defs><style>.uno1,.tres1{fill:none;}.uno1{opacity:0;}.dos1{}.tres1{stroke:#000;stroke-linecap:round;stroke-miterlimit:10;stroke-width:5px;}</style></defs><g id="Capa_2" data-name="Capa 2"><g id="Capa_1-2" data-name="Capa 1"><rect class="uno1" width="585" height="750"/><g id="c-sad"><path class="dos1" d="M199,242.61c-26.42-.92-43.91,20.09-48,25-2.72,3.27-15.09,18.12-11,24,5.75,8.26,40.8-5.88,51-10,19.95-8.05,22.8-13.09,39-16,3.93-.71,7.47-1.08,8-3C239.37,257.6,219.94,243.34,199,242.61Z"/><path class="tres1" d="M138,298.52c12.81-3.83,23.83-7.21,32.58-9.93,0,0,14.25-4.42,36-12.81,14.8-5.71,24.42-10,24.87-16.3a6.33,6.33,0,0,0-.94-3.88c-3-4.53-12.74-4.57-24.74-.2"/><path class="dos1" d="M357.07,245.61c26.42-.92,43.92,20.09,48,25,2.73,3.27,15.09,18.12,11,24-5.75,8.26-40.8-5.88-51-10-19.95-8.05-22.8-13.09-39-16-3.93-.71-7.47-1.08-8-3C316.7,260.6,336.14,246.34,357.07,245.61Z"/><path class="tres1" d="M418.07,301.52c-12.8-3.83-23.82-7.21-32.58-9.93,0,0-14.25-4.42-36-12.81-14.8-5.71-24.41-10-24.87-16.3a6.4,6.4,0,0,1,.94-3.88c3-4.53,12.74-4.57,24.74-.2"/></g></g></g></svg>