<svg xmlns="http://www.w3.org/2000/svg" viewBox="0 0 585 750">
<defs>
<style>.uno{fill:none;opacity:0;}.dos{fill:#fff;}.dos,.tres{stroke:#000;stroke-miterlimit:10;stroke-width:5px;}</style>
</defs><g id="Capa_2" data-name="Capa 2">
<g id="Capa_1-2" data-name="Capa 1">
<rect class="uno" width="585" height="750"/>
<path class="dos" d="M158,360a55.84,55.84,0,0,0,24,15,57.5,57.5,0,0,0,30,1c5.33-1.15,18.63-4.2,30-16a59.37,59.37,0,0,0,12-61,57.51,57.51,0,0,0-16-23,58.89,58.89,0,0,0-27-13,56.45,56.45,0,0,0-33,3,57.61,57.61,0,0,0-23,18c-13,17-12.28,35.59-12,40C143.3,328.82,144.63,345.73,158,360Z"/>
<path class="dos" d="M314.15,367a55.84,55.84,0,0,0,24,15,57.5,57.5,0,0,0,30,1c5.33-1.15,18.63-4.2,30-16a58.45,58.45,0,0,0,14-26,59.14,59.14,0,0,0-2-35,57.57,57.57,0,0,0-16-23,59,59,0,0,0-27-13,56.45,56.45,0,0,0-33,3,57.81,57.81,0,0,0-23,18c-13,17-12.28,35.59-12,40C299.45,335.74,300.78,352.66,314.15,367Z"/>
<path class="dos" d="M416.88,362.72l-11.13-6.17"/>
<path class="dos" d="M408.59,374.76l-10.44-7.41"/>
<path class="dos" d="M400.36,382.32l-8.52-8"/>
<path class="dos" d="M137.84,355.72,149,349.55"/>
<path class="dos" d="M146.13,367.76l10.44-7.41"/>
<path class="dos" d="M154.36,375.32l8.52-8"/>
<path class="tres" d="M340.17,340a21.71,21.71,0,0,0,9.35,5.84A24.08,24.08,0,0,0,372.87,340a22.66,22.66,0,0,0,5.45-10.12,23,23,0,0,0-.78-13.62,22.38,22.38,0,0,0-6.23-9,22.88,22.88,0,0,0-10.51-5.06A21.9,21.9,0,0,0,348,303.38a22.33,22.33,0,0,0-8.95,7A23.65,23.65,0,0,0,334.34,326,22.47,22.47,0,0,0,340.17,340Z"/>
<path class="tres" d="M179.17,334a21.71,21.71,0,0,0,9.35,5.84A24.08,24.08,0,0,0,211.87,334a22.66,22.66,0,0,0,5.45-10.12,23,23,0,0,0-.78-13.62,22.38,22.38,0,0,0-6.23-9,22.88,22.88,0,0,0-10.51-5.06A21.9,21.9,0,0,0,187,297.38a22.33,22.33,0,0,0-9,7A23.65,23.65,0,0,0,173.34,320,22.47,22.47,0,0,0,179.17,334Z"/>
</g>
</g>
</svg>