<svg xmlns="http://www.w3.org/2000/svg" viewBox="0 0 585 750"><defs><style>.uno21{fill:black;opacity:0;}</style></defs><g id="Capa_2" data-name="Capa 2"><g id="Capa_1-2" data-name="Capa 1"><g id="c-lee"><path d="M306.82,274.9c3.81,2.56,9-.12,19.93-4.43,0,0,10.81-4.24,25.47-8.85,19.49-6.14,30.79-6.54,34.33-6.65,5.61-.17,9.42-.26,14.39,1.11,9.88,2.72,14.38,8.46,17.72,6.64,1.9-1,2-4.42,2.22-11.07s.4-11.52-2.22-16.61a23.08,23.08,0,0,0-6.64-7.75c-3.45-2.7-13.08-8.71-43.19-7.75a191.4,191.4,0,0,0-26.14,2.84c-6.31,1-11.74,2.31-22.58,4.91a106.24,106.24,0,0,0-15.5,5.53c-4.68,2-6.75,3.26-7.76,5.54-.82,1.86-.54,3.54,1.11,10,2.26,8.81,3.32,12.18,3.32,12.18C304.12,269.53,305.57,274.06,306.82,274.9Z"/><path d="M257.24,271.47c-3.85,2.48-9-.3-19.84-4.82,0,0-10.72-4.44-25.3-9.34-19.36-6.51-30.65-7.13-34.19-7.3-5.6-.29-9.42-.45-14.41.83-9.93,2.53-14.54,8.18-17.84,6.3-1.88-1.07-1.9-4.46-2-11.12s-.18-11.52,2.54-16.56a23.2,23.2,0,0,1,6.79-7.62c3.5-2.63,13.24-8.46,43.33-6.92a192,192,0,0,1,26.08,3.35c6.29,1.13,11.69,2.53,22.48,5.33a106.31,106.31,0,0,1,15.39,5.84c4.65,2.11,6.69,3.38,7.65,5.68.78,1.88.47,3.55-1.3,9.94-2.43,8.77-3.56,12.12-3.56,12.12C260,266.15,258.51,270.65,257.24,271.47Z"/></g><rect class="uno21" width="585" height="750"/></g></g></svg>