<svg xmlns="http://www.w3.org/2000/svg" viewBox="0 0 585 750">
<defs>
<style>.uno{fill:#fff;stroke-width:5px;}.uno,.dos{stroke:#000;stroke-miterlimit:10;}.dos{stroke-width:2px;}.tres{fill:none;opacity:0;}</style></defs><g id="Capa_2" data-name="Capa 2"><g id="Capa_1-2" data-name="Capa 1"><g id="e-normal"><path class="uno" d="M158,360a55.84,55.84,0,0,0,24,15,57.5,57.5,0,0,0,30,1c5.33-1.15,18.63-4.2,30-16a59.37,59.37,0,0,0,12-61,57.51,57.51,0,0,0-16-23,58.89,58.89,0,0,0-27-13,56.45,56.45,0,0,0-33,3,57.61,57.61,0,0,0-23,18c-13,17-12.28,35.59-12,40C143.3,328.82,144.63,345.73,158,360Z"/><path class="uno" d="M314.15,367a55.84,55.84,0,0,0,24,15,57.5,57.5,0,0,0,30,1c5.33-1.15,18.63-4.2,30-16a58.45,58.45,0,0,0,14-26,59.14,59.14,0,0,0-2-35,57.57,57.57,0,0,0-16-23,59,59,0,0,0-27-13,56.45,56.45,0,0,0-33,3,57.81,57.81,0,0,0-23,18c-13,17-12.28,35.59-12,40C299.45,335.74,300.78,352.66,314.15,367Z"/><path class="dos" d="M351.9,316.59a5.51,5.51,0,0,0-2.49-1.95,5.31,5.31,0,0,0-3.16-.06c-2.28.59-3.57,2.38-4.5,3.71a15.53,15.53,0,0,0-2.68,7.54,16.44,16.44,0,0,0,2,9.21,10.25,10.25,0,0,0,3.7,4.5,7.72,7.72,0,0,0,6,1.06c2.63-.75,3.88-3,4.84-4.65A11,11,0,0,0,357,329c0-.14-.43-2.49-1.22-2.55-.46,0-.65.73-1.61,1.55a5.91,5.91,0,0,1-2.55,1.21c-.81.19-2.69.64-4.11-.39-1.7-1.25-1.55-3.78-1.49-4.78a6.09,6.09,0,0,1,1.34-3.77c.16-.17,1.86-2.1,3.83-1.82,1.08.16,1.66.88,1.89.67S352.67,317.52,351.9,316.59Z"/><path class="dos" d="M194.9,308.59a5.51,5.51,0,0,0-2.49-1.95,5.31,5.31,0,0,0-3.16-.06c-2.28.59-3.57,2.38-4.5,3.71a15.53,15.53,0,0,0-2.68,7.54,16.44,16.44,0,0,0,2,9.21,10.25,10.25,0,0,0,3.7,4.5,7.72,7.72,0,0,0,6,1.06c2.63-.75,3.88-3,4.84-4.65A11,11,0,0,0,200,321c0-.14-.43-2.49-1.22-2.55-.46,0-.65.73-1.61,1.55a5.91,5.91,0,0,1-2.55,1.21c-.81.19-2.69.64-4.11-.39-1.7-1.25-1.55-3.78-1.49-4.78a6.09,6.09,0,0,1,1.34-3.77c.16-.17,1.86-2.1,3.83-1.82,1.08.16,1.66.88,1.89.67S195.67,309.52,194.9,308.59Z"/></g><rect class="tres" width="585" height="750"/></g></g></svg>