<svg xmlns="http://www.w3.org/2000/svg" viewBox="0 0 585 750"><defs><style>.uno{fill:none;opacity:0;}.dos{fill:#fff;stroke-width:5px;}.dos,.tres{stroke:#000;stroke-miterlimit:10;}.tres{stroke-width:2px;}</style></defs><g id="Capa_2" data-name="Capa 2"><g id="Capa_1-2" data-name="Capa 1"><rect class="uno" width="585" height="750"/><g id="e-normal"><path class="dos" d="M158,360.18a55.84,55.84,0,0,0,24,15,57.5,57.5,0,0,0,30,1c5.33-1.15,18.63-4.21,30-16a59.37,59.37,0,0,0,12-61,57.51,57.51,0,0,0-16-23,58.89,58.89,0,0,0-27-13,56.36,56.36,0,0,0-33,3,57.61,57.61,0,0,0-23,18c-13,17-12.28,35.59-12,40C143.3,329,144.63,345.88,158,360.18Z"/><path class="dos" d="M314.15,367.1a55.84,55.84,0,0,0,24,15,57.5,57.5,0,0,0,30,1c5.33-1.15,18.63-4.2,30-16a59.37,59.37,0,0,0,12-61,57.51,57.51,0,0,0-16-23,59,59,0,0,0-27-13,56.45,56.45,0,0,0-33,3,57.81,57.81,0,0,0-23,18c-13,17-12.28,35.59-12,40C299.45,335.89,300.78,352.81,314.15,367.1Z"/><path class="tres" d="M351.9,316.73a5.56,5.56,0,0,0-2.49-1.94,5.22,5.22,0,0,0-3.16-.06c-2.28.59-3.57,2.38-4.5,3.7a15.59,15.59,0,0,0-2.68,7.54,16.45,16.45,0,0,0,2,9.22,10.31,10.31,0,0,0,3.7,4.5,7.72,7.72,0,0,0,6,1.06c2.63-.75,3.88-3,4.84-4.65a11,11,0,0,0,1.4-6.93c0-.14-.43-2.49-1.22-2.55-.46,0-.65.73-1.61,1.55a5.91,5.91,0,0,1-2.55,1.21c-.81.19-2.69.64-4.11-.39-1.7-1.25-1.55-3.78-1.49-4.78a6.09,6.09,0,0,1,1.34-3.77c.16-.17,1.86-2.11,3.83-1.82,1.08.15,1.66.88,1.89.67S352.67,317.67,351.9,316.73Z"/><path class="tres" d="M194.9,308.73a5.56,5.56,0,0,0-2.49-1.94,5.22,5.22,0,0,0-3.16-.06c-2.28.59-3.57,2.38-4.5,3.7a15.59,15.59,0,0,0-2.68,7.54,16.45,16.45,0,0,0,2,9.22,10.31,10.31,0,0,0,3.7,4.5,7.72,7.72,0,0,0,6,1.06c2.63-.75,3.88-3,4.84-4.65a11,11,0,0,0,1.4-6.93c0-.14-.43-2.49-1.22-2.55-.46,0-.65.73-1.61,1.55a5.91,5.91,0,0,1-2.55,1.21c-.81.19-2.69.64-4.11-.39-1.7-1.25-1.55-3.78-1.49-4.78a6.09,6.09,0,0,1,1.34-3.77c.16-.17,1.86-2.11,3.83-1.82,1.08.15,1.66.88,1.89.67S195.67,309.67,194.9,308.73Z"/></g><path class="dos" d="M146.5,274.68l9,7"/><path class="dos" d="M153.5,265.68l9,9"/><path class="dos" d="M162.5,259.68l8,10"/><path class="dos" d="M172.5,254.68l6,10"/><path class="dos" d="M184.5,249.68q2,6.49,4,13"/><path class="dos" d="M197.5,247.68q1,7,2,14"/><path class="dos" d="M211.53,249.13l-2.24,12.53"/><path class="dos" d="M225.6,253.09,222,265.37"/><path class="dos" d="M235.42,258.43q-2.4,5.32-4.78,10.64"/><path class="dos" d="M246.38,265.42,238,276.13"/><path class="dos" d="M255.45,274.94l-10.34,9.65"/><path class="dos" d="M302.5,281.68l9,7"/><path class="dos" d="M309.5,272.68l9,9"/><path class="dos" d="M318.5,266.68l8,10"/><path class="dos" d="M328.5,261.68l6,10"/><path class="dos" d="M340.5,256.68q2,6.49,4,13"/><path class="dos" d="M353.5,254.68q1,7,2,14"/><path class="dos" d="M367.53,256.13l-2.24,12.53"/><path class="dos" d="M381.6,260.09,378,272.37"/><path class="dos" d="M391.42,265.43q-2.4,5.32-4.78,10.64"/><path class="dos" d="M402.38,272.42,394,283.13"/><path class="dos" d="M411.45,281.94l-10.34,9.65"/></g></g></svg>