<svg xmlns="http://www.w3.org/2000/svg" viewBox="0 0 585 750"><defs><style>.uno{fill:none;opacity:0;}.dos,.cuatrob{fill:#fff;}.dos,.tres{stroke:#000;}.dos,.tres,.cuatrob{stroke-miterlimit:10;}.dos{stroke-width:5px;}.tres,.cuatrob{stroke-width:2px;}.cuatrob{stroke:#fff;}</style></defs><g id="Capa_2" data-name="Capa 2"><g id="Capa_1-2" data-name="Capa 1"><rect class="uno" width="585" height="750"/><path class="dos" d="M158,359a55.84,55.84,0,0,0,24,15,57.5,57.5,0,0,0,30,1c5.33-1.15,18.63-4.2,30-16a59.37,59.37,0,0,0,12-61,57.51,57.51,0,0,0-16-23,58.89,58.89,0,0,0-27-13,56.45,56.45,0,0,0-33,3,57.61,57.61,0,0,0-23,18c-13,17-12.28,35.59-12,40C143.3,327.82,144.63,344.73,158,359Z"/><path class="dos" d="M314.15,366a55.84,55.84,0,0,0,24,15,57.5,57.5,0,0,0,30,1c5.33-1.15,18.63-4.2,30-16a58.45,58.45,0,0,0,14-26,59.14,59.14,0,0,0-2-35,57.57,57.57,0,0,0-16-23,59,59,0,0,0-27-13,56.45,56.45,0,0,0-33,3,57.81,57.81,0,0,0-23,18c-13,17-12.28,35.59-12,40C299.45,334.74,300.78,351.66,314.15,366Z"/><path class="tres" d="M241,320a56.41,56.41,0,0,1-5,20,57.46,57.46,0,0,1-15,19c-5.78,4.85-21.74,18.23-40.13,14.14C170,370.76,163.07,363.34,159,359a55.42,55.42,0,0,1-12-20c-5.1-15-2.23-27.81-1-33a57.33,57.33,0,0,1,10-22,56.21,56.21,0,0,1,17-15,50.47,50.47,0,0,1,21-7c2.59-.24,10.92-.95,19,2C233.61,271.54,242.28,300.11,241,320Z"/><path class="cuatrob" d="M153,343c.41,1,3.22,7.42,10,9a14.6,14.6,0,0,0,9-1c1.83-.75,6.15-2.52,8-7,1.92-4.67-.13-9.12-1-11-.69-1.5-3.52-7.64-10-9a14,14,0,0,0-10,2c-1.16.68-5.86,3.44-7,9A13.35,13.35,0,0,0,153,343Z"/><path class="cuatrob" d="M171,313c7.52,3.09,14.8,1.67,18,1,6.81-1.43,11.84-2.48,15-7,4.29-6.14,1.9-14,1-17-.79-2.62-2.52-8.32-8-12-6.74-4.53-14.4-2.81-18-2s-10.63,2.39-15,9a20.72,20.72,0,0,0-3,14c.26,2.1.9,7.22,5,11A16.61,16.61,0,0,0,171,313Z"/><path class="tres" d="M398,326a56.41,56.41,0,0,1-5,20,57.46,57.46,0,0,1-15,19c-5.78,4.85-21.74,18.23-40.13,14.14C327,376.76,320.07,369.34,316,365a55.42,55.42,0,0,1-12-20c-5.1-15-2.23-27.81-1-33a57.33,57.33,0,0,1,10-22,56.21,56.21,0,0,1,17-15,50.47,50.47,0,0,1,21-7c2.59-.24,10.92-.95,19,2C390.61,277.54,399.28,306.11,398,326Z"/><path class="cuatrob" d="M310,349c.41,1,3.22,7.42,10,9a14.6,14.6,0,0,0,9-1c1.83-.75,6.15-2.52,8-7,1.92-4.67-.13-9.12-1-11-.69-1.5-3.52-7.64-10-9a14,14,0,0,0-10,2c-1.16.68-5.86,3.44-7,9A13.35,13.35,0,0,0,310,349Z"/><path class="cuatrob" d="M328,319c7.52,3.09,14.8,1.67,18,1,6.81-1.43,11.84-2.48,15-7,4.29-6.14,1.9-14,1-17-.79-2.62-2.52-8.32-8-12-6.74-4.53-14.4-2.81-18-2s-10.63,2.39-15,9a20.72,20.72,0,0,0-3,14c.26,2.1.9,7.22,5,11A16.61,16.61,0,0,0,328,319Z"/></g></g></svg>