<svg xmlns="http://www.w3.org/2000/svg" viewBox="0 0 585 750"><defs><style>.uno{fill:none;opacity:0;}.dos,.cuatrob{fill:#fff;}.dos,.tres,.cincob{stroke:#000;}.dos,.tres,.cuatrob,.cincob{stroke-miterlimit:10;}.dos{stroke-width:5px;}.tres,.cuatrob{stroke-width:2px;}.cuatrob{stroke:#fff;}.cincob{fill:aqua;stroke-width:4px;}</style></defs><g id="Capa_2" data-name="Capa 2"><g id="Capa_1-2" data-name="Capa 1"><rect class="uno" width="585" height="750"/><path class="dos" d="M158,359.69a55.84,55.84,0,0,0,24,15,57.5,57.5,0,0,0,30,1c5.33-1.15,18.63-4.2,30-16a58.45,58.45,0,0,0,14-26,59.14,59.14,0,0,0-2-35,57.51,57.51,0,0,0-16-23,59,59,0,0,0-27-13,56.45,56.45,0,0,0-33,3,57.81,57.81,0,0,0-23,18c-13,17-12.28,35.59-12,40C143.3,328.48,144.63,345.4,158,359.69Z"/><path class="dos" d="M314.15,366.61a55.64,55.64,0,0,0,24,15,57.39,57.39,0,0,0,30,1c5.33-1.14,18.63-4.2,30-16a58.45,58.45,0,0,0,14-26,59.14,59.14,0,0,0-2-35,57.57,57.57,0,0,0-16-23,59,59,0,0,0-27-13,56.53,56.53,0,0,0-33,3,57.81,57.81,0,0,0-23,18c-13,17-12.28,35.59-12,40C299.45,335.4,300.78,352.32,314.15,366.61Z"/><path class="tres" d="M241,320.69a56.33,56.33,0,0,1-5,20,57.46,57.46,0,0,1-15,19c-5.78,4.85-21.74,18.23-40.13,14.14C170,371.42,163.07,364,159,359.69a55.42,55.42,0,0,1-12-20c-5.1-15-2.23-27.8-1-33a57.33,57.33,0,0,1,10-22,56.21,56.21,0,0,1,17-15,50.47,50.47,0,0,1,21-7c2.59-.24,10.92-.94,19,2C233.61,272.2,242.28,300.78,241,320.69Z"/><path class="cuatrob" d="M153,343.69c.41,1,3.22,7.42,10,9a14.52,14.52,0,0,0,9-1c1.83-.75,6.15-2.51,8-7,1.92-4.67-.13-9.12-1-11-.69-1.5-3.52-7.64-10-9a14,14,0,0,0-10,2c-1.16.68-5.86,3.44-7,9A13.33,13.33,0,0,0,153,343.69Z"/><path class="cuatrob" d="M171,313.69c7.52,3.1,14.8,1.67,18,1,6.81-1.43,11.84-2.48,15-7,4.29-6.14,1.9-14,1-17-.79-2.62-2.52-8.32-8-12-6.74-4.53-14.4-2.81-18-2s-10.63,2.39-15,9a20.73,20.73,0,0,0-3,14c.26,2.1.9,7.23,5,11A16.39,16.39,0,0,0,171,313.69Z"/><path class="tres" d="M398,326.69a56.33,56.33,0,0,1-5,20,57.46,57.46,0,0,1-15,19c-5.78,4.85-21.74,18.23-40.13,14.14C327,377.42,320.07,370,316,365.69a55.42,55.42,0,0,1-12-20c-5.1-15-2.23-27.8-1-33a57.33,57.33,0,0,1,10-22,56.21,56.21,0,0,1,17-15,50.47,50.47,0,0,1,21-7c2.59-.24,10.92-.94,19,2C390.61,278.2,399.28,306.78,398,326.69Z"/><path class="cuatrob" d="M310,349.69c.41,1,3.22,7.42,10,9a14.52,14.52,0,0,0,9-1c1.83-.75,6.15-2.51,8-7,1.92-4.67-.13-9.12-1-11-.69-1.5-3.52-7.64-10-9a14,14,0,0,0-10,2c-1.16.68-5.86,3.44-7,9A13.33,13.33,0,0,0,310,349.69Z"/><path class="cuatrob" d="M328,319.69c7.52,3.1,14.8,1.67,18,1,6.81-1.43,11.84-2.48,15-7,4.29-6.14,1.9-14,1-17-.79-2.62-2.52-8.32-8-12-6.74-4.53-14.4-2.81-18-2s-10.63,2.39-15,9a20.73,20.73,0,0,0-3,14c.26,2.1.9,7.23,5,11A16.39,16.39,0,0,0,328,319.69Z"/><path class="cincob" d="M155.44,358.33c2-.67,3.62-.46,6-.24,6.75.62,6.36.1,8,.68,3,1,2.8,2.24,6.15,3.75.8.36,1.47.59,8.08,1.68s6.22.9,10.07,1.59a42.52,42.52,0,0,0,5,.8,25.92,25.92,0,0,0,7-.28c3-.56,2.69-1.15,6.91-2.28a35.82,35.82,0,0,1,7-1.28c.61-.05.55,0,5-.2,3.66-.15,3.35-.15,4-.16,4.32-.1,6.51-.14,8,.68.43.22,2.9,1.54,3.16,3.87a4.71,4.71,0,0,1-.88,3c-1.27,2.07-3,2.71-5.83,4.24-4.56,2.48-3.66,2.83-6.84,4.28a34.28,34.28,0,0,1-7.91,2.32c-4.76,1-5,.37-7.95,1.32-3.38,1.1-3.45,2.07-6.88,3.28a25.13,25.13,0,0,1-7.95,1.32c-3.74.11-6.44-.5-11.07-1.56a29.8,29.8,0,0,1-6.08-1.76c-1.88-.84-5.24-2.4-7.23-5.71a19.83,19.83,0,0,0-1.08-2c-1-1.4-2.16-2.13-5.16-3.79-2.45-1.36-2.92-1.55-5.11-2.8a16.13,16.13,0,0,1-4.12-2.84,13.84,13.84,0,0,1-2.12-2.91c-.87-1.48-1.3-2.23-1.12-3C152.83,359.18,154.55,358.62,155.44,358.33Z"/><path class="cincob" d="M398,365.83c-2-.74-3.6-.59-6-.46-6.77.38-6.36-.13-8.05.39-3.07.93-2.89,2.14-6.29,3.53-.82.33-1.49.53-8.13,1.38s-6.26.68-10.13,1.23a43.46,43.46,0,0,1-5.06.61,25.93,25.93,0,0,1-7-.54c-3-.67-2.65-1.24-6.82-2.53a37.52,37.52,0,0,0-6.91-1.53c-.61-.07-.55,0-5-.38-3.66-.28-3.34-.27-4-.31-4.32-.26-6.51-.37-8,.39-.44.21-3,1.44-3.3,3.76a4.7,4.7,0,0,0,.77,3.06c1.19,2.12,2.92,2.82,5.67,4.45,4.47,2.65,3.56,3,6.68,4.53a34,34,0,0,0,7.82,2.6c4.72,1.14,5,.56,7.9,1.61,3.34,1.23,3.37,2.2,6.75,3.53a24.87,24.87,0,0,0,7.9,1.61c3.73.25,6.45-.27,11.12-1.15a30.21,30.21,0,0,0,6.14-1.54c1.91-.78,5.32-2.21,7.43-5.45.62-.93.52-1.09,1.15-1.91,1.07-1.37,2.24-2.06,5.3-3.61,2.5-1.27,3-1.44,5.21-2.61a16.39,16.39,0,0,0,4.22-2.68,13.84,13.84,0,0,0,2.22-2.84c.92-1.44,1.38-2.18,1.23-2.91C400.54,366.78,398.84,366.15,398,365.83Z"/></g></g></svg>