<svg xmlns="http://www.w3.org/2000/svg" viewBox="0 0 585 750"><defs><style>.uno{fill:none;opacity:0;}.dos{stroke:#000;stroke-miterlimit:10;stroke-width:5px;}.tres{fill:#fff;}</style></defs><g id="Capa_2" data-name="Capa 2"><g id="Capa_1-2" data-name="Capa 1"><rect class="uno" width="585" height="750"/><path class="dos" d="M158,361a55.84,55.84,0,0,0,24,15,57.5,57.5,0,0,0,30,1c5.33-1.15,18.63-4.2,30-16a59.37,59.37,0,0,0,12-61,57.51,57.51,0,0,0-16-23,58.89,58.89,0,0,0-27-13,56.45,56.45,0,0,0-33,3,57.61,57.61,0,0,0-23,18c-13,17-12.28,35.59-12,40C143.3,329.82,144.63,346.73,158,361Z"/><path class="dos" d="M314.15,368a55.84,55.84,0,0,0,24,15,57.5,57.5,0,0,0,30,1c5.33-1.15,18.63-4.2,30-16a58.45,58.45,0,0,0,14-26,59.14,59.14,0,0,0-2-35,57.57,57.57,0,0,0-16-23,59,59,0,0,0-27-13,56.45,56.45,0,0,0-33,3,57.81,57.81,0,0,0-23,18c-13,17-12.28,35.59-12,40C299.45,336.74,300.78,353.66,314.15,368Z"/><path class="tres" d="M160.72,358.37a52.38,52.38,0,0,0,22.57,14.11,54.08,54.08,0,0,0,28.21.94c5-1.08,17.52-3.95,28.21-15.05a54.89,54.89,0,0,0,13.17-24.45A55.63,55.63,0,0,0,251,301,54.1,54.1,0,0,0,236,279.38a55.5,55.5,0,0,0-25.39-12.22,53.08,53.08,0,0,0-31,2.82,54.36,54.36,0,0,0-21.63,16.93c-12.19,15.95-11.55,33.47-11.28,37.61C146.9,329,148.15,344.93,160.72,358.37Z"/><path class="tres" d="M316.72,365.37a52.38,52.38,0,0,0,22.57,14.11,54.08,54.08,0,0,0,28.21.94c5-1.08,17.52-3.95,28.21-15.05a54.89,54.89,0,0,0,13.17-24.45A55.63,55.63,0,0,0,407,308,54.1,54.1,0,0,0,392,286.38a55.5,55.5,0,0,0-25.39-12.22,53.08,53.08,0,0,0-31,2.82,54.36,54.36,0,0,0-21.63,16.93c-12.19,15.95-11.55,33.47-11.28,37.61C302.9,336,304.15,351.93,316.72,365.37Z"/></g></g></svg>