<svg xmlns="http://www.w3.org/2000/svg" viewBox="0 0 585 750"><defs><style>.cls-1{fill:none;opacity:0;}.doos{fill:#faf1a4;}.doos,.cls-3,.cuuatro{stroke:#000;stroke-miterlimit:10;stroke-width:6px;}.cls-3{fill:#e6e6e6;}.cuuatro{fill:#fff;}</style></defs><g id="Capa_2" data-name="Capa 2"><g id="Capa_1-2" data-name="Capa 1"><rect class="cls-1" width="585" height="750"/><g id="h-flap"><path class="doos" d="M97,217.06c-1.15-1.42-17.62,5.45-29,21a63.81,63.81,0,0,0-12,39,62.83,62.83,0,0,0,11,33,30.79,30.79,0,0,1,9-13,27.65,27.65,0,0,1,17-7c2.58-.1,9-.4,15,4a21.43,21.43,0,0,1,7,9c.57-12.16,1.54-24.85,3-38q.9-8.16,2-16a60.15,60.15,0,0,1-9,1c-7,.22-11.08.36-15-2a17.25,17.25,0,0,1-8-14C87.9,224.33,98,218.22,97,217.06Z"/><path class="doos" d="M474,269.06c2.72.94,10.56,3.27,19,0,9.46-3.68,13.54-12,16-17a44.5,44.5,0,0,0,4-25,80.86,80.86,0,0,1,16,17,85.79,85.79,0,0,1,12,26c4,14.21,7.78,28,1,41-5.78,11.1-17.38,18.05-19,19a51.66,51.66,0,0,1-6,3,26.19,26.19,0,0,0-4-15,26.67,26.67,0,0,0-15-11,31,31,0,0,0-11-1,49.3,49.3,0,0,0-16.5,3.5,2.58,2.58,0,0,0-.05.76,14,14,0,0,0,.55-2.26s1.21-5.25,2-11A177.89,177.89,0,0,0,474,269.06Z"/><path class="doos" d="M211,134.06a44.61,44.61,0,0,1-14-21c-1.07-3.53-4.45-14.62,0-25,6.2-14.47,23.79-18.77,37-22,20.66-5.06,39.39-2.62,53,1-14.38-3.15-26.84-.44-31,7-2.07,3.69-1.61,7.71-1,13a43.08,43.08,0,0,0,27,35c-4.15.15-10,.44-17,1a242.21,242.21,0,0,0-26,3,127.66,127.66,0,0,0-23,6C213.91,132.84,212.19,133.55,211,134.06Z"/><path class="cls-3" d="M437,112.06a73.58,73.58,0,0,0,3-17c.39-6.91.62-12.12-2-18-1.13-2.55-3.14-7-8-10-6.23-3.79-12.87-2.44-15-2-5.72,1.16-9.33,4.14-14,8a59.14,59.14,0,0,0-11,12"/><path class="cuuatro" d="M340,128.06q5.5-29,11-58a247.91,247.91,0,0,1,43,17,252.88,252.88,0,0,1,73,56l-30,27a146.68,146.68,0,0,0-30-21c-11.34-6-20.66-9-30-12A261,261,0,0,0,340,128.06Z"/></g></g></g></svg>