<svg xmlns="http://www.w3.org/2000/svg" viewBox="0 0 586.69 750"><defs><style>.x1{stroke:#000;stroke-linecap:round;stroke-miterlimit:10;stroke-width:4px;}.x2{opacity:0.67;}.x3{fill:gray;}.x4{fill:none;}</style></defs><g id="Capa_2" data-name="Capa 2"><g id="Capa_1-2" data-name="Capa 1"><g id="h-goku"><path class="x1" d="M457,375.51c-1.72-5.33-7.51-25.49,2.48-46.51a60.56,60.56,0,0,1,16.65-21,24.78,24.78,0,0,1-3.2-9.92c-.19-1.9-1.47-6.36,1.16-10.06a101.07,101.07,0,0,1,6.65-8.33c29-32.62,72.92-38.77,98.32-39.8a166.41,166.41,0,0,0-29-11.68c-37-11-69.78-6.63-89.38-2.14A259.11,259.11,0,0,1,558,176.73a582.34,582.34,0,0,0-70.42-7.94c-19.84-1-53.49-1.59-53.49-1.59a83.59,83.59,0,0,0-47.69-31.94c-2.92-15.4-11-45.94-35.88-74.26-41.25-46.91-97.4-52.14-110-53a167.24,167.24,0,0,1,12,19A172.47,172.47,0,0,1,272,89.5a128.45,128.45,0,0,0-33.6-38.61c-5-3.78-19-13.84-65.07-27.17A607,607,0,0,0,103.92,8l53.63,65.06-56.49,7.87a302.71,302.71,0,0,1,36.47,25.74,304.56,304.56,0,0,1,32.89,31.46,164.77,164.77,0,0,0-50-16.45C65,113,20.78,135.77,4.54,145.27a350.17,350.17,0,0,1,47.9,23.59,352.9,352.9,0,0,1,80.8,65.79A286.26,286.26,0,0,0,11.72,260.39,167.66,167.66,0,0,1,61,269.68,169.1,169.1,0,0,1,118.61,304q-3,15-6.11,30c2.9,6.64,5.74,13.87,8.37,21.67a267.18,267.18,0,0,1,9.81,38.22,180.51,180.51,0,0,1,42.6-130,11.31,11.31,0,0,1,5.72,0,12,12,0,0,1,7.15,5.72,101.3,101.3,0,0,0,20,38.61,120.91,120.91,0,0,1,1.43-22.88c2-12.38,3.73-23.45,12.16-32.89a42,42,0,0,1,13.58-10v65.07a222.88,222.88,0,0,1,17.88-30.75c8.7-12.53,16.72-23.88,30.74-34.32a108,108,0,0,1,24.31-13.58,146.75,146.75,0,0,1,7.87,26.45,151.79,151.79,0,0,1-1.43,64.35,202.3,202.3,0,0,0,18.59-23.59,205.05,205.05,0,0,0,27.88-61.49,89.13,89.13,0,0,1,15.73,57.2A247.22,247.22,0,0,0,392.79,274c6-6.69,10.2-12.09,16.44-12.15a10.76,10.76,0,0,1,6.44,2.14c4.26,3.2,4.07,9.48,4.29,13.59A71.06,71.06,0,0,0,426.47,303c-3.07,5.12-7.76,14.82-7,27C420.69,349.55,435.46,367.27,457,375.51Z"/><g class="x2"><path class="x3" d="M204.7,168.79a328.24,328.24,0,0,0-55.53-58.94,326,326,0,0,0-36-25.87l36.38-4.55L127.83,86a1.42,1.42,0,0,0-1,1.78,1.44,1.44,0,0,0,1,1A175.63,175.63,0,0,1,197.33,127a172.17,172.17,0,0,1,32.17,39.22Z"/><path class="x3" d="M133,82.94l-5.54,1.67a2.87,2.87,0,0,0,0,5.5,174,174,0,0,1,68.94,38,170.62,170.62,0,0,1,30.74,37l-9.46,1-12.32,1.26a330,330,0,0,0-55.29-58.53A327.4,327.4,0,0,0,117.29,84.9l15.63-2m33.19-7-57.2,7.15A324.71,324.71,0,0,1,148.23,111,326.41,326.41,0,0,1,204,170.29l27.89-2.86A174.25,174.25,0,0,0,198.28,126a176.27,176.27,0,0,0-70.07-38.61l37.9-11.44Z"/><path class="x3" d="M148,239.49a445.33,445.33,0,0,0-58.24-48.9,444.44,444.44,0,0,0-73.59-41.86,269.75,269.75,0,0,1,58.63,18.59,271.6,271.6,0,0,1,91.65,67.26Z"/><path class="x3" d="M28.5,152.93a267.36,267.36,0,0,1,45.64,15.68,269.3,269.3,0,0,1,57.2,34.84,277.73,277.73,0,0,1,32.42,30.34l-6.23,1.67-9.13,2.43a446.54,446.54,0,0,0-57.83-48.48,446.51,446.51,0,0,0-62-36.47m-24-7.67a442.55,442.55,0,0,1,84.37,46.47,442.78,442.78,0,0,1,58.63,49.34L169,235.36A275.22,275.22,0,0,0,75.32,166,271.8,271.8,0,0,0,4.54,145.27Z"/><path class="x3" d="M125.85,303.1c-1.57,1.52-16.08-16.58-39.41-29.08-25.16-13.48-50.69-15.13-68.7-14.3,8.7-3,17.58-5.72,26.45-8,9.61-2.45,19.41-4.46,29.25-6l-25,9a1.43,1.43,0,0,0-.86,1.83,1.45,1.45,0,0,0,1,.9q7.22,2,14.36,4.18c10.84,3.34,31,8.83,39.81,14.35C118.61,286,127.21,301.79,125.85,303.1Z"/><path class="x3" d="M56.26,250.41l-8.35,3a2.86,2.86,0,0,0,.21,5.45,452.9,452.9,0,0,1,52.81,18q-7-2.2-14.1-4.19a510.09,510.09,0,0,0-62.92-13.48c6.83-2.25,13.76-4.29,20.69-6q5.81-1.49,11.69-2.74m30.5-7.9a320.86,320.86,0,0,0-75.07,17.88q18.84,2.34,37.46,6.11c18.77,3.79,28.21,5.43,36.9,8.9,10.14,4.05,26.17,12.65,42,32.6a83.94,83.94,0,0,0-21.23-30.24C84,257.23,56.8,256.13,48.9,256.1Z"/><path class="x3" d="M138,43.62,124.83,24.18c11.92,6.57,23.6,13.77,34.77,21.45s22,15.92,32.33,24.64A54.52,54.52,0,0,0,176.6,68h-1.2a54,54,0,0,0-17.33,3.29Z"/><path class="x3" d="M129.4,28.39c10,5.72,19.9,11.89,29.39,18.42s18.64,13.4,27.54,20.67a55.62,55.62,0,0,0-9.73-.88h-1.24a55,55,0,0,0-16.72,3l-9.11-12.56L139.16,42.82,131,30.7l-1.57-2.31m-9-8.25,16.44,24.31,20.74,28.6a52.56,52.56,0,0,1,17.87-3.57h1.18a53.12,53.12,0,0,1,22.42,5,416.52,416.52,0,0,0-38.61-30,417.21,417.21,0,0,0-40-24.31Z"/><path class="x3" d="M276.15,92.4c-2.39-10.58-4.56-21.9-6.37-33.91Q268,46.34,266.86,35a155.71,155.71,0,0,1,25.89,75.18Z"/><path class="x3" d="M263.78,19.9A331.74,331.74,0,0,1,281.37,66a332.6,332.6,0,0,1,9.23,39.79l-3.68-3.94-9.44-10.11c-2.06-11.13-4.18-22.41-6.29-33.52-2.42-12.72-4.9-25.54-7.41-38.32M240.47,8a148.79,148.79,0,0,1,27.91,50.75,147.14,147.14,0,0,1,6.43,34.32l20,21.45a141.47,141.47,0,0,0-10.72-49.33A143.29,143.29,0,0,0,240.47,8Z"/><path class="x3" d="M424.88,197A47.24,47.24,0,0,0,420,179.19a348.38,348.38,0,0,1,43-5.33c7.05-.44,14.21-.66,21.27-.66a352.33,352.33,0,0,1,47.59,3.26c-19.11,2.19-38.26,5.15-57.07,8.86C458.06,188.63,441.29,192.56,424.88,197Z"/><path class="x3" d="M484.22,174.65a346.52,346.52,0,0,1,35.72,1.84c-15.25,2-30.48,4.49-45.48,7.45-16.15,3.18-32.39,7-48.31,11.28a49.61,49.61,0,0,0-1.27-7.05,48.17,48.17,0,0,0-2.8-7.9,348,348,0,0,1,41-5c7-.43,14.15-.64,21.18-.64m0-2.86c-6.89,0-14,.2-21.36.65a350.25,350.25,0,0,0-45.05,5.72,45.46,45.46,0,0,1,5.72,20.74c16-4.41,33.17-8.55,51.48-12.16,24.19-4.76,46.94-7.94,67.93-10A352.23,352.23,0,0,0,484.22,171.76Z"/><path class="x3" d="M321.79,290.59a116.39,116.39,0,0,0-13.11-60.21,42.14,42.14,0,0,1,19.94,5.9,77.72,77.72,0,0,1,2,23.3A78.87,78.87,0,0,1,321.79,290.59Z"/><path class="x3" d="M311.1,232a40.56,40.56,0,0,1,16.27,5.21,76,76,0,0,1-4,46.6A117.77,117.77,0,0,0,311.1,232M307,228.92h-.71a115,115,0,0,1,13.58,67.92A80.62,80.62,0,0,0,332,259.66a79.29,79.29,0,0,0-2.15-24.31A43.74,43.74,0,0,0,307,228.92Z"/><path class="x3" d="M234.8,245a287.34,287.34,0,0,1,23.27-34.49c5.84-7.45,12.15-14.68,18.68-21.52l12.39,2.15a136,136,0,0,0-29.07,29.79,138.17,138.17,0,0,0-23.38,56.32Z"/><path class="x3" d="M277.26,190.54,284,191.7l1.71.3a137,137,0,0,0-48.19,74.66l-1.25-21.32a288.19,288.19,0,0,1,22.94-34,274.81,274.81,0,0,1,18.07-20.85m-1-3.09a289.32,289.32,0,0,0-42.9,57.21q1.42,24.3,2.86,48.62c.92-14.08,4.83-43.13,25-71.51a135,135,0,0,1,31.46-31.46Z"/><path class="x3" d="M191.24,277a92.08,92.08,0,0,1,5.29-66.32L217.16,201a189,189,0,0,0-18.75,37.49c-4.62,12.62-8.58,23.52-7.23,37.81C191.19,276.51,191.21,276.77,191.24,277Z"/><path class="x3" d="M213.33,204.34A189.1,189.1,0,0,0,197.05,238c-3.27,8.94-6.23,17-7.23,26.1a89.56,89.56,0,0,1-.81-19.22,91.18,91.18,0,0,1,8.58-33.07l11.95-5.64,3.79-1.78m7.86-6.88-25.74,12.15a94.54,94.54,0,0,0-9.29,35c-1.78,27.58,9.29,48.28,14.3,56.48a64.83,64.83,0,0,1-7.87-25c-1.31-13.69,2.33-24,7.15-37.18A187,187,0,0,1,221.19,197.46Z"/></g></g><rect class="x4" x="0.47" width="585" height="750"/></g></g></svg>