<svg xmlns="http://www.w3.org/2000/svg" viewBox="0 0 585 750"><defs><style>.unno,.doos{fill:none;}.unno{stroke:#000;stroke-miterlimit:10;stroke-width:6px;}.doos{opacity:0;}</style></defs><g id="Capa_2" data-name="Capa 2"><g id="Capa_1-2" data-name="Capa 1"><path class="unno" d="M424,299.79q5.5-10,11-20,4,8.49,8,17l9-19q2,8.49,4,17,2.5-11,5-22,3.5,9.49,7,19"/><path class="unno" d="M259.41,120.25c3.51-6.9,13.12-23.33,32.28-31.21,27.52-11.33,65.24-1.4,79.5,26.52,12,23.39,1.64,48-.19,52.23"/><path class="unno" d="M216,132.71c3.68-7.26,13.73-24.55,33.85-32.89,30.14-12.49,72-.42,83.62,27.66,5.89,14.26,2.31,28.68-.2,36.07"/><rect class="doos" width="585" height="750"/></g></g></svg>