<svg xmlns="http://www.w3.org/2000/svg" viewBox="0 0 585 750"><defs><style>.unno{fill:none;opacity:0;}.doos{fill:#fff;}</style></defs><g id="Capa_2" data-name="Capa 2"><g id="Capa_1-2" data-name="Capa 1"><rect class="unno" width="585" height="750"/><g id="h-lee"><path d="M130,396c-3.87-24.86-5.88-45.58-7-61-.92-12.7-1.33-22.62,0-35,1.21-11.31,2.33-21.76,8-34,3.37-7.27,7.87-14.15,13-22,3.56-5.45,6.72-9.88,9-13a100.27,100.27,0,0,1,4-51,131.11,131.11,0,0,0,5,43l48-15a168.69,168.69,0,0,1,10-52,189.34,189.34,0,0,0-1,37c.43,6,1.13,11.72,2,17l60-3a176.85,176.85,0,0,1,8-50q2,25,4,50c10.27-.1,21.31.17,33,1a407.64,407.64,0,0,1,41,5q.81-9.25,2-19,1.72-14.07,4-27a231.13,231.13,0,0,1,9,48c5.08.8,10.43,1.78,16,3s11,2.59,16,4a211.18,211.18,0,0,1,3-26c.88-4.93,1.9-9.6,3-14l6,46c10.19,7.35,25.57,21.16,33,43,2.4,7.06,4.72,17.73,1,55a623.62,623.62,0,0,1-10,65,266,266,0,0,0,43-67c5.13-11.49,13.65-30.5,18-57,3.44-21,11.68-74.9-19.08-129.35-1.67-3-3-5.2-3.92-6.65-28.61-46.89-69.9-67-89-76C333.54,24.18,273,34.68,250,39c-29.16,5.48-77.12,14.49-117,56-34.61,36-43.73,78.23-49,102a241.4,241.4,0,0,0-3,90C89.76,340.39,115.31,377.66,130,396Z"/><path class="doos" d="M123,141c2.5,5.18,14,5.55,28,6,3.27.11,6,.06,8,0a108.26,108.26,0,0,1,10-20c5.61-8.77,14-19,14-19,1.26-1.45,2.59-3.43,2-5-.84-2.25-5.07-2.31-11-3-13-1.52-12.72-3.9-17-3-3.94.83-7.64,2.93-21,21C121.86,137.13,122.37,139.69,123,141Z"/><path class="doos" d="M172,145c2.48-6.58,5.44-13.63,9-21,3.93-8.14,8-15.48,12-22l43,3q.5,6.5,1,13l6-11h0a80,80,0,0,1,11-1,41.07,41.07,0,0,1,9,1,83.07,83.07,0,0,0-11,38l-41,2V129l-12,16Z"/><path class="doos" d="M264,142a79.72,79.72,0,0,1,9-35l39,1q-.5,15.5-1,31a116.19,116.19,0,0,1-47,3Z"/><path class="doos" d="M322,107q.5,15.5,1,31c6.06,0,14.26,0,24,0,16.13-.07,23.43-.24,33-2,3.87-.71,7-1.48,9-2l-12-32-30,3q-1,7-2,14a36.5,36.5,0,0,0-6-13,77.1,77.1,0,0,0-17,1Z"/><path class="doos" d="M387,103l9,31q6,.48,12,1c3.69.32,7.36.66,11,1a107.51,107.51,0,0,0-17-36Z"/><path class="doos" d="M418,102a136.43,136.43,0,0,1,11,38,54.31,54.31,0,0,1,16,2c13.38,3.78,22.05,12,24,10,.82-.84-.09-2.94-1-5-6.11-13.76-9.16-20.64-10-22a181.17,181.17,0,0,0-16-22c-3.4-.45-7.07-.81-11-1C426.33,101.77,422,101.81,418,102Z"/></g></g></g></svg>