<svg xmlns="http://www.w3.org/2000/svg" viewBox="0 0 585 750"><defs><style>.unno{fill:#fff;stroke:#000;stroke-miterlimit:10;stroke-width:6px;}.doos{fill:none;opacity:0;}</style></defs><g id="Capa_2" data-name="Capa 2"><g id="Capa_1-2" data-name="Capa 1"><path class="unno" d="M287,118.75c3.41,5.72-1.67,14.43-8,25-6.77,11.31-16.33,27.27-36,39-12.48,7.45-12.09,3.08-40,16-13.76,6.37-16,8.42-25,11-8.65,2.48-13.48,2.57-20,7-5.12,3.48-7.93,7.37-12,13-3.82,5.28-6.6,10.93-12,22-4.29,8.79-6.43,13.35-9,20-5.74,14.88-6.76,23.15-8,23-1.77-.22-1.7-17.32,0-34,1.09-10.69,2.8-29.07,11-52,7.2-20.13,10.86-30.37,20-42,12.32-15.68,26-23,43-32a186.49,186.49,0,0,1,66-20C281.83,112.05,285.85,116.82,287,118.75Z"/><path class="unno" d="M464,303.75c1.73-10.15-5.79-19.05-13-33-11.23-21.74-4.57-22.6-14-38s-21.91-24.07-29-29a116.75,116.75,0,0,0-30-15c-16.26-5.36-29.6-5.75-41-6-13.05-.28-10,1.16-37,2-5,.16-15.67-.23-37-1a60.9,60.9,0,0,1-14-2c-6-1.59-10.55-2.8-14-6-9.75-9-4.32-27.93-4-29,3.73-12.4,12.94-19.31,18-23,14.07-10.25,29.7-13.06,46-14,54.29-3.11,96.93,15.7,102,18,22.62,10.28,43.66,19.84,61,43,21.46,28.66,24,60.46,25,73,.28,3.47-.48,15.64-2,40-.93,14.88-1.76,24.94-8,28-2.18,1.07-6,1.77-8,0C462.75,309.75,463.73,305.36,464,303.75Z"/><rect class="doos" width="585" height="750"/></g></g></svg>