<svg xmlns="http://www.w3.org/2000/svg" viewBox="0 0 585 750"><defs><style>.unno{fill:#fff;stroke:#000;stroke-miterlimit:10;stroke-width:6px;}.doos{fill:none;opacity:0;}</style></defs><g id="Capa_2" data-name="Capa 2"><g id="Capa_1-2" data-name="Capa 1"><path class="unno" d="M409,217.64c-3.73-6.67-26.76-3.58-45,3-12.2,4.4-17.82,8.75-25,6-5.45-2.09-10.52-7.82-11-14-1.07-13.72,20.94-23,19-27s-25.44,3.17-44,11c-10.89,4.59-30.1,12.69-29,18,1.26,6,27.52,1.9,29,8,1.39,5.72-19.06,20.4-41,19-18-1.15-37.45-13.17-37-24,.5-12.09,25.51-17,24-24-1.12-5.14-16.17-9.23-27-4-6.1,2.94-6.41,6.7-20,25-10.09,13.59-13.15,15.86-17,17-7.24,2.13-15.58-.27-21-5-8.16-7.12-8.06-18.06-8-25,.09-9.8,4-15.51,3-16-1.52-.74-12.65,10.52-15,26-1.53,10.05,1.58,15.71-3,21-4.41,5.08-11.74,5-13,5-10.75-.11-16.7-9.52-17-10-6-9.82-.92-21,0-23,4-8.86,8.88-7.29,16-17,4-5.51,2.88-6.57,12-29,5.28-13,6.43-14.52,8-16,7.95-7.52,20.1-7.86,25-8,8.39-.24,11.82,1.75,21,0a57.18,57.18,0,0,0,10-3c12-4.72,16.23-10.1,23-14,7.25-4.18,8.82-1.71,42-4,20.91-1.44,20.46-2.44,29-2,14.25.73,25.14,4,35,7,17.46,5.34,16,7.29,31,12,12.74,4,14.42,2.8,48,10,18.57,4,24.83,8.19,28,10,5.55,3.16,15.21,8.81,23,20,4.7,6.75,6.54,12.4,10,23,4.06,12.46,6.1,18.69,4,24-1.91,4.83-5.46,5.09-23,14-17.83,9.06-19.85,11.5-26,11-8-.66-17.1-5.85-19-13C406.45,223.79,410.84,220.92,409,217.64Z"/><rect class="doos" width="585" height="750"/></g></g></svg>