<svg xmlns="http://www.w3.org/2000/svg" viewBox="0 0 585 750"><defs><style>.unno{fill:#fff;stroke:#000;stroke-miterlimit:10;stroke-width:6px;}.doos{fill:none;opacity:0;}</style></defs><g id="Capa_2" data-name="Capa 2"><g id="Capa_1-2" data-name="Capa 1"><path class="unno" d="M253,143c.67-5.65,6.27-6.67,13-14,3.58-3.9,3.34-5.09,11-19,8-14.63,7.69-12.22,11-19,6.34-13,11-22.5,11-35,0-7.41-1.57-13.41,2-16,2.5-1.82,6.48-1.2,9,0,1.19.56,3.79,2.07,6,7,2.72,6.06,2,10.91,2,17,0,8.27,1.41,14.12,4,25,2.13,9,3.2,13.44,6,19,4.85,9.61,8.46,10.2,11,19,1.42,4.93.79,6.47,3,13,2,5.83,3.31,7,3,10-.66,6.21-7.47,10.16-9,11-5.51,3-10.8,2.61-18,2-23.42-2-24.63-2.83-37-4-13.49-1.29-19.34-1-24-6C256.29,152.21,252.4,148,253,143Z"/><rect class="doos" width="585" height="750"/></g></g></svg>