<svg xmlns="http://www.w3.org/2000/svg" viewBox="0 0 585 750"><defs><style>.unno{fill:#fff;stroke:#000;stroke-miterlimit:10;stroke-width:6px;}.doos{fill:none;opacity:0;}</style></defs><g id="Capa_2" data-name="Capa 2"><g id="Capa_1-2" data-name="Capa 1"><path class="unno" d="M454,382.79c3.54,1.16-4.32,19.74,0,40a119.29,119.29,0,0,1,3,24c.05,2.13,0,3.88,0,5a24.19,24.19,0,0,1-4,12c-1.89,2.75-5.91,7.21-23,12a163.46,163.46,0,0,1-27,5c-14.59,1.63-14.51.34-29,2s-15.54,3-25,3c-6.45,0-4-.67-21-2-8.42-.65-13.41-.84-14-3-.29-1.06.65-2,5-7,5-5.8,5-6,6-7,5.9-6.12,15.59-8.56,21-10,0,0,12.45-3.31,29-9,9.84-3.38,23-8,37-18a124.49,124.49,0,0,0,20-18C447,395.12,451.06,381.83,454,382.79Z"/><path class="unno" d="M297,482.79c-2.05,3.95-15.39,2.31-42-1-6.59-.82-8.79-1.21-16-2-13.17-1.44-19.75-2.16-27-2-14.38.33-13.64,3.32-25,3-9.47-.26-16.36-2.52-27-6-11.47-3.76-17.21-5.63-22-10-6.32-5.76-8.62-12.34-12-22-1.19-3.41-2.8-12.27-6-30-2.83-15.68-3.09-18.3-2-22a48.81,48.81,0,0,0,2-12c.48-7.15-.51-11.9,0-12,.81-.15,2,11.83,9,25a77.61,77.61,0,0,0,8,12c1.74,2.15,6.15,7.37,16,15a163.77,163.77,0,0,0,25,16c14.2,7.27,26,10.55,35,13a243.76,243.76,0,0,0,29,6c13.36,1.87,17,1.17,27,4,13.31,3.77,18.46,8.31,21,11C291.85,470.75,299.21,478.55,297,482.79Z"/><path class="unno" d="M286,123.79c3.41,5.72-1.67,14.43-8,25-6.77,11.31-16.33,27.27-36,39-12.48,7.45-12.09,3.08-40,16-13.76,6.37-16,8.42-25,11-8.65,2.48-13.48,2.57-20,7-5.12,3.48-7.93,7.37-12,13a97.2,97.2,0,0,0-12,22c-9.68,25.75-4.34,53.74-2,66,1.7,8.9,3.9,16.38,4,29a116.46,116.46,0,0,1-2,22c-6,35.61,10.1,73,7,74-1.75.58-8.32-10.81-14-27-11-31.41-7.16-48.11-10-121-.54-13.82-1.26-21.69,0-34,1.09-10.69,2.8-29.07,11-52,7.2-20.13,10.86-30.37,20-42,12.32-15.68,26-23,43-32a186.49,186.49,0,0,1,66-20C280.83,117.09,284.85,121.86,286,123.79Z"/><path class="unno" d="M442,312.79c-1.87-9.71-5-21-5-21a192.47,192.47,0,0,0-6-19c-6.35-16-16.5-26.44-21-31-14.86-15-19.92-10.63-41-27-20.56-16-19.77-23.28-33-27-7.62-2.14-5.69,1-37,2-5,.16-15.67-.23-37-1a60.9,60.9,0,0,1-14-2c-6-1.59-10.55-2.8-14-6-9.75-9-4.32-27.93-4-29,3.73-12.4,12.94-19.31,18-23,14.07-10.25,29.7-13.06,46-14,54.29-3.11,96.93,15.7,102,18,22.62,10.28,43.66,19.84,61,43,21.46,28.66,24,60.46,25,73,.28,3.47-.48,15.64-2,40-.87,13.94-6.22,23-8,28-18.31,51.25,7.54,91.09-19,129-5.18,7.4-12,14.16-14,13-3.07-1.75,8.7-19.22,10-44,1.1-21-6.79-19.71-8-46C439.88,344.51,446.2,334.6,442,312.79Z"/><rect class="doos" width="585" height="750"/></g></g></svg>