<svg xmlns="http://www.w3.org/2000/svg" viewBox="0 0 585 750"><defs><style>.unno{fill:#fff;stroke:#000;stroke-miterlimit:10;stroke-width:6px;}.doos{fill:none;opacity:0;}</style></defs><g id="Capa_2" data-name="Capa 2"><g id="Capa_1-2" data-name="Capa 1"><path class="unno" d="M443,288.46c-.43,3.65-.52,7.35-1,11-.78,5.93-1.28,7.88,0,10,1.57,2.6,4.65,3.39,7,4a19.3,19.3,0,0,0,13-1,20.07,20.07,0,0,0,9-9c4.49-8.23,1.52-13.85,1-31-.54-17.75,2.38-20.5-1-30-1.59-4.47-5.23-14.71-13-16-7.24-1.21-14,6-17,11-4,6.72-3.53,13.52-3,21C439,273.28,444.34,277.12,443,288.46Z"/><path class="unno" d="M427,281.46c-2.1-1.32-1.95-11.7-5-32-2.22-14.78-3.34-22.17-6-29-5.4-13.84-10.84-15.3-21-33-9.52-16.59-6-18.54-12-26-9.8-12.19-24.42-14.93-48-19-5.69-1-24.36-4-61-3-21.72.58-32.91.89-45,3-16.8,2.93-47.63,11.51-82,42,3.78-27.61,15.69-44.42,22-52,9.89-11.89,20.53-18.56,34-27,8.67-5.43,22.48-14,42-20,17.75-5.49,31.61-6.26,47-7a317.09,317.09,0,0,1,79,6c20.56,4.31,48.27,10.37,78,29,19.6,12.28,27.05,21.86,30,26,13.14,18.41,15.53,37.88,16,48-.84,14.72-4.62,39.91-22,63C458.94,269.14,435.64,286.89,427,281.46Z"/><path class="unno" d="M145.56,180.41a19.05,19.05,0,0,0-22.34-.17c-12,7.94-18.14,26.27-19.61,30.66-3.18,9.45-4.28,20.43-6.49,42.38-.92,9.19-1.48,18,0,27.7a69,69,0,0,0,2.14,9.75l.77.73a18.67,18.67,0,0,1,11,6,17.2,17.2,0,0,1,3,5,219.56,219.56,0,0,0,9.85-36.19c1.91-10.55,1.77-14.26,4.57-27.27.72-3.33,3-13.56,7-26.1,1.56-4.89,3-9,4.17-12,1.43-4.17,3-8.5,4.76-12.93q1.32-3.34,2.63-6.44C146.65,181.22,146.16,180.83,145.56,180.41Z"/><rect class="doos" width="585" height="750"/></g></g></svg>