<svg xmlns="http://www.w3.org/2000/svg" viewBox="0 0 585 750"><defs><style>.unno{fill:#fff;stroke:#000;stroke-miterlimit:10;stroke-width:7px;}.doos{fill:none;opacity:0;}</style></defs><g id="Capa_2" data-name="Capa 2"><g id="Capa_1-2" data-name="Capa 1"><path class="unno" d="M276.5,53.13a77.94,77.94,0,0,0-19-2c-4.81.13-8.55.27-13,2-6,2.34-6.05,4.76-13,9-2.37,1.45-2.67,1.35-17,7-11.94,4.71-13.24,5.37-15,7-4.71,4.37-3.11,6.81-8,13s-10.75,9.24-16,12c-9.77,5.14-12.17,3.4-17,8-5,4.8-7.06,11.09-8,14-2.61,8.11-.33,9.93-3,14-3.49,5.32-8.2,3.46-17,9-2.45,1.54-10.16,6.4-14,15-3.3,7.41,0,9.29-3,20-1.59,5.74-2.46,4.93-8,18-3.46,8.18-5.21,12.36-6,17a53.47,53.47,0,0,0,0,17c1.3,8.88,3.39,8.82,4,17,.17,2.27,0,2.6,0,14,0,4.45,0,8.23,0,9,.12,19.17,8,37,8,37a90.67,90.67,0,0,0,13,21,254.53,254.53,0,0,1-3-33c-.54-21.88-.67-33.53,7-43,4.87-6,6.8-3.64,16-12,12.14-11,11.09-17.25,21-27,10.62-10.44,22.86-14.14,29-16,10.66-3.22,19.44-3.15,37-3,18.9.16,19.75,2.06,32,1,6.84-.59,7.49-1.26,30-6,26.39-5.55,30.07-5.58,34-5,8.3,1.24,9.47,4,28,15,24.27,14.38,36.41,21.57,51,24,10.53,1.75,15.56.45,24,5,2.62,1.41,13.83,7.85,18,20,1.19,3.46.2,2.7,2,10,2.56,10.37,4.55,11.89,6,20a71.78,71.78,0,0,1,1,13,83.07,83.07,0,0,1-1,14,72.74,72.74,0,0,1-8,23,62.21,62.21,0,0,0,17-11c3.94-3.58,14.95-13.62,18-29,3.19-16.08-4.73-26,2-33,4.18-4.36,8.38-1.73,12-6,6.28-7.4,0-22.76-5-35-8.19-20-13.58-20.65-14-32-.35-9.59,3.31-14,0-22-1.39-3.35-3.39-5.82-12-13-12.64-10.53-18.95-15.8-27-20-17.23-9-21.05-4.36-28-12-5.95-6.54-4.86-11.82-14-22a51.82,51.82,0,0,0-10-9c-3-2-9.77-6.07-28-9-12-1.93-11.31-.52-19-2-15.41-3-16.79-8.32-38-16A170.45,170.45,0,0,0,276.5,53.13Z"/><rect class="doos" width="585" height="750"/></g></g></svg>