<svg xmlns="http://www.w3.org/2000/svg" viewBox="0 0 585 750"><defs><style>.unno{fill:#fff;}.unno,.doos{stroke:#000;stroke-miterlimit:10;stroke-width:6px;}.trres{fill:none;opacity:0;}</style></defs><g id="Capa_2" data-name="Capa 2"><g id="Capa_1-2" data-name="Capa 1"><path class="unno" d="M137,240.27c-1.38,13.32-2.16,21-2,32.26.15,10.56.93,10,1,20,.08,11-.86,13.57-2,31.15-.88,13.58-1.32,20.37-1,28.93.15,4.06.4,7.12,3,27.81,3.78,30.08,4,29.42,4,33.37.05,6.64-1.3,16.29-4,35.6-2.46,17.62-3.19,19.68-3,25.59.42,13.15,3.34,29.56,8,30,3,.31,5.95-6,7-8.9,2-5.49,1.37-10.28,1-14.46,0,0-.19-2.09,0-24.47.14-16.91,3.7-16.64,5-35.6a177.46,177.46,0,0,0-1-32.26c-1.57-15.08-3.23-16.13-5-30s-1.51-23.72-1-43.38c.5-19.49.75-29.23,3-40.05.71-3.42,2.34-10.58,4-21.14,1.44-9.19,1-8.75,2-14.46,3.12-17.58,7.5-22,5-26.7-2.71-5.06-11.67-6.93-17-3.34C141.9,211.65,139.69,214.36,137,240.27Z"/><path class="unno" d="M425.86,213c1.4,13.63,2.18,21.55,2,33-.16,10.81-.94,10.27-1,20.5-.08,11.29.87,13.89,2,31.88.88,13.9,1.33,20.85,1,29.61-.16,4.16-.41,7.29-3,28.47-3.81,30.79-4,30.12-4,34.16-.05,6.8,1.32,16.68,4,36.44,2.48,18,3.22,20.14,3,26.19-.43,13.46-3.37,30.25-8.08,30.74-3,.32-6-6.14-7.06-9.11-2-5.62-1.38-10.52-1-14.8,0,0,.19-2.14,0-25.05-.14-17.3-3.74-17-5-36.44a183.82,183.82,0,0,1,1-33c1.58-15.44,3.26-16.51,5-30.75s1.52-24.28,1-44.41c-.51-19.94-.76-29.91-3-41-.71-3.5-2.36-10.82-4-21.64-1.46-9.41-1-9-2-14.8-3.15-18-7.57-22.55-5.05-27.33,2.74-5.17,11.78-7.09,17.16-3.41C420.92,183.73,423.14,186.51,425.86,213Z"/><path class="doos" d="M20,209.38c.22,2,1.76,10,33.6,20.67,30.08,10.1,50.83,11.2,50.83,11.2,45.63,2.43,86.13-.39,108.54-1.72,35.57-2.11,65.93-1.12,126.64.86,40.52,1.32,57.12,2.94,92.17,1.72,7.4-.25-.95-.06,84.43-12.92,10.23-1.54,28.07-4.21,40.49-18.09,2-2.23,12-13.43,8.61-22.4-1-2.53-4.23-8.16-28.43-12.06-20.56-3.31-33.43-1.7-49.1-1.72a235.82,235.82,0,0,1-48.24-5.17,173.56,173.56,0,0,1-7.76-51.69c.12-17.27,3-32.18-6-46.52A45.54,45.54,0,0,0,412,57.76,378.66,378.66,0,0,0,337,45.7c-22.17-1.29-42.65,0-82.7,2.58-20.86,1.35-39.71-1-65.47,5.17a202.39,202.39,0,0,0-25,7.75q-3.24,19.74-6,40.49-4.29,32-6.9,62c-22.65,1.37-41.66,3.79-56,6-29.5,4.6-45,9.31-59.44,19.81C28.39,194.73,19.14,201.62,20,209.38Z"/><rect class="trres" width="585" height="750"/></g></g></svg>