<svg xmlns="http://www.w3.org/2000/svg" viewBox="0 0 585 750"><defs><style>.unoa,.cincoa{fill:none;}.unoa{opacity:0;}.dosa{fill:#7e190b;}.tresa,.cuatroa{fill:#fff;}.tresa,.cuatroa,.cincoa{stroke:#000;}.tresa{stroke-linecap:round;stroke-linejoin:round;}.tresa,.cincoa{stroke-width:4px;}.cuatroa,.cincoa{stroke-miterlimit:10;}.cuatroa{stroke-width:3px;}</style></defs><g id="Capa_2" data-name="Capa 2"><g id="Capa_1-2" data-name="Capa 1"><rect class="unoa" width="585" height="750"/><path class="dosa" d="M201.1,412.59c1.94,7.48,7,12.18,9.63,14.52,7.92,7.12,17.34,10,31.37,12.61,19.58,3.65,38.71,7.22,65.15,4,16.53-2,28.84-3.66,40.2-12.46,4.45-3.46,13-10.29,14.42-21.67.22-1.83,1.54-12.36-5.9-20.61-7.27-8.07-18.54-9.09-29.4-9.93-16.42-1.27-17.63,2.77-38.42,3.68-11.62.5-24.92,1.08-41.66-2.12-9.68-1.85-15.43-4-23.49-1.88a31.4,31.4,0,0,0-4.14,1.43,30.45,30.45,0,0,0-12.62,10C204.84,392.1,198.14,401.2,201.1,412.59Z"/><path class="tresa" d="M219.25,380a25.44,25.44,0,0,1,1.75,3.78c.91,2.49.79,3.27,1.64,4.33,1.44,1.8,4.14,2.08,5.21,2.2a11.5,11.5,0,0,0,8-2.39,11,11,0,0,0,4.19-8.3l1.81.37a11.16,11.16,0,0,0-1.11,5.49c.05.87.38,6.52,4.59,8.36,3,1.31,6.26-.11,7.69-.74a12.56,12.56,0,0,0,6.27-6.16l1.39-3.57a12.16,12.16,0,0,0,1.07,6.92,11.19,11.19,0,0,0,5.15,5.61,12.28,12.28,0,0,0,9.39.18c4.61-1.75,7.55-6.35,7.72-11.74a14.54,14.54,0,0,0,2.66,7,10.86,10.86,0,0,0,5.37,4.51,10.11,10.11,0,0,0,7.69-.74,10,10,0,0,0,4.12-4.88,13.67,13.67,0,0,0,1-8.31,12.29,12.29,0,0,0,1.79,7.15,13.3,13.3,0,0,0,4.16,4.27c1.5.92,4.21,2.56,7.13,2,.8-.15,2.58-.65,5.22-4.09a26.65,26.65,0,0,0,5-11.18,20.54,20.54,0,0,0,.59,5.44c.61,2.49,1,4.16,2.62,5.67a8.65,8.65,0,0,0,5.82,2.32,9,9,0,0,0,5.49-2.32,11.23,11.23,0,0,0,4.23-5.43,9.72,9.72,0,0,0,.45-2.2,45.71,45.71,0,0,0-5.82-2.31c-2.06-.67-7.32-2.2-17.12-2.31a108,108,0,0,0-13.34.73c-10,1-12.31,2-20,2.82a126.11,126.11,0,0,1-17.68.43,158.29,158.29,0,0,1-27.11-2.61c-8-1.52-14.85-3.55-23.6-1.33A33.74,33.74,0,0,0,219.25,380Z"/><path class="cuatroa" d="M216.15,429.64c0-.75.69-1.88,2.09-4.15s2.08-3.38,3.3-3.91c2.58-1.12,5.62.41,6.15.67a9.79,9.79,0,0,1,4.16,4.27,13.37,13.37,0,0,1,1.27,9.5c0,.08-.21.8-.2.81s.15-.45.27-.84c.75-1.13,1.85-2.71,3.32-4.53,3.4-4.23,4.91-5,5.44-5.19.87-.38,3.88-1.69,6.37-.43,2.17,1.11,2.72,3.55,3.22,5.79a16,16,0,0,1-.45,8.48l1.7.92a13.93,13.93,0,0,1,1.6-4.82,16,16,0,0,1,8.3-6.9c1.86-.68,3.44-1.25,5.16-.67,2.27.76,3.26,3,4,4.82A17.27,17.27,0,0,1,273,443.4l1.92-.19a20.07,20.07,0,0,1,3.25-6.77,19.09,19.09,0,0,1,10.94-7.51,8.6,8.6,0,0,1,5.05-.12c2.84,1,4.13,3.79,5.53,6.83a25.63,25.63,0,0,1,2.18,7.87,17.45,17.45,0,0,1,2.15-7.57,19.41,19.41,0,0,1,6.38-6.71c3.08-2.1,5.56-3.79,8.84-3.36,3.64.48,5.91,3.25,6.69,4.21a12,12,0,0,1,2.57,9.08,23.66,23.66,0,0,1,1.28-9.45c.53-1.48,3-8.21,8.74-9.09.52-.08,4.44-.62,7.13,2a7,7,0,0,1,1.91,6.09c0,.78.11,1.55.16,2.32a88.92,88.92,0,0,1-13.95,6.9c-17.81,7-34.15,6.89-45.95,6.73-8.34-.11-13.95-.8-24.7-2.12C237.86,439.44,216.19,434.11,216.15,429.64Z"/><path class="cincoa" d="M201.41,412.38c1.94,7.48,7,12.18,9.64,14.51,7.91,7.13,17.33,10,31.37,12.62,19.57,3.65,38.7,7.21,65.14,4,16.54-2,28.85-3.67,40.2-12.47,4.46-3.45,13-10.28,14.42-21.66.23-1.83,1.55-12.37-5.89-20.62-7.27-8.06-18.54-9.09-29.4-9.93-16.43-1.27-17.64,2.77-38.43,3.68-11.62.51-24.92,1.09-41.65-2.12-9.68-1.85-15.43-4-23.49-1.88a33.49,33.49,0,0,0-4.15,1.43A30.24,30.24,0,0,0,206.56,390C205.16,391.89,198.45,401,201.41,412.38Z"/></g></g></svg>