<?xml version="1.0" encoding="utf-8"?>
<!-- Generator: Adobe Illustrator 25.2.3, SVG Export Plug-In . SVG Version: 6.00 Build 0)  -->
<svg version="1.1" id="boca6" xmlns="http://www.w3.org/2000/svg" xmlns:xlink="http://www.w3.org/1999/xlink" x="0px" y="0px"
	 viewBox="0 0 585 750" style="enable-background:new 0 0 585 750;" xml:space="preserve">
<style type="text/css">
	.i0{fill:none;}
	.i1{fill:#7E190B;}
	.i2{fill:#FFFFFF;stroke:#000000;stroke-width:4;stroke-linecap:round;stroke-linejoin:round;}
	.i3{fill:#FFFFFF;stroke:#000000;stroke-width:3;stroke-linecap:round;stroke-linejoin:round;stroke-miterlimit:10;}
	.i4{fill:none;stroke:#000000;stroke-width:4;stroke-miterlimit:10;}
</style>
<rect class="i0" width="585" height="750"/>
<path class="i1" d="M199.7,391.4c2.6-7.3,8-11.5,10.8-13.7c8.5-6.5,18.1-8.5,32.3-10c19.8-2,39.2-4,65.2,1.4
	c16.3,3.4,28.4,6,39,15.7c4.1,3.8,12.1,11.3,12.6,22.8c0.1,1.9,0.5,12.5-7.6,20.1c-7.9,7.4-19.2,7.5-30.1,7.5
	c-16.5-0.1-17.3-4.2-38-6.8c-11.5-1.5-24.8-3.1-41.7-1.3c-9.8,1-15.7,2.7-23.6-0.1c-1.4-0.5-2.7-1.1-4-1.8c-4.8-2.6-8.9-6.4-11.7-11
	C201.8,412.1,195.9,402.5,199.7,391.4z"/>
<path class="i2" d="M215.1,425.4c0.8-1.2,1.4-2.4,2-3.6c1.1-2.4,1.1-3.2,2-4.2c1.6-1.7,4.3-1.7,5.4-1.8c2.9,0,5.7,1.1,7.8,3
	c2.4,2.2,3.6,5.4,3.5,8.6l1.8-0.2c-0.7-1.8-0.9-3.7-0.6-5.6c0.1-0.9,0.9-6.5,5.3-8c3.1-1.1,6.2,0.6,7.6,1.4c2.7,1.5,4.7,3.8,5.7,6.7
	c0.4,1.2,0.7,2.5,1.1,3.7c-0.1-2.4,0.4-4.7,1.6-6.8c1.2-2.3,3.2-4.1,5.6-5.2c3.1-1.1,6.5-0.8,9.4,0.6c4.5,2.1,7,7,6.7,12.3
	c0.5-2.5,1.6-4.8,3.2-6.7c1.4-1.9,3.4-3.4,5.7-4c2.6-0.6,5.3-0.1,7.6,1.4c1.8,1.3,3.1,3.1,3.7,5.2c1,2.7,1.1,5.6,0.3,8.4
	c0.1-2.5,0.9-5,2.4-7c1.2-1.6,2.7-3,4.5-3.9c1.6-0.8,4.4-2.2,7.3-1.4c0.8,0.2,2.5,0.9,4.9,4.5c2.2,3.5,3.6,7.4,4,11.5
	c0.1-1.8,0.4-3.6,1-5.4c0.8-2.4,1.4-4.1,3.1-5.4s3.8-2,6-1.8c2,0.3,3.9,1.3,5.3,2.8c1.8,1.5,3.2,3.5,3.8,5.8
	c0.2,0.7,0.3,1.5,0.3,2.2c-2,0.8-4,1.4-6,1.8c-2.1,0.5-7.5,1.6-17.2,0.9c-4.4-0.3-8.9-1-13.2-1.8c-9.9-1.8-12.1-3-19.7-4.5
	c-5.8-1-11.6-1.6-17.5-1.8c-9.1-0.7-18.2-0.5-27.2,0.4c-8.1,0.9-15.1,2.3-23.6-0.6C217.3,426.4,216.2,425.9,215.1,425.4z"/>
<path class="i3" d="M216.1,375.7c-0.1,0.7,0.5,1.9,1.7,4.3s1.8,3.5,3,4.2c2.5,1.3,5.6,0.1,6.2-0.2c1.9-0.8,3.4-2.2,4.5-3.9
	c1.8-2.8,2.5-6.1,2.1-9.4c0-0.1-0.1-0.8-0.1-0.8c0.1,0.3,0.1,0.6,0.2,0.9c0.6,1.2,1.6,2.9,2.9,4.8c3,4.5,4.5,5.4,5,5.6
	c0.8,0.5,3.7,2,6.3,1c2.3-0.9,3-3.3,3.7-5.5c0.8-2.8,0.9-5.7,0.2-8.5l1.8-0.8c0.1,1.7,0.5,3.4,1.2,4.9c1.6,3.3,4.3,6,7.7,7.6
	c1.8,0.8,3.3,1.5,5.1,1.1c2.3-0.6,3.5-2.7,4.4-4.5c1.6-3,2.3-6.4,2-9.8l1.9,0.3c0.5,2.5,1.4,4.9,2.7,7c2.3,3.9,6,6.9,10.3,8.4
	c1.6,0.7,3.3,0.9,5,0.5c2.9-0.8,4.4-3.4,6.1-6.3c1.3-2.4,2.3-5,2.8-7.7c-0.1,2.7,0.4,5.3,1.5,7.7c1.3,2.8,3.3,5.3,5.8,7.2
	c2.9,2.3,5.2,4.2,8.5,4.1c3.7-0.2,6.1-2.8,7-3.6c2.3-2.4,3.5-5.6,3.3-8.9c-0.5,3.2-0.3,6.4,0.5,9.5c0.4,1.5,2.3,8.4,8,9.8
	c0.5,0.1,4.4,1,7.3-1.4c1.7-1.5,2.6-3.7,2.4-5.9c0.1-0.8,0.2-1.5,0.4-2.3c-4.2-3.1-8.7-5.7-13.3-8c-17.2-8.4-33.5-9.7-45.2-10.5
	c-8.3-0.6-14-0.4-24.8,0.1C238.6,367.7,216.6,371.2,216.1,375.7z"/>
<path class="i4" d="M200,391.7c2.6-7.3,8-11.5,10.8-13.7c8.5-6.4,18.1-8.5,32.3-10c19.8-2,39.2-4,65.2,1.4c16.3,3.4,28.4,6,39,15.7
	c4.2,3.8,12.1,11.3,12.6,22.8c0.1,1.9,0.5,12.5-7.6,20.1c-7.9,7.4-19.2,7.5-30.1,7.5c-16.5-0.1-17.4-4.2-38-6.8
	c-11.5-1.5-24.8-3.1-41.7-1.3c-9.8,1-15.7,2.7-23.6-0.1c-1.4-0.5-2.7-1.1-4-1.8c-4.8-2.6-8.9-6.4-11.7-11.1
	C202.1,412.4,196.1,402.8,200,391.7z"/>
</svg>
