<svg xmlns="http://www.w3.org/2000/svg" viewBox="0 0 585 750"><defs><style>.unoa,.tresa{fill:none;}.unoa{opacity:0;}.dosa{fill:#7d1a04;}.tresa,.cuatroa,.cincoa{stroke:#000;stroke-linecap:round;stroke-linejoin:round;}.tresa{stroke-width:5px;}.cuatroa{fill:#d06a51;stroke-width:3px;}.cincoa{fill:#fff;stroke-width:2px;}</style></defs><g id="Capa_2" data-name="Capa 2"><g id="Capa_1-2" data-name="Capa 1"><rect class="unoa" width="585" height="750"/><path class="dosa" d="M245,400h0a25.75,25.75,0,0,0,3,14c1.17,2.16,4,7.32,10,10,8.68,3.86,17.3-.44,20-2a25.33,25.33,0,0,0,9-9,44.23,44.23,0,0,1,0-12,42.71,42.71,0,0,1,3-11,39.82,39.82,0,0,1,2-4c-6,.48-11.06.79-15,1-13.39.71-18.49.48-23,0-2.93-.31-5.35-.7-7-1v12"/><path class="tresa" d="M319.72,431.94a28.92,28.92,0,0,1-15.39-1.76,26.63,26.63,0,0,1-16.54-30c2-10.41,9.44-16,11.73-17.65a29.63,29.63,0,0,1,40,4.42"/><path class="tresa" d="M216.77,420.81A25.9,25.9,0,0,0,232.61,418a26.75,26.75,0,0,0,9.79-9.72c2.06-3.21,6-9.42,5-17.62-.22-1.74-1.11-8.75-6.8-13.44-9.62-7.93-23.85-1.72-25.69-.92a31.21,31.21,0,0,0-9.72,6.7"/><path class="cuatroa" d="M274.66,424.92a6.72,6.72,0,0,0-1.91-1.82c-2.23-1.38-3.92-.48-7.06-1.39-1.58-.46-3.74-1.09-4.38-2.76-.91-2.4,2-5.33,2.44-5.8a9.74,9.74,0,0,1,5.38-2.71,11,11,0,0,1,7.06,1.39,15.71,15.71,0,0,1,4.69,4.18,23,23,0,0,1,2.24,3.24"/><path class="cincoa" d="M256.66,388.53a21.66,21.66,0,0,0,1.46,6.42c1,2.61,1.84,3.07,2.23,3.24,1.88.82,4-.8,4.28-1,2.77-2.13,2.31-6.18,2.27-6.51a9.78,9.78,0,0,0,1.61,7.12c.49.65,2.27,3,4.38,2.76,1.57-.2,2.5-1.8,3.63-3.82a23,23,0,0,0,2.66-8.1A41.8,41.8,0,0,1,271,389c-3.53-.2-5.66-.78-9.91-.75C259.21,388.29,257.66,388.42,256.66,388.53Z"/><path class="tresa" d="M289.16,414.51a45.34,45.34,0,0,1-9.4,8.13c-4.48,2.9-8.05,5.21-13.06,5.21-5.5,0-9.48-2.79-11.43-4.15A25.48,25.48,0,0,1,247,413.59a29.34,29.34,0,0,1-2.65-8.4"/><path class="tresa" d="M244.74,382.24a45.41,45.41,0,0,0,11.6,4.87,33.22,33.22,0,0,0,4.2.74,70,70,0,0,0,13.32.53A112.43,112.43,0,0,0,298,384"/></g></g></svg>