<svg xmlns="http://www.w3.org/2000/svg" viewBox="0 0 585 750"><defs><style>.uno4,.dos2,.cincoc{fill:none;}.uno4,.dos2,.tres4,.cuatroc{stroke:#000;}.uno4,.dos2,.cuatroc{stroke-linecap:round;}.uno4,.tres4,.cuatroc{stroke-miterlimit:10;}.uno4{stroke-width:4px;}.dos2{stroke-linejoin:round;}.cuatroc{stroke-width:2px;}.cincoc{opacity:0;}</style></defs><g id="Capa_2" data-name="Capa 2"><g id="Capa_1-2" data-name="Capa 1"><path class="uno4" d="M260,358.92c-.45-.5-4.08-4.61-3-10,.19-.93,1-5.15,5-7a9,9,0,0,1,9,1,9.06,9.06,0,0,1,3,4,14.53,14.53,0,0,1,8-4,10.27,10.27,0,0,1,7,1,8.94,8.94,0,0,1,4,5,7.16,7.16,0,0,1,0,5,7.41,7.41,0,0,1-5,4"/><path class="dos2" d="M279.5,350.42a4.62,4.62,0,0,1,2.11-1.09c.18,0,2.67-.53,3.89,1.09s.57,4.28-1,5a2.72,2.72,0,0,1-2,0"/><path class="tres4" d="M283.5,354.42a3.63,3.63,0,0,0-1-2c-1.13-1.38-2-1.48-2-2s1.1-1,2-1a3.25,3.25,0,0,1,3,3c.06,1.81-1.71,3.16-2,3C283.37,355.35,283.56,355,283.5,354.42Z"/><path class="cuatroc" d="M263.5,353.42a4.61,4.61,0,0,1,.68-3.58,3.73,3.73,0,0,1,.32-.42"/><rect class="cincoc" width="585" height="750"/></g></g></svg>