<svg xmlns="http://www.w3.org/2000/svg" viewBox="0 0 585 750"><defs><style>.uno4{fill:none;opacity:0;}.dos4{fill:#c5713b;stroke:#000;stroke-miterlimit:10;stroke-width:4px;}</style></defs><g id="Capa_2" data-name="Capa 2"><g id="Capa_1-2" data-name="Capa 1"><rect class="uno4" width="585" height="750"/><path class="dos4" d="M259.86,371.56c-.32.26-2.38-1.85-7.87-6.82a40.14,40.14,0,0,0-7.34-5.24,6.05,6.05,0,0,0-4.19-1.05,5.47,5.47,0,0,0-3.15,2.1c-1.56,1.95-1.46,4.54-1.05,7.34a40.72,40.72,0,0,0,5.25,14.68A33.38,33.38,0,0,0,251,393.06c3.12,2.19,6.57,4.62,11.53,4.72,5.78.12,10-3.13,12.07-4.72,8.56-6.73,10.77-17.15,12.58-25.7,1.24-5.82,1.24-9.16,2.15-17,.57-4.94,1.19-8.18,2.05-14.47,2.3-16.79,2.14-18.74.67-20.11-4.28-4-15.16,1.12-17,2-4.49,2.12-7.56,5-10.94,8.14a29.63,29.63,0,0,0-6.3,7.34,27.55,27.55,0,0,0-3.14,9.44,39.47,39.47,0,0,0,0,13.64,33.41,33.41,0,0,0,3.67,12.06C259.13,369.93,260.1,371.36,259.86,371.56Z"/></g></g></svg>