<svg xmlns="http://www.w3.org/2000/svg" viewBox="0 0 585 750"><defs><style>.cls-1,.cls-2.cls-1{opacity:0;}</style></defs><g id="Capa_2" data-name="Capa 2"><g id="Capa_1-2" data-name="Capa 1"><rect class="cls-1" width="585" height="750"/><g id="t-bolas"><path class="cls-2" d="M297.91,478.07a33.73,33.73,0,0,0-8.72-11.14s-.58-.43-1.28-.88c-10.23-6.55-24.46-8.31-24.46-8.31s-15.64-1.93-36-6a231.46,231.46,0,0,1-25.27-6.49c-12.32-4-27.24-8.85-42.86-20.34-9.52-7-23.33-17.17-31-35-7.12-16.59-6.55-34.3-7.92-34.21-1.14.09,1.6,12.37-5.39,19.49-5.91,6-15.56,5.1-17.73,4.9-13-1.23-20.8-11.59-22.49-13.83-7.46-9.88-7.66-20.55-7.92-34.21-.18-9.79-.24-17.75,4.26-26.68,2.23-4.42,6.53-12.94,16.08-16.17,1.8-.61,10-3.15,18,1.18,7.6,4.15,10.08,11.94,11.21,15.47a41.2,41.2,0,0,1,1.64,11.29c.31,0-.16-14.69.29-27.17a245.4,245.4,0,0,1,5-40.7c2.56-12.7,5.95-29.06,15-48.54,5.53-11.93,10.5-22.64,21.23-33.68,8.75-9,16.9-13.68,27.6-19.8a179.47,179.47,0,0,1,44.59-18.75c21.27-5.63,37.87-5.56,55.06-5.37,55.43.61,94.4,15.46,105.36,19.89,21.23,8.57,32.73,16.53,41.38,24.18a120.41,120.41,0,0,1,22,25.86c16.27,26,17.85,51.46,18.54,62.71.73,11.64-.87,10.87-.41,28.15a73.56,73.56,0,0,1-2.29,18.86,18.66,18.66,0,0,1-2.84,6.71c-.77,1.06-1.39,1.61-1.23,1.86.44.7,5.73-2.62,11.64-4.62,3.38-1.15,10.43-3.53,17.36-1.91,10.2,2.38,15.48,12.32,16.42,14.09,6.14,11.55,2.7,23.65,0,33.24-2,6.85-5.38,18.91-16.54,28.2-3.1,2.59-11.76,9.6-23.29,9.25-3-.09-9.07-.27-12.54-4.55-2.42-3-2.51-6.65-2.64-11.4a41.35,41.35,0,0,1,1.57-12.91,79.71,79.71,0,0,1-2.8,14.77,76.59,76.59,0,0,1-5.79,14.41c-7.9,15.47-20.85,27.59-23.85,30.34a137.21,137.21,0,0,1-43.57,26.92C372,451.38,369,450.71,345.6,458.7c-15.92,5.45-22.32,8.44-26,15-1.7,3-2.94,7-7.16,9.2-3.66,1.91-9,2.17-12-.46C299.15,481.32,299.06,480.42,297.91,478.07Z"/><path class="cls-2" d="M397.81,724.87a40.89,40.89,0,0,0-9-3,59.46,59.46,0,0,0-11-1c-2.54-.07-4.43,0-6,0-7,.16-10.54.24-14,1-3.64.8-7.46.84-11,2a2.75,2.75,0,0,1-2,0,2.49,2.49,0,0,1-1-1c-1-1.84-9-33.15-10-37-1.05-5.42-2.47-13-4-22-1.92-11.28-1.4-9.46-4-26-1.63-10.34-3.85-23.92-2-35a28.63,28.63,0,0,1,2-7c2.23-5.13,4.78-6.66,8-11a44.79,44.79,0,0,0,7-15,53.93,53.93,0,0,0,2-15c.16-7.72.14-19.88-1-36,1.31,1.67,3.08,4,5,7,1.57,2.42,7,11,12,26a177,177,0,0,1,6,24c5.74,31,3.88,56.42,1,64-1.24,3.25-1.78,6.74-3,10-.85,2.26-1.61,4-1,6,.08.27,1.08,3.44,4,4a5.31,5.31,0,0,0,4-1,6.82,6.82,0,0,1,2,2c1.11,1.77.66,3.23,1,6,.31,2.57.56,4.58,2,6,1.8,1.77,5.24,2.39,7,1,2.36-1.87,1-6.79,2-7,.61-.12,1.13,1.58,3,4,1.27,1.64,3.41,4.42,5,4,1.19-.31,1.62-2.29,2-4a16.68,16.68,0,0,0,0-7c.1.17,1.33,2.11,3,2,1.5-.1,2.36-1.77,3-3a8.56,8.56,0,0,0,1-4c0-2.87-1.57-4.35-3-7-3-5.51-2.76-11.16-2.95-11.91,0-3.2,0-9.45-.05-11.09a256.11,256.11,0,0,0-2-30,162,162,0,0,0-11-39c-4.82-11.47-11.88-22-26-43-2.88-4.28-9.25-11.85-22-27,0,0-7.39-8.78-14-11l-6-2c-2.58-.86-2.75-.93-3-1-2.1-.62-5.39-.77-10.5,1.5a267.75,267.75,0,0,0-58,166,79.41,79.41,0,0,1-3.5,9.5c-.49,1-1,2-1,2-.84,1.6-1.46,2.56-1.67,2.91s-.59,2,.67,9.09c.48,2.75,1.18,6.68,3,7,1.2.21,2.38-1.23,3-2a19.18,19.18,0,0,0,3.51-8.67l-.51,9.67a13.76,13.76,0,0,0,3,5c1.1,1.17,1.94,2.06,3,2,1.53-.09,2.55-2.1,4-5a19.23,19.23,0,0,0,2-5,16.37,16.37,0,0,0-1-9s.89,2.45,4,12a5.54,5.54,0,0,0,4,4,5.46,5.46,0,0,0,4-1,7.12,7.12,0,0,0,3-4c.64-2.45-.76-3.53-1-8a26.72,26.72,0,0,1,0-3,9.57,9.57,0,0,0,3,0,7.72,7.72,0,0,0,3-1,7.29,7.29,0,0,0,3-5,8.12,8.12,0,0,0-2-6c-1.61-1.89-2.93-1.66-5-4a16.59,16.59,0,0,1-2-3c-1.73-3.28-3.1-14.23-3-29a185.3,185.3,0,0,1,1-31,189.34,189.34,0,0,1,20-65c.06,1.92.07,3.92,0,6a88.93,88.93,0,0,1-2,16,87.26,87.26,0,0,0-1,17,82.8,82.8,0,0,0,1,10c.88,5.37,1.39,8.5,3,12,2.61,5.68,4.77,5.08,9,12a34.94,34.94,0,0,1,5,12,31.63,31.63,0,0,1,0,12c-.23,7.65-.74,18.31-2,31-1.63,16.36-2.67,26.8-6,39a143.74,143.74,0,0,1-18,40c-1.18-.27-2.91-.64-5-1a101,101,0,0,0-27-1c-5.4.52-19,1.93-25,8a11.13,11.13,0,0,0-3,5,11,11,0,0,0,1,8c2.35,4.14,7.63,5.35,12,6,11.58,1.72,21.7.2,40-3,20.73-3.62,20.46-3.9,24-4a58.49,58.49,0,0,0,9-1.33,30.47,30.47,0,0,0,5.38-3.68,5.77,5.77,0,0,1,.83-.62c.13-.32.25-.63.37-1,.18-1.11.37-2.23.51-3.35a6.68,6.68,0,0,1,.94-2.71c0-.12,0-.24,0-.37-.39-.39-.75-.73-1-1v-34c1.29,4.7,2.31,8.46,3,11,.91,3.36,1.27,4.76,2,7a58.73,58.73,0,0,0,3,8c.15.32.11.22,3,6l1,2-.46.21a15.76,15.76,0,0,1,1.56,4,30.92,30.92,0,0,1,2.49,4,20.07,20.07,0,0,0,1.4,2.36c.2.28.19.27,0,0l.35.36c.15.14.25.23.3.29l.36.21a5,5,0,0,1,.94.77c3.68.14,8.09.39,13.07.84,7.69.7,8.46,1.14,17,2,8.39.85,3.95.06,26,1,4.62.2,8.73.4,13-2,1.57-.88,5.5-3.1,6-7C405.28,731.16,402.49,727.09,397.81,724.87Z"/></g></g></g></svg>
